<?xml version="1.0" encoding="UTF-8" standalone="no"?>
<svg
   xmlns:dc="http://purl.org/dc/elements/1.1/"
   xmlns:cc="http://creativecommons.org/ns#"
   xmlns:rdf="http://www.w3.org/1999/02/22-rdf-syntax-ns#"
   xmlns:svg="http://www.w3.org/2000/svg"
   xmlns="http://www.w3.org/2000/svg"
   xmlns:sodipodi="http://sodipodi.sourceforge.net/DTD/sodipodi-0.dtd"
   xmlns:inkscape="http://www.inkscape.org/namespaces/inkscape"
   sodipodi:docname="b.svg"
   inkscape:version="0.48.4 r9939"
   id="svg2"
   version="1.1"
   height="163.81"
   width="273.32526">
  <sodipodi:namedview
     pagecolor="#ffffff"
     bordercolor="#666666"
     borderopacity="1"
     objecttolerance="10"
     gridtolerance="10"
     guidetolerance="10"
     inkscape:pageopacity="0"
     inkscape:pageshadow="2"
     inkscape:window-width="1301"
     inkscape:window-height="744"
     id="namedview218"
     showgrid="false"
     inkscape:zoom="2.3699038"
     inkscape:cx="171.24147"
     inkscape:cy="45.152221"
     inkscape:window-x="65"
     inkscape:window-y="24"
     inkscape:window-maximized="1"
     inkscape:current-layer="content"
     inkscape:snap-grids="true"
     fit-margin-top="0"
     fit-margin-left="0"
     fit-margin-right="0"
     fit-margin-bottom="0" />
  <metadata
     id="metadata220">
    <rdf:RDF>
      <cc:Work
         rdf:about="">
        <dc:format>image/svg+xml</dc:format>
        <dc:type
           rdf:resource="http://purl.org/dc/dcmitype/StillImage" />
        <dc:title></dc:title>
      </cc:Work>
    </rdf:RDF>
  </metadata>
  <defs
     id="defs4" />
  <g
     id="g27438"
     transform="matrix(1.3802385,0,0,1.3802385,-90.641953,-123.3664)">
    <g
       word-spacing="normal"
       letter-spacing="normal"
       font-size-adjust="none"
       font-stretch="normal"
       font-weight="normal"
       font-variant="normal"
       font-style="normal"
       stroke-miterlimit="10.433"
       xml:space="preserve"
       transform="matrix(0.23428571,0,0,-0.23428571,-41,204.75)"
       id="content"
       style="font-style:normal;font-variant:normal;font-weight:normal;font-stretch:normal;letter-spacing:normal;word-spacing:normal;text-anchor:start;fill:none;stroke:#000000;stroke-linecap:butt;stroke-linejoin:miter;stroke-miterlimit:10.43299961;stroke-opacity:1;stroke-dasharray:none;stroke-dashoffset:0"><g
         id="g4152"
         transform="matrix(3.6207648,0,0,-5.1495344,216.93356,996.79419)"><g
           word-spacing="normal"
           letter-spacing="normal"
           font-size-adjust="none"
           font-stretch="normal"
           font-weight="normal"
           font-variant="normal"
           font-style="normal"
           stroke-miterlimit="10.433"
           xml:space="preserve"
           transform="matrix(0.23428571,0,0,-0.23428571,-41,204.75)"
           id="g4154"
           style="font-style:normal;font-variant:normal;font-weight:normal;font-stretch:normal;letter-spacing:normal;word-spacing:normal;text-anchor:start;fill:none;stroke:#000000;stroke-linecap:butt;stroke-linejoin:miter;stroke-miterlimit:10.43299961;stroke-opacity:1;stroke-dasharray:none;stroke-dashoffset:0"><polyline
             id="polyline4156"
             points="539,396 541.04,396 541.04,455.88 539,455.88 "
             style="fill:#000000;fill-rule:nonzero;stroke-width:0" /><path
             id="path4158"
             d="m 593.04,446.01 0,0.06 0,0.05 0,0.05 0,0.05 0,0.05 0,0.05 0,0.04 0,0.05 0,0.04 -0.01,0.04 0,0.04 0,0.04 0,0.04 0,0.04 -0.01,0.03 0,0.04 -0.01,0.06 -0.01,0.06 -0.01,0.05 -0.01,0.05 -0.02,0.05 -0.02,0.04 -0.02,0.04 -0.02,0.04 -0.03,0.03 -0.03,0.02 -0.04,0.03 -0.04,0.02 -0.04,0.02 -0.03,0.01 -0.02,0.01 -0.03,0 -0.02,0.01 -0.03,0.01 -0.03,0 -0.03,0.01 -0.04,0 -0.03,0.01 -0.03,0 -0.04,0 -0.04,0.01 -0.04,0 -0.04,0 -0.04,0 -0.04,0.01 -0.04,0 -0.05,0 -0.05,0 -0.05,0 -0.05,0 -0.05,0 c -3.1,-3.19 -7.47,-3.19 -9.06,-3.19 v -1.55 c 1,0 3.93,0 6.51,1.3 v -25.81 c 0,-1.8 -0.14,-2.39 -4.62,-2.39 h -1.6 v -1.55 c 1.75,0.16 6.08,0.16 8.07,0.16 2,0 6.32,0 8.07,-0.16 v 1.55 h -1.59 c -4.48,0 -4.64,0.54 -4.64,2.39 z"
             inkscape:connector-curvature="0"
             style="fill:#000000;stroke-width:0" /><path
             id="path4160"
             d="m 686,417.96 5.28,5.13 c 7.77,6.87 10.77,9.56 10.77,14.55 0,5.68 -4.48,9.67 -10.56,9.67 -5.64,0 -9.33,-4.6 -9.33,-9.03 0,-2.78 2.5,-2.78 2.64,-2.78 0.86,0 2.6,0.59 2.6,2.64 0,1.29 -0.9,2.59 -2.65,2.59 -0.39,0 -0.5,0 -0.64,-0.05 1.14,3.24 3.83,5.08 6.72,5.08 4.53,0 6.69,-4.05 6.69,-8.12 0,-3.99 -2.5,-7.93 -5.24,-11.02 l -9.56,-10.66 c -0.56,-0.54 -0.56,-0.64 -0.56,-1.84 h 18.49 l 1.4,8.67 h -1.25 c -0.25,-1.5 -0.59,-3.68 -1.09,-4.43 -0.36,-0.4 -3.64,-0.4 -4.74,-0.4 z"
             inkscape:connector-curvature="0"
             style="fill:#000000;stroke-width:0" /><path
             id="path4162"
             d="m 795.41,431.65 0.37,0.13 0.38,0.15 0.36,0.16 0.36,0.16 0.34,0.18 0.34,0.19 0.33,0.21 0.33,0.21 0.31,0.22 0.3,0.23 0.29,0.24 0.28,0.25 0.27,0.26 0.26,0.27 0.25,0.28 0.24,0.28 0.22,0.29 0.22,0.3 0.2,0.31 0.19,0.31 0.17,0.32 0.16,0.32 0.15,0.33 0.13,0.34 0.12,0.34 0.1,0.35 0.09,0.35 0.07,0.35 0.06,0.36 0.04,0.36 0.03,0.37 0.01,0.36 c 0,4.08 -4.4,6.88 -9.18,6.88 -5.03,0 -8.81,-3 -8.81,-6.78 0,-1.64 1.09,-2.6 2.55,-2.6 1.53,0 2.53,1.1 2.53,2.55 0,2.48 -2.35,2.48 -3.08,2.48 1.53,2.44 4.83,3.1 6.63,3.1 2.03,0 4.78,-1.1 4.78,-5.58 0,-0.61 -0.11,-3.48 -1.41,-5.69 -1.48,-2.39 -3.19,-2.53 -4.42,-2.59 -0.41,-0.05 -1.59,-0.14 -1.95,-0.14 -0.4,-0.05 -0.75,-0.1 -0.75,-0.6 0,-0.54 0.35,-0.54 1.2,-0.54 h 2.19 c 4.09,0 5.93,-3.39 5.93,-8.28 0,-6.77 -3.43,-8.22 -5.64,-8.22 -2.14,0 -5.87,0.84 -7.61,3.78 1.74,-0.24 3.28,0.86 3.28,2.75 0,1.8 -1.34,2.78 -2.79,2.78 -1.19,0 -2.78,-0.69 -2.78,-2.89 0,-4.53 4.62,-7.81 10.06,-7.81 6.08,0 10.61,4.53 10.61,9.61 0,4.09 -3.14,7.97 -8.31,9.01 z"
             inkscape:connector-curvature="0"
             style="fill:#000000;stroke-width:0" /><path
             id="path4164"
             d="m 896.87,422.34 v -4.33 c 0,-1.8 -0.09,-2.34 -3.78,-2.34 h -1.05 v -1.55 c 2.05,0.16 4.64,0.16 6.74,0.16 2.09,0 4.73,0 6.76,-0.16 v 1.55 h -1.04 c -3.69,0 -3.78,0.54 -3.78,2.34 v 4.33 h 4.98 v 1.55 h -4.98 v 22.67 c 0,1 0,1.3 -0.8,1.3 -0.45,0 -0.6,0 -1,-0.61 l -15.3,-23.36 h 1.41 l 12.15,18.57 v -18.57 h -12.15 -1.41 v -1.55 z"
             inkscape:connector-curvature="0"
             style="fill:#000000;stroke-width:0" /><path
             id="path4166"
             d="m 1006,424.14 0,0.55 0,0.55 -0.1,0.53 -0.1,0.54 -0.1,0.52 -0.1,0.51 -0.2,0.51 -0.1,0.49 -0.2,0.48 -0.2,0.47 -0.2,0.46 -0.3,0.44 -0.2,0.43 -0.3,0.41 -0.3,0.4 -0.3,0.38 -0.3,0.36 -0.4,0.35 -0.3,0.33 -0.4,0.3 -0.4,0.29 -0.4,0.27 -0.4,0.24 -0.4,0.22 -0.45,0.2 -0.45,0.17 -0.45,0.15 -0.47,0.13 -0.47,0.09 -0.48,0.08 -0.49,0.04 -0.51,0.01 c -2.38,0 -4.53,-0.79 -6.32,-2.53 v 9.7 c 1,-0.29 2.64,-0.64 4.23,-0.64 6.16,0 9.56,4.54 9.56,5.19 0,0.3 -0.1,0.55 -0.5,0.55 0,0 -0.1,0 -0.3,-0.16 -1,-0.45 -3.48,-1.44 -6.82,-1.44 -1.98,0 -4.28,0.35 -6.63,1.4 -0.39,0.14 -0.5,0.14 -0.59,0.14 -0.5,0 -0.5,-0.39 -0.5,-1.19 v -14.75 c 0,-0.89 0,-1.3 0.7,-1.3 0.35,0 0.44,0.16 0.64,0.45 0.55,0.8 2.4,3.49 6.43,3.49 2.59,0 3.87,-2.3 4.27,-3.19 0.8,-1.84 0.9,-3.78 0.9,-6.28 0,-1.73 0,-4.73 -1.2,-6.83 -1.22,-1.94 -3.07,-3.23 -5.37,-3.23 -3.63,0 -6.46,2.64 -7.32,5.58 0.15,-0.05 0.31,-0.1 0.86,-0.1 1.64,0 2.48,1.25 2.48,2.44 0,1.2 -0.84,2.44 -2.48,2.44 -0.71,0 -2.46,-0.35 -2.46,-2.64 0,-4.28 3.44,-9.11 9.04,-9.11 5.75,0 10.85,4.78 10.85,11.11 z"
             inkscape:connector-curvature="0"
             style="fill:#000000;stroke-width:0" /><path
             id="path4168"
             d="m 1091.5,430.46 v 1.19 c 0,12.61 6.2,14.41 8.7,14.41 1.2,0 3.3,-0.3 4.4,-2 -0.8,0 -2.8,0 -2.8,-2.24 0,-1.54 1.3,-2.29 2.3,-2.29 0.8,0 2.3,0.45 2.3,2.39 0,3 -2.2,5.39 -6.3,5.39 -6.4,0 -13.1,-6.44 -13.1,-17.44 0,-13.31 5.8,-16.84 10.4,-16.84 5.5,0 10.3,4.68 10.3,11.25 0,6.33 -4.5,11.12 -10,11.12 l 0,-1.15 c 0.7,0 3.1,0 4.6,-3.1 0.9,-1.83 0.9,-4.37 0.9,-6.81 0,-2.39 0,-4.89 -0.9,-6.69 -1.5,-2.98 -3.7,-3.23 -4.9,-3.23 h 0 c -3.1,0 -4.6,2.98 -4.9,3.73 -0.9,2.35 -0.9,6.33 -0.9,7.24 0,3.87 1.6,8.86 6.1,8.86 l 0,1.15 c -3.4,0 -5.2,-2.54 -6.2,-4.94 z"
             inkscape:connector-curvature="0"
             style="fill:#000000;stroke-width:0" /><path
             id="path4170"
             d="m 1209.9,444.46 0,0.06 0.1,0.05 0,0.05 0,0.05 0.1,0.04 0,0.05 0,0.04 0.1,0.04 0,0.04 0,0.04 0,0.04 0,0.04 0,0.04 0.1,0.04 0,0.04 0,0.04 0,0.05 0,0.04 0,0.05 0,0.05 0,0.05 0,0.05 0,0.06 0,0.06 0,0.06 0,0.07 0,0.07 0,0.08 0,0.08 0,0.08 0,0.09 0,0.05 0,0.05 h -12.1 c -6,0 -6.1,0.66 -6.3,1.59 h -1.3 l -1.6,-10.25 h 1.2 c 0.2,0.8 0.6,3.94 1.3,4.53 0.3,0.3 4.2,0.3 4.8,0.3 h 10.4 c -0.6,-0.8 -4.5,-6.23 -5.6,-7.87 -4.5,-6.72 -6.2,-13.66 -6.2,-18.74 0,-0.5 0,-2.73 2.3,-2.73 2.3,0 2.3,2.23 2.3,2.73 v 2.55 c 0,2.73 0.2,5.48 0.6,8.17 0.2,1.14 0.9,5.42 3.1,8.52 z"
             inkscape:connector-curvature="0"
             style="fill:#000000;stroke-width:0" /><path
             id="path4172"
             d="m 1302.8,432.15 0.4,0.18 0.3,0.18 0.3,0.18 0.3,0.19 0.3,0.19 0.3,0.2 0.3,0.2 0.3,0.2 0.3,0.21 0.2,0.22 0.3,0.22 0.2,0.22 0.3,0.23 0.2,0.23 0.2,0.23 0.2,0.24 0.2,0.25 0.2,0.24 0.2,0.26 0.1,0.25 0.2,0.26 0.1,0.27 0.1,0.27 0.1,0.27 0.1,0.28 0.1,0.28 0.1,0.28 0.1,0.29 0,0.3 0.1,0.29 0,0.31 0,0.3 c 0,4.59 -4.5,7.44 -9,7.44 l 0,-1.25 c 3.6,0 6.8,-2.6 6.8,-6.19 0,-2.83 -2,-5.22 -4.9,-6.97 l -6.2,3.99 c -2.3,1.5 -2.5,3.18 -2.5,4.03 0,3.04 3.2,5.14 6.8,5.14 l 0,1.25 c -5,0 -9,-3.69 -9,-8.33 0,-0.89 0.1,-3.14 2.2,-5.48 0.5,-0.6 2.4,-1.85 3.6,-2.69 l 1.2,-0.75 6.1,-3.88 c 1.4,-0.95 3.7,-2.45 3.7,-5.48 0,-3.69 -3.7,-6.28 -7.8,-6.28 -4.3,0 -7.9,3.09 -7.9,7.22 0,2.89 1.6,6.07 5.9,8.42 h 0 l -1.2,0.75 c -2.9,-1.44 -7.1,-4.24 -7.1,-9.17 0,-5.28 5,-8.61 10.3,-8.61 5.6,0 10.3,4.14 10.3,9.47 0,1.78 -0.5,4.03 -2.4,6.12 -1,1.05 -1.8,1.55 -5,3.53 z"
             inkscape:connector-curvature="0"
             style="fill:#000000;stroke-width:0" /><path
             id="path4174"
             d="m 1407,429.96 v -1.59 c 0,-11.66 -5.2,-13.95 -8,-13.95 -0.9,0 -3.6,0.11 -4.9,1.79 2.1,0 2.6,1.44 2.6,2.3 0,1.53 -1.2,2.28 -2.3,2.28 -0.8,0 -2.3,-0.43 -2.3,-2.39 0,-3.33 2.7,-5.37 6.9,-5.37 6.4,0 12.5,6.76 12.5,17.48 0,13.41 -5.7,16.8 -10.2,16.8 -2.7,0 -5.1,-0.91 -7.3,-3.14 -2,-2.25 -3.2,-4.35 -3.2,-8.08 0,-6.22 4.4,-11.11 10,-11.11 l 0,1.14 c -0.7,0 -3,0 -4.6,3.14 -0.9,1.85 -0.9,4.35 -0.9,6.78 0,2.69 0,5.03 1.1,6.88 1.3,2.48 3.2,3.14 4.9,3.14 2.3,0 4,-1.7 4.8,-3.94 0.6,-1.59 0.8,-4.73 0.8,-7.03 0,-4.13 -1.7,-8.97 -6.1,-8.97 h 0 l 0,-1.14 c 3,0 5.1,2.09 6.2,4.98 z"
             inkscape:connector-curvature="0"
             style="fill:#000000;stroke-width:0" /><polyline
             id="polyline4176"
             points="456,394 1452.4,394 1452.4,396.04 456,396.04 "
             style="fill:#000000;fill-rule:nonzero;stroke-width:0" /><path
             id="path4178"
             d="m 500.04,384.21 0,0.06 0,0.05 0,0.05 0,0.05 0,0.05 0,0.05 0,0.04 0,0.05 0,0.04 -0.01,0.04 0,0.04 0,0.04 0,0.04 0,0.04 -0.01,0.03 0,0.03 -0.01,0.07 -0.01,0.06 -0.01,0.05 -0.01,0.05 -0.02,0.05 -0.02,0.04 -0.02,0.04 -0.02,0.03 -0.03,0.04 -0.03,0.02 -0.04,0.03 -0.04,0.02 -0.04,0.02 -0.03,0.01 -0.02,0.01 -0.03,0 -0.02,0.01 -0.03,0.01 -0.03,0 -0.03,0.01 -0.04,0 -0.03,0.01 -0.03,0 -0.04,0 -0.04,0.01 -0.04,0 -0.04,0 -0.04,0 -0.04,0 -0.04,0.01 -0.05,0 -0.05,0 -0.05,0 -0.05,0 -0.05,0 c -3.1,-3.19 -7.47,-3.19 -9.06,-3.19 v -1.55 c 1,0 3.93,0 6.51,1.3 v -25.81 c 0,-1.8 -0.14,-2.39 -4.62,-2.39 h -1.6 v -1.55 c 1.75,0.16 6.08,0.16 8.07,0.16 2,0 6.32,0 8.07,-0.16 v 1.55 h -1.59 c -4.48,0 -4.64,0.54 -4.64,2.39 z"
             inkscape:connector-curvature="0"
             style="fill:#000000;stroke-width:0" /><polyline
             id="polyline4180"
             points="539,334 541.04,334 541.04,393.88 539,393.88 "
             style="fill:#000000;fill-rule:nonzero;stroke-width:0" /><polygon
             id="polygon4182"
             points="570.66,364.52 570.66,361.63 583.87,361.63 583.87,364.52 "
             style="fill:#000000;stroke-width:0" /><path
             id="path4184"
             d="m 601.32,384.21 0,0.06 0,0.05 0,0.05 0,0.05 0,0.05 0,0.05 -0.01,0.04 0,0.05 0,0.04 0,0.04 0,0.04 0,0.04 0,0.04 -0.01,0.04 0,0.03 0,0.03 -0.01,0.07 -0.01,0.06 -0.01,0.05 -0.01,0.05 -0.02,0.05 -0.02,0.04 -0.02,0.04 -0.03,0.03 -0.02,0.04 -0.04,0.02 -0.03,0.03 -0.04,0.02 -0.05,0.02 -0.02,0.01 -0.02,0.01 -0.03,0 -0.03,0.01 -0.03,0.01 -0.02,0 -0.04,0.01 -0.03,0 -0.03,0.01 -0.04,0 -0.03,0 -0.04,0.01 -0.04,0 -0.04,0 -0.04,0 -0.04,0 -0.05,0.01 -0.04,0 -0.05,0 -0.05,0 -0.05,0 -0.05,0 c -3.1,-3.19 -7.47,-3.19 -9.07,-3.19 v -1.55 c 1,0 3.94,0 6.52,1.3 v -25.81 c 0,-1.8 -0.14,-2.39 -4.63,-2.39 h -1.59 v -1.55 c 1.75,0.16 6.08,0.16 8.06,0.16 2,0 6.33,0 8.08,-0.16 v 1.55 h -1.59 c -4.49,0 -4.64,0.54 -4.64,2.39 z"
             inkscape:connector-curvature="0"
             style="fill:#000000;stroke-width:0" /><polygon
             id="polygon4186"
             points="671.94,364.52 671.94,361.63 685.15,361.63 685.15,364.52 "
             style="fill:#000000;stroke-width:0" /><path
             id="path4188"
             d="m 702.59,384.21 0,0.06 0,0.05 0,0.05 0,0.05 0,0.05 0,0.05 0,0.04 0,0.05 0,0.04 0,0.04 0,0.04 0,0.04 -0.01,0.04 0,0.04 0,0.03 0,0.03 -0.01,0.07 -0.01,0.06 -0.01,0.05 -0.02,0.05 -0.01,0.05 -0.02,0.04 -0.02,0.04 -0.03,0.03 -0.03,0.04 -0.03,0.02 -0.03,0.03 -0.04,0.02 -0.05,0.02 -0.02,0.01 -0.03,0.01 -0.02,0 -0.03,0.01 -0.03,0.01 -0.03,0 -0.03,0.01 -0.03,0 -0.03,0.01 -0.04,0 -0.03,0 -0.04,0.01 -0.04,0 -0.04,0 -0.04,0 -0.05,0 -0.04,0.01 -0.05,0 -0.04,0 -0.05,0 -0.05,0 -0.06,0 c -3.09,-3.19 -7.47,-3.19 -9.06,-3.19 v -1.55 c 1,0 3.94,0 6.52,1.3 v -25.81 c 0,-1.8 -0.14,-2.39 -4.63,-2.39 h -1.59 v -1.55 c 1.75,0.16 6.08,0.16 8.06,0.16 2,0 6.33,0 8.08,-0.16 v 1.55 h -1.6 c -4.48,0 -4.64,0.54 -4.64,2.39 z"
             inkscape:connector-curvature="0"
             style="fill:#000000;stroke-width:0" /><path
             id="path4190"
             d="m 803.87,368.26 0,0.75 -0.01,0.74 -0.02,0.75 -0.04,0.74 -0.04,0.75 -0.06,0.74 -0.08,0.74 -0.09,0.73 -0.12,0.73 -0.14,0.73 -0.16,0.73 -0.19,0.71 -0.21,0.72 -0.25,0.7 -0.28,0.7 -0.15,0.35 -0.16,0.34 c -2.28,4.8 -6.37,5.6 -8.47,5.6 -2.98,0 -6.62,-1.3 -8.67,-5.94 -1.59,-3.44 -1.84,-7.33 -1.84,-11.31 0,-3.74 0.2,-8.22 2.25,-12 2.14,-4.03 5.78,-5.03 8.21,-5.03 v 1.09 c -1.93,0 -4.88,1.25 -5.78,6.03 -0.54,2.99 -0.54,7.56 -0.54,10.52 0,3.18 0,6.47 0.4,9.15 0.94,5.94 4.67,6.38 5.92,6.38 1.65,0 4.94,-0.89 5.88,-5.83 0.5,-2.78 0.5,-6.58 0.5,-9.7 0,-3.75 0,-7.13 -0.55,-10.32 -0.75,-4.73 -3.59,-6.23 -5.83,-6.23 h 0 v -1.09 c 2.69,0 6.47,1.04 8.68,5.78 1.59,3.44 1.84,7.31 1.84,11.25 z"
             inkscape:connector-curvature="0"
             style="fill:#000000;stroke-width:0" /><path
             id="path4192"
             d="m 905.15,368.26 -0.01,0.75 -0.01,0.74 -0.02,0.75 -0.03,0.74 -0.04,0.75 -0.06,0.74 -0.08,0.74 -0.1,0.73 -0.11,0.73 -0.14,0.73 -0.16,0.73 -0.19,0.71 -0.22,0.72 -0.24,0.7 -0.28,0.7 -0.15,0.35 -0.16,0.34 c -2.28,4.8 -6.38,5.6 -8.47,5.6 -2.98,0 -6.63,-1.3 -8.67,-5.94 -1.6,-3.44 -1.85,-7.33 -1.85,-11.31 0,-3.74 0.21,-8.22 2.25,-12 2.14,-4.03 5.79,-5.03 8.22,-5.03 v 1.09 c -1.93,0 -4.89,1.25 -5.78,6.03 -0.55,2.99 -0.55,7.56 -0.55,10.52 0,3.18 0,6.47 0.41,9.15 0.94,5.94 4.67,6.38 5.92,6.38 1.64,0 4.94,-0.89 5.88,-5.83 0.5,-2.78 0.5,-6.58 0.5,-9.7 0,-3.75 0,-7.13 -0.55,-10.32 -0.75,-4.73 -3.59,-6.23 -5.83,-6.23 h 0 v -1.09 c 2.69,0 6.47,1.04 8.67,5.78 1.6,3.44 1.85,7.31 1.85,11.25 z"
             inkscape:connector-curvature="0"
             style="fill:#000000;stroke-width:0" /><path
             id="path4194"
             d="m 1006.5,368.26 0,0.75 0,0.74 0,0.75 0,0.74 -0.1,0.75 0,0.74 -0.1,0.74 -0.1,0.73 -0.1,0.73 -0.2,0.73 -0.1,0.73 -0.2,0.71 -0.2,0.72 -0.3,0.7 -0.2,0.7 -0.2,0.35 -0.2,0.34 c -2.2,4.8 -6.33,5.6 -8.43,5.6 -2.98,0 -6.62,-1.3 -8.67,-5.94 -1.59,-3.44 -1.84,-7.33 -1.84,-11.31 0,-3.74 0.2,-8.22 2.25,-12 2.14,-4.03 5.78,-5.03 8.22,-5.03 v 1.09 c -1.94,0 -4.89,1.25 -5.78,6.03 -0.55,2.99 -0.55,7.56 -0.55,10.52 0,3.18 0,6.47 0.4,9.15 0.94,5.94 4.68,6.38 5.93,6.38 1.64,0 4.97,-0.89 5.87,-5.83 0.5,-2.78 0.5,-6.58 0.5,-9.7 0,-3.75 0,-7.13 -0.5,-10.32 -0.8,-4.73 -3.64,-6.23 -5.87,-6.23 h 0 v -1.09 c 2.69,0 6.47,1.04 8.67,5.78 1.6,3.44 1.8,7.31 1.8,11.25 z"
             inkscape:connector-curvature="0"
             style="fill:#000000;stroke-width:0" /><path
             id="path4196"
             d="m 1107.8,368.26 0,0.75 0,0.74 0,0.75 0,0.74 -0.1,0.75 -0.1,0.74 0,0.74 -0.1,0.73 -0.1,0.73 -0.2,0.73 -0.1,0.73 -0.2,0.71 -0.2,0.72 -0.3,0.7 -0.3,0.7 -0.1,0.35 -0.2,0.34 c -2.3,4.8 -6.4,5.6 -8.5,5.6 -2.9,0 -6.6,-1.3 -8.6,-5.94 -1.6,-3.44 -1.9,-7.33 -1.9,-11.31 0,-3.74 0.2,-8.22 2.3,-12 2.1,-4.03 5.8,-5.03 8.2,-5.03 v 1.09 c -1.9,0 -4.9,1.25 -5.8,6.03 -0.5,2.99 -0.5,7.56 -0.5,10.52 0,3.18 0,6.47 0.4,9.15 0.9,5.94 4.7,6.38 5.9,6.38 1.6,0 4.9,-0.89 5.9,-5.83 0.5,-2.78 0.5,-6.58 0.5,-9.7 0,-3.75 0,-7.13 -0.6,-10.32 -0.7,-4.73 -3.6,-6.23 -5.8,-6.23 h 0 v -1.09 c 2.7,0 6.5,1.04 8.7,5.78 1.6,3.44 1.8,7.31 1.8,11.25 z"
             inkscape:connector-curvature="0"
             style="fill:#000000;stroke-width:0" /><path
             id="path4198"
             d="m 1209.1,368.26 0,0.75 0,0.74 0,0.75 -0.1,0.74 0,0.75 -0.1,0.74 0,0.74 -0.1,0.73 -0.2,0.73 -0.1,0.73 -0.2,0.73 -0.1,0.71 -0.3,0.72 -0.2,0.7 -0.3,0.7 -0.1,0.35 -0.2,0.34 c -2.3,4.8 -6.4,5.6 -8.5,5.6 -3,0 -6.6,-1.3 -8.6,-5.94 -1.6,-3.44 -1.9,-7.33 -1.9,-11.31 0,-3.74 0.2,-8.22 2.3,-12 2.1,-4.03 5.7,-5.03 8.2,-5.03 v 1.09 c -2,0 -4.9,1.25 -5.8,6.03 -0.6,2.99 -0.6,7.56 -0.6,10.52 0,3.18 0,6.47 0.5,9.15 0.9,5.94 4.6,6.38 5.9,6.38 1.6,0 4.9,-0.89 5.9,-5.83 0.5,-2.78 0.5,-6.58 0.5,-9.7 0,-3.75 0,-7.13 -0.6,-10.32 -0.7,-4.73 -3.6,-6.23 -5.8,-6.23 h 0 v -1.09 c 2.7,0 6.5,1.04 8.6,5.78 1.6,3.44 1.9,7.31 1.9,11.25 z"
             inkscape:connector-curvature="0"
             style="fill:#000000;stroke-width:0" /><path
             id="path4200"
             d="m 1310.4,368.26 0,0.75 0,0.74 -0.1,0.75 0,0.74 0,0.75 -0.1,0.74 -0.1,0.74 -0.1,0.73 -0.1,0.73 -0.1,0.73 -0.2,0.73 -0.2,0.71 -0.2,0.72 -0.2,0.7 -0.3,0.7 -0.2,0.35 -0.1,0.34 c -2.3,4.8 -6.4,5.6 -8.5,5.6 -3,0 -6.6,-1.3 -8.7,-5.94 -1.6,-3.44 -1.8,-7.33 -1.8,-11.31 0,-3.74 0.2,-8.22 2.2,-12 2.2,-4.03 5.8,-5.03 8.3,-5.03 v 1.09 c -2,0 -4.9,1.25 -5.8,6.03 -0.6,2.99 -0.6,7.56 -0.6,10.52 0,3.18 0,6.47 0.4,9.15 1,5.94 4.7,6.38 6,6.38 1.6,0 4.9,-0.89 5.8,-5.83 0.5,-2.78 0.5,-6.58 0.5,-9.7 0,-3.75 0,-7.13 -0.5,-10.32 -0.8,-4.73 -3.6,-6.23 -5.8,-6.23 h 0 v -1.09 c 2.7,0 6.4,1.04 8.6,5.78 1.6,3.44 1.9,7.31 1.9,11.25 z"
             inkscape:connector-curvature="0"
             style="fill:#000000;stroke-width:0" /><path
             id="path4202"
             d="m 1411.7,368.26 -0.1,0.75 0,0.74 0,0.75 0,0.74 -0.1,0.75 0,0.74 -0.1,0.74 -0.1,0.73 -0.1,0.73 -0.1,0.73 -0.2,0.73 -0.2,0.71 -0.2,0.72 -0.3,0.7 -0.2,0.7 -0.2,0.35 -0.1,0.34 c -2.3,4.8 -6.4,5.6 -8.5,5.6 -3,0 -6.6,-1.3 -8.7,-5.94 -1.6,-3.44 -1.8,-7.33 -1.8,-11.31 0,-3.74 0.2,-8.22 2.2,-12 2.2,-4.03 5.8,-5.03 8.2,-5.03 v 1.09 c -1.9,0 -4.9,1.25 -5.7,6.03 -0.6,2.99 -0.6,7.56 -0.6,10.52 0,3.18 0,6.47 0.4,9.15 1,5.94 4.7,6.38 5.9,6.38 1.7,0 5,-0.89 5.9,-5.83 0.5,-2.78 0.5,-6.58 0.5,-9.7 0,-3.75 0,-7.13 -0.5,-10.32 -0.8,-4.73 -3.6,-6.23 -5.9,-6.23 h 0 v -1.09 c 2.7,0 6.5,1.04 8.7,5.78 1.6,3.44 1.9,7.31 1.9,11.25 z"
             inkscape:connector-curvature="0"
             style="fill:#000000;stroke-width:0" /><path
             id="path4204"
             d="m 491.73,296.4 5.28,5.13 c 7.76,6.87 10.76,9.56 10.76,14.54 0,5.69 -4.48,9.68 -10.56,9.68 -5.64,0 -9.33,-4.6 -9.33,-9.04 0,-2.78 2.5,-2.78 2.64,-2.78 0.86,0 2.6,0.6 2.6,2.64 0,1.3 -0.89,2.6 -2.64,2.6 -0.39,0 -0.5,0 -0.64,-0.05 1.14,3.24 3.82,5.08 6.71,5.08 4.54,0 6.69,-4.05 6.69,-8.13 0,-3.98 -2.5,-7.92 -5.23,-11.01 l -9.56,-10.66 c -0.57,-0.54 -0.57,-0.64 -0.57,-1.84 h 18.49 l 1.4,8.67 h -1.25 c -0.25,-1.5 -0.59,-3.69 -1.09,-4.44 -0.36,-0.39 -3.64,-0.39 -4.73,-0.39 z"
             inkscape:connector-curvature="0"
             style="fill:#000000;stroke-width:0" /><polyline
             id="polyline4206"
             points="539,275 541.04,275 541.04,334.88 539,334.88 "
             style="fill:#000000;fill-rule:nonzero;stroke-width:0" /><path
             id="path4208"
             d="m 593.04,324.45 0,0.05 0,0.06 0,0.05 0,0.05 0,0.05 0,0.05 0,0.04 0,0.05 0,0.04 -0.01,0.04 0,0.04 0,0.04 0,0.04 0,0.03 -0.01,0.04 0,0.03 -0.01,0.07 -0.01,0.06 -0.01,0.05 -0.01,0.05 -0.02,0.05 -0.02,0.04 -0.02,0.04 -0.02,0.03 -0.03,0.03 -0.03,0.03 -0.04,0.03 -0.04,0.02 -0.04,0.02 -0.03,0.01 -0.02,0 -0.03,0.01 -0.02,0.01 -0.03,0 -0.03,0.01 -0.03,0.01 -0.04,0 -0.03,0 -0.03,0.01 -0.04,0 -0.04,0 -0.04,0.01 -0.04,0 -0.04,0 -0.04,0 -0.04,0 -0.05,0 -0.05,0.01 -0.05,0 -0.05,0 -0.05,0 c -3.1,-3.19 -7.47,-3.19 -9.06,-3.19 v -1.55 c 1,0 3.93,0 6.51,1.3 V 296.5 c 0,-1.8 -0.14,-2.39 -4.62,-2.39 h -1.6 v -1.55 c 1.75,0.15 6.08,0.15 8.07,0.15 2,0 6.32,0 8.07,-0.15 v 1.55 h -1.59 c -4.48,0 -4.64,0.54 -4.64,2.39 z"
             inkscape:connector-curvature="0"
             style="fill:#000000;stroke-width:0" /><path
             id="path4210"
             d="m 702.6,308.5 -0.01,0.74 -0.01,0.75 -0.02,0.75 -0.03,0.74 -0.04,0.75 -0.06,0.74 -0.08,0.74 -0.1,0.73 -0.11,0.73 -0.14,0.73 -0.16,0.72 -0.19,0.72 -0.22,0.71 -0.24,0.71 -0.28,0.7 -0.15,0.35 -0.16,0.34 c -2.28,4.8 -6.38,5.6 -8.47,5.6 -2.98,0 -6.63,-1.3 -8.67,-5.94 -1.6,-3.44 -1.85,-7.33 -1.85,-11.31 0,-3.74 0.21,-8.22 2.25,-12 2.14,-4.04 5.79,-5.04 8.22,-5.04 v 1.1 c -1.93,0 -4.89,1.25 -5.78,6.03 -0.55,2.98 -0.55,7.56 -0.55,10.52 0,3.18 0,6.46 0.41,9.15 0.94,5.94 4.67,6.38 5.92,6.38 1.64,0 4.94,-0.89 5.88,-5.83 0.5,-2.78 0.5,-6.58 0.5,-9.7 0,-3.75 0,-7.13 -0.55,-10.32 -0.75,-4.73 -3.59,-6.23 -5.83,-6.23 h 0 v -1.1 c 2.69,0 6.47,1.05 8.67,5.79 1.6,3.43 1.85,7.31 1.85,11.25 z"
             inkscape:connector-curvature="0"
             style="fill:#000000;stroke-width:0" /><polygon
             id="polygon4212"
             points="773.22,304.76 773.22,301.87 786.42,301.87 786.42,304.76 "
             style="fill:#000000;stroke-width:0" /><path
             id="path4214"
             d="m 803.87,324.45 0,0.05 0,0.06 0,0.05 0,0.05 0,0.05 0,0.05 0,0.04 0,0.05 0,0.04 0,0.04 0,0.04 -0.01,0.04 0,0.04 0,0.03 0,0.04 -0.01,0.03 0,0.07 -0.01,0.06 -0.02,0.05 -0.01,0.05 -0.02,0.05 -0.01,0.04 -0.03,0.04 -0.02,0.03 -0.03,0.03 -0.03,0.03 -0.04,0.03 -0.04,0.02 -0.04,0.02 -0.03,0.01 -0.02,0 -0.03,0.01 -0.02,0.01 -0.03,0 -0.03,0.01 -0.03,0.01 -0.03,0 -0.04,0 -0.03,0.01 -0.04,0 -0.03,0 -0.04,0.01 -0.04,0 -0.05,0 -0.04,0 -0.04,0 -0.05,0 -0.05,0.01 -0.05,0 -0.05,0 -0.05,0 c -3.09,-3.19 -7.47,-3.19 -9.06,-3.19 v -1.55 c 1,0 3.93,0 6.51,1.3 V 296.5 c 0,-1.8 -0.14,-2.39 -4.62,-2.39 h -1.59 v -1.55 c 1.75,0.15 6.07,0.15 8.06,0.15 2,0 6.32,0 8.07,-0.15 v 1.55 h -1.59 c -4.48,0 -4.64,0.54 -4.64,2.39 z"
             inkscape:connector-curvature="0"
             style="fill:#000000;stroke-width:0" /><polygon
             id="polygon4216"
             points="874.49,304.76 874.49,301.87 887.7,301.87 887.7,304.76 "
             style="fill:#000000;stroke-width:0" /><path
             id="path4218"
             d="m 905.15,324.45 0,0.05 -0.01,0.06 0,0.05 0,0.05 0,0.05 0,0.05 0,0.04 0,0.05 0,0.04 0,0.04 0,0.04 0,0.04 0,0.04 -0.01,0.03 0,0.04 0,0.03 -0.01,0.07 -0.01,0.06 -0.01,0.05 -0.02,0.05 -0.01,0.05 -0.02,0.04 -0.02,0.04 -0.03,0.03 -0.03,0.03 -0.03,0.03 -0.03,0.03 -0.04,0.02 -0.05,0.02 -0.02,0.01 -0.03,0 -0.02,0.01 -0.03,0.01 -0.03,0 -0.03,0.01 -0.03,0.01 -0.03,0 -0.03,0 -0.04,0.01 -0.03,0 -0.04,0 -0.04,0.01 -0.04,0 -0.04,0 -0.04,0 -0.05,0 -0.05,0 -0.04,0.01 -0.05,0 -0.05,0 -0.06,0 c -3.09,-3.19 -7.47,-3.19 -9.06,-3.19 v -1.55 c 1,0 3.94,0 6.52,1.3 V 296.5 c 0,-1.8 -0.14,-2.39 -4.63,-2.39 h -1.59 v -1.55 c 1.75,0.15 6.08,0.15 8.06,0.15 2,0 6.33,0 8.08,-0.15 v 1.55 h -1.6 c -4.48,0 -4.63,0.54 -4.63,2.39 z"
             inkscape:connector-curvature="0"
             style="fill:#000000;stroke-width:0" /><polygon
             id="polygon4220"
             points="975.77,304.76 975.77,301.87 988.97,301.87 988.97,304.76 "
             style="fill:#000000;stroke-width:0" /><path
             id="path4222"
             d="m 1006.4,324.45 0,0.05 0,0.06 0,0.05 0,0.05 0,0.05 0,0.05 0,0.04 0,0.05 0,0.04 0,0.04 0,0.04 0,0.04 0,0.04 0,0.03 0,0.04 0,0.03 0,0.07 0,0.06 0,0.05 0,0.05 -0.1,0.05 0,0.04 0,0.04 0,0.03 -0.1,0.03 0,0.03 0,0.03 -0.1,0.02 0,0.02 0,0.01 -0.1,0 0,0.01 0,0.01 0,0 -0.1,0.01 0,0.01 0,0 -0.1,0 0,0.01 0,0 -0.1,0 0,0.01 0,0 -0.1,0 0,0 -0.1,0 0,0 -0.1,0.01 0,0 -0.1,0 0,0 c -3.1,-3.19 -7.49,-3.19 -9.08,-3.19 v -1.55 c 1,0 3.98,0 6.48,1.3 V 296.5 c 0,-1.8 -0.1,-2.39 -4.59,-2.39 h -1.59 v -1.55 c 1.75,0.15 6.08,0.15 8.08,0.15 2,0 6.3,0 8.1,-0.15 v 1.55 h -1.6 c -4.5,0 -4.7,0.54 -4.7,2.39 z"
             inkscape:connector-curvature="0"
             style="fill:#000000;stroke-width:0" /><path
             id="path4224"
             d="m 1107.8,308.5 0,0.74 0,0.75 0,0.75 0,0.74 -0.1,0.75 -0.1,0.74 0,0.74 -0.1,0.73 -0.1,0.73 -0.2,0.73 -0.1,0.72 -0.2,0.72 -0.2,0.71 -0.3,0.71 -0.3,0.7 -0.1,0.35 -0.2,0.34 c -2.3,4.8 -6.4,5.6 -8.5,5.6 -2.9,0 -6.6,-1.3 -8.6,-5.94 -1.6,-3.44 -1.9,-7.33 -1.9,-11.31 0,-3.74 0.2,-8.22 2.3,-12 2.1,-4.04 5.8,-5.04 8.2,-5.04 v 1.1 c -1.9,0 -4.9,1.25 -5.8,6.03 -0.5,2.98 -0.5,7.56 -0.5,10.52 0,3.18 0,6.46 0.4,9.15 0.9,5.94 4.7,6.38 5.9,6.38 1.6,0 4.9,-0.89 5.9,-5.83 0.5,-2.78 0.5,-6.58 0.5,-9.7 0,-3.75 0,-7.13 -0.6,-10.32 -0.7,-4.73 -3.6,-6.23 -5.8,-6.23 h 0 v -1.1 c 2.7,0 6.5,1.05 8.7,5.79 1.6,3.43 1.8,7.31 1.8,11.25 z"
             inkscape:connector-curvature="0"
             style="fill:#000000;stroke-width:0" /><path
             id="path4226"
             d="m 1209.1,308.5 0,0.74 0,0.75 0,0.75 -0.1,0.74 0,0.75 -0.1,0.74 0,0.74 -0.1,0.73 -0.2,0.73 -0.1,0.73 -0.2,0.72 -0.1,0.72 -0.3,0.71 -0.2,0.71 -0.3,0.7 -0.1,0.35 -0.2,0.34 c -2.3,4.8 -6.4,5.6 -8.5,5.6 -3,0 -6.6,-1.3 -8.6,-5.94 -1.6,-3.44 -1.9,-7.33 -1.9,-11.31 0,-3.74 0.2,-8.22 2.3,-12 2.1,-4.04 5.7,-5.04 8.2,-5.04 v 1.1 c -2,0 -4.9,1.25 -5.8,6.03 -0.6,2.98 -0.6,7.56 -0.6,10.52 0,3.18 0,6.46 0.5,9.15 0.9,5.94 4.6,6.38 5.9,6.38 1.6,0 4.9,-0.89 5.9,-5.83 0.5,-2.78 0.5,-6.58 0.5,-9.7 0,-3.75 0,-7.13 -0.6,-10.32 -0.7,-4.73 -3.6,-6.23 -5.8,-6.23 h 0 v -1.1 c 2.7,0 6.5,1.05 8.6,5.79 1.6,3.43 1.9,7.31 1.9,11.25 z"
             inkscape:connector-curvature="0"
             style="fill:#000000;stroke-width:0" /><path
             id="path4228"
             d="m 1310.4,308.5 0,0.74 0,0.75 -0.1,0.75 0,0.74 0,0.75 -0.1,0.74 -0.1,0.74 -0.1,0.73 -0.1,0.73 -0.1,0.73 -0.2,0.72 -0.2,0.72 -0.2,0.71 -0.2,0.71 -0.3,0.7 -0.2,0.35 -0.1,0.34 c -2.3,4.8 -6.4,5.6 -8.5,5.6 -3,0 -6.6,-1.3 -8.7,-5.94 -1.6,-3.44 -1.8,-7.33 -1.8,-11.31 0,-3.74 0.2,-8.22 2.2,-12 2.2,-4.04 5.8,-5.04 8.3,-5.04 v 1.1 c -2,0 -4.9,1.25 -5.8,6.03 -0.6,2.98 -0.6,7.56 -0.6,10.52 0,3.18 0,6.46 0.4,9.15 1,5.94 4.7,6.38 6,6.38 1.6,0 4.9,-0.89 5.8,-5.83 0.5,-2.78 0.5,-6.58 0.5,-9.7 0,-3.75 0,-7.13 -0.5,-10.32 -0.8,-4.73 -3.6,-6.23 -5.8,-6.23 h 0 v -1.1 c 2.7,0 6.4,1.05 8.6,5.79 1.6,3.43 1.9,7.31 1.9,11.25 z"
             inkscape:connector-curvature="0"
             style="fill:#000000;stroke-width:0" /><path
             id="path4230"
             d="m 1411.7,308.5 -0.1,0.74 0,0.75 0,0.75 0,0.74 -0.1,0.75 0,0.74 -0.1,0.74 -0.1,0.73 -0.1,0.73 -0.1,0.73 -0.2,0.72 -0.2,0.72 -0.2,0.71 -0.3,0.71 -0.2,0.7 -0.2,0.35 -0.1,0.34 c -2.3,4.8 -6.4,5.6 -8.5,5.6 -3,0 -6.6,-1.3 -8.7,-5.94 -1.6,-3.44 -1.8,-7.33 -1.8,-11.31 0,-3.74 0.2,-8.22 2.2,-12 2.2,-4.04 5.8,-5.04 8.2,-5.04 v 1.1 c -1.9,0 -4.9,1.25 -5.7,6.03 -0.6,2.98 -0.6,7.56 -0.6,10.52 0,3.18 0,6.46 0.4,9.15 1,5.94 4.7,6.38 5.9,6.38 1.7,0 5,-0.89 5.9,-5.83 0.5,-2.78 0.5,-6.58 0.5,-9.7 0,-3.75 0,-7.13 -0.5,-10.32 -0.8,-4.73 -3.6,-6.23 -5.9,-6.23 h 0 v -1.1 c 2.7,0 6.5,1.05 8.7,5.79 1.6,3.43 1.9,7.31 1.9,11.25 z"
             inkscape:connector-curvature="0"
             style="fill:#000000;stroke-width:0" /><path
             id="path4232"
             d="m 499.85,250.33 0.38,0.13 0.37,0.15 0.37,0.16 0.35,0.16 0.35,0.18 0.34,0.19 0.33,0.21 0.32,0.21 0.31,0.22 0.31,0.23 0.29,0.24 0.28,0.25 0.27,0.26 0.26,0.27 0.25,0.28 0.24,0.28 0.22,0.29 0.21,0.3 0.2,0.31 0.19,0.31 0.17,0.32 0.17,0.32 0.14,0.33 0.13,0.34 0.12,0.34 0.11,0.35 0.08,0.35 0.08,0.35 0.06,0.36 0.04,0.36 0.02,0.37 0.01,0.36 c 0,4.08 -4.39,6.88 -9.17,6.88 -5.03,0 -8.81,-3 -8.81,-6.78 0,-1.64 1.09,-2.6 2.54,-2.6 1.53,0 2.53,1.1 2.53,2.55 0,2.48 -2.34,2.48 -3.07,2.48 1.53,2.44 4.82,3.1 6.62,3.1 2.03,0 4.78,-1.1 4.78,-5.58 0,-0.61 -0.11,-3.48 -1.4,-5.69 -1.49,-2.39 -3.19,-2.53 -4.43,-2.59 -0.4,-0.05 -1.59,-0.14 -1.95,-0.14 -0.39,-0.05 -0.75,-0.09 -0.75,-0.59 0,-0.55 0.36,-0.55 1.2,-0.55 h 2.19 c 4.1,0 5.94,-3.39 5.94,-8.28 0,-6.77 -3.44,-8.22 -5.64,-8.22 -2.14,0 -5.88,0.84 -7.61,3.78 1.73,-0.23 3.28,0.86 3.28,2.75 0,1.8 -1.34,2.78 -2.8,2.78 -1.18,0 -2.78,-0.69 -2.78,-2.89 0,-4.53 4.63,-7.81 10.06,-7.81 6.08,0 10.61,4.53 10.61,9.61 0,4.09 -3.14,7.97 -8.31,9.01 z"
             inkscape:connector-curvature="0"
             style="fill:#000000;stroke-width:0" /><polyline
             id="polyline4234"
             points="539,215 541.04,215 541.04,274.88 539,274.88 "
             style="fill:#000000;fill-rule:nonzero;stroke-width:0" /><path
             id="path4236"
             d="m 601.32,248.74 0,0.75 -0.01,0.74 -0.02,0.75 -0.04,0.74 -0.04,0.75 -0.06,0.74 -0.08,0.74 -0.09,0.73 -0.12,0.74 -0.14,0.72 -0.16,0.73 -0.19,0.71 -0.22,0.72 -0.24,0.7 -0.28,0.7 -0.15,0.35 -0.16,0.34 c -2.28,4.8 -6.37,5.6 -8.47,5.6 -2.98,0 -6.62,-1.3 -8.67,-5.94 -1.59,-3.44 -1.84,-7.33 -1.84,-11.31 0,-3.74 0.2,-8.22 2.25,-12 2.14,-4.03 5.78,-5.03 8.21,-5.03 v 1.09 c -1.93,0 -4.89,1.25 -5.78,6.03 -0.54,2.99 -0.54,7.57 -0.54,10.52 0,3.19 0,6.47 0.4,9.15 0.94,5.94 4.67,6.38 5.92,6.38 1.65,0 4.94,-0.89 5.88,-5.83 0.5,-2.78 0.5,-6.58 0.5,-9.7 0,-3.75 0,-7.13 -0.55,-10.31 -0.75,-4.74 -3.59,-6.24 -5.83,-6.24 h 0 v -1.09 c 2.69,0 6.47,1.04 8.68,5.78 1.59,3.44 1.84,7.31 1.84,11.25 z"
             inkscape:connector-curvature="0"
             style="fill:#000000;stroke-width:0" /><path
             id="path4238"
             d="m 694.32,264.69 0,0.06 0,0.05 0,0.05 0,0.05 0,0.05 0,0.05 -0.01,0.04 0,0.05 0,0.04 0,0.04 0,0.04 0,0.04 0,0.04 -0.01,0.04 0,0.03 0,0.03 -0.01,0.07 -0.01,0.06 -0.01,0.05 -0.01,0.05 -0.02,0.05 -0.02,0.04 -0.02,0.04 -0.03,0.04 -0.02,0.03 -0.04,0.02 -0.03,0.03 -0.04,0.02 -0.05,0.02 -0.02,0.01 -0.02,0.01 -0.03,0 -0.03,0.01 -0.03,0.01 -0.02,0 -0.04,0.01 -0.03,0 -0.03,0.01 -0.04,0 -0.03,0 -0.04,0.01 -0.04,0 -0.04,0 -0.04,0 -0.04,0 -0.05,0.01 -0.04,0 -0.05,0 -0.05,0 -0.05,0 -0.05,0 c -3.1,-3.19 -7.47,-3.19 -9.07,-3.19 v -1.55 c 1,0 3.94,0 6.52,1.3 v -25.81 c 0,-1.8 -0.14,-2.39 -4.63,-2.39 h -1.59 v -1.55 c 1.75,0.16 6.08,0.16 8.06,0.16 2,0 6.33,0 8.08,-0.16 v 1.55 h -1.59 c -4.49,0 -4.64,0.55 -4.64,2.39 z"
             inkscape:connector-curvature="0"
             style="fill:#000000;stroke-width:0" /><path
             id="path4240"
             d="m 795.59,264.69 0,0.06 0,0.05 0,0.05 0,0.05 0,0.05 0,0.05 0,0.04 0,0.05 0,0.04 0,0.04 -0.01,0.04 0,0.04 0,0.04 0,0.04 0,0.03 -0.01,0.03 -0.01,0.07 0,0.06 -0.02,0.05 -0.01,0.05 -0.02,0.05 -0.02,0.04 -0.02,0.04 -0.02,0.04 -0.03,0.03 -0.03,0.02 -0.04,0.03 -0.04,0.02 -0.04,0.02 -0.03,0.01 -0.02,0.01 -0.03,0 -0.02,0.01 -0.03,0.01 -0.03,0 -0.03,0.01 -0.03,0 -0.04,0.01 -0.03,0 -0.04,0 -0.04,0.01 -0.03,0 -0.04,0 -0.05,0 -0.04,0 -0.04,0.01 -0.05,0 -0.05,0 -0.05,0 -0.05,0 -0.05,0 c -3.1,-3.19 -7.47,-3.19 -9.06,-3.19 v -1.55 c 1,0 3.93,0 6.51,1.3 v -25.81 c 0,-1.8 -0.14,-2.39 -4.62,-2.39 h -1.6 v -1.55 c 1.75,0.16 6.08,0.16 8.07,0.16 2,0 6.32,0 8.07,-0.16 v 1.55 h -1.59 c -4.48,0 -4.64,0.55 -4.64,2.39 z"
             inkscape:connector-curvature="0"
             style="fill:#000000;stroke-width:0" /><path
             id="path4242"
             d="m 905.15,248.74 -0.01,0.75 -0.01,0.74 -0.02,0.75 -0.03,0.74 -0.04,0.75 -0.06,0.74 -0.08,0.74 -0.1,0.73 -0.11,0.74 -0.14,0.72 -0.16,0.73 -0.19,0.71 -0.22,0.72 -0.24,0.7 -0.28,0.7 -0.15,0.35 -0.16,0.34 c -2.28,4.8 -6.38,5.6 -8.47,5.6 -2.98,0 -6.63,-1.3 -8.67,-5.94 -1.6,-3.44 -1.85,-7.33 -1.85,-11.31 0,-3.74 0.21,-8.22 2.25,-12 2.14,-4.03 5.79,-5.03 8.22,-5.03 v 1.09 c -1.93,0 -4.89,1.25 -5.78,6.03 -0.55,2.99 -0.55,7.57 -0.55,10.52 0,3.19 0,6.47 0.41,9.15 0.94,5.94 4.67,6.38 5.92,6.38 1.64,0 4.94,-0.89 5.88,-5.83 0.5,-2.78 0.5,-6.58 0.5,-9.7 0,-3.75 0,-7.13 -0.55,-10.31 -0.75,-4.74 -3.59,-6.24 -5.83,-6.24 h 0 v -1.09 c 2.69,0 6.47,1.04 8.67,5.78 1.6,3.44 1.85,7.31 1.85,11.25 z"
             inkscape:connector-curvature="0"
             style="fill:#000000;stroke-width:0" /><path
             id="path4244"
             d="m 1006.5,248.74 0,0.75 0,0.74 0,0.75 0,0.74 -0.1,0.75 0,0.74 -0.1,0.74 -0.1,0.73 -0.1,0.74 -0.1,0.72 -0.2,0.73 -0.2,0.71 -0.2,0.72 -0.3,0.7 -0.2,0.7 -0.2,0.35 -0.2,0.34 c -2.2,4.8 -6.33,5.6 -8.42,5.6 -2.99,0 -6.63,-1.3 -8.67,-5.94 -1.6,-3.44 -1.85,-7.33 -1.85,-11.31 0,-3.74 0.21,-8.22 2.25,-12 2.14,-4.03 5.78,-5.03 8.22,-5.03 v 1.09 c -1.94,0 -4.89,1.25 -5.78,6.03 -0.55,2.99 -0.55,7.57 -0.55,10.52 0,3.19 0,6.47 0.41,9.15 0.94,5.94 4.67,6.38 5.92,6.38 1.64,0 4.97,-0.89 5.87,-5.83 0.5,-2.78 0.5,-6.58 0.5,-9.7 0,-3.75 0,-7.13 -0.5,-10.31 -0.8,-4.74 -3.63,-6.24 -5.87,-6.24 h 0 v -1.09 c 2.69,0 6.47,1.04 8.67,5.78 1.6,3.44 1.8,7.31 1.8,11.25 z"
             inkscape:connector-curvature="0"
             style="fill:#000000;stroke-width:0" /><polygon
             id="polygon4246"
             points="1077.1,245 1077.1,242.11 1090.2,242.11 1090.2,245 "
             style="fill:#000000;stroke-width:0" /><path
             id="path4248"
             d="m 1107.7,264.69 0,0.06 0,0.05 0,0.05 0,0.05 0,0.05 0,0.05 0,0.04 0,0.05 0,0.04 0,0.04 0,0.04 0,0.04 0,0.04 0,0.04 0,0.03 0,0.03 0,0.07 0,0.06 0,0.05 -0.1,0.05 0,0.05 0,0.04 0,0.04 0,0.04 -0.1,0.03 0,0.02 0,0.03 -0.1,0.02 0,0.02 0,0.01 -0.1,0.01 0,0 0,0.01 -0.1,0.01 0,0 0,0.01 0,0 -0.1,0.01 0,0 0,0 -0.1,0.01 0,0 -0.1,0 0,0 0,0 -0.1,0.01 0,0 -0.1,0 0,0 -0.1,0 0,0 c -3.1,-3.19 -7.5,-3.19 -9.1,-3.19 v -1.55 c 1,0 3.9,0 6.5,1.3 v -25.81 c 0,-1.8 -0.1,-2.39 -4.6,-2.39 h -1.6 v -1.55 c 1.8,0.16 6.1,0.16 8.1,0.16 2,0 6.3,0 8,-0.16 v 1.55 h -1.6 c -4.4,0 -4.6,0.55 -4.6,2.39 z"
             inkscape:connector-curvature="0"
             style="fill:#000000;stroke-width:0" /><path
             id="path4250"
             d="m 1209.1,248.74 0,0.75 0,0.74 0,0.75 -0.1,0.74 0,0.75 -0.1,0.74 0,0.74 -0.1,0.73 -0.2,0.74 -0.1,0.72 -0.2,0.73 -0.1,0.71 -0.3,0.72 -0.2,0.7 -0.3,0.7 -0.1,0.35 -0.2,0.34 c -2.3,4.8 -6.4,5.6 -8.5,5.6 -2.9,0 -6.6,-1.3 -8.6,-5.94 -1.6,-3.44 -1.9,-7.33 -1.9,-11.31 0,-3.74 0.2,-8.22 2.3,-12 2.1,-4.03 5.8,-5.03 8.2,-5.03 v 1.09 c -1.9,0 -4.9,1.25 -5.8,6.03 -0.5,2.99 -0.5,7.57 -0.5,10.52 0,3.19 0,6.47 0.4,9.15 0.9,5.94 4.6,6.38 5.9,6.38 1.6,0 4.9,-0.89 5.9,-5.83 0.5,-2.78 0.5,-6.58 0.5,-9.7 0,-3.75 0,-7.13 -0.6,-10.31 -0.7,-4.74 -3.6,-6.24 -5.8,-6.24 h 0 v -1.09 c 2.7,0 6.5,1.04 8.7,5.78 1.5,3.44 1.8,7.31 1.8,11.25 z"
             inkscape:connector-curvature="0"
             style="fill:#000000;stroke-width:0" /><path
             id="path4252"
             d="m 1310.4,248.74 0,0.75 0,0.74 -0.1,0.75 0,0.74 0,0.75 -0.1,0.74 -0.1,0.74 -0.1,0.73 -0.1,0.74 -0.1,0.72 -0.2,0.73 -0.2,0.71 -0.2,0.72 -0.2,0.7 -0.3,0.7 -0.2,0.35 -0.1,0.34 c -2.3,4.8 -6.4,5.6 -8.5,5.6 -3,0 -6.6,-1.3 -8.7,-5.94 -1.6,-3.44 -1.8,-7.33 -1.8,-11.31 0,-3.74 0.2,-8.22 2.2,-12 2.2,-4.03 5.8,-5.03 8.3,-5.03 v 1.09 c -2,0 -4.9,1.25 -5.8,6.03 -0.6,2.99 -0.6,7.57 -0.6,10.52 0,3.19 0,6.47 0.4,9.15 1,5.94 4.7,6.38 6,6.38 1.6,0 4.9,-0.89 5.8,-5.83 0.5,-2.78 0.5,-6.58 0.5,-9.7 0,-3.75 0,-7.13 -0.5,-10.31 -0.8,-4.74 -3.6,-6.24 -5.8,-6.24 h 0 v -1.09 c 2.7,0 6.4,1.04 8.6,5.78 1.6,3.44 1.9,7.31 1.9,11.25 z"
             inkscape:connector-curvature="0"
             style="fill:#000000;stroke-width:0" /><path
             id="path4254"
             d="m 1411.7,248.74 -0.1,0.75 0,0.74 0,0.75 0,0.74 -0.1,0.75 0,0.74 -0.1,0.74 -0.1,0.73 -0.1,0.74 -0.1,0.72 -0.2,0.73 -0.2,0.71 -0.2,0.72 -0.3,0.7 -0.2,0.7 -0.2,0.35 -0.1,0.34 c -2.3,4.8 -6.4,5.6 -8.5,5.6 -3,0 -6.6,-1.3 -8.7,-5.94 -1.6,-3.44 -1.8,-7.33 -1.8,-11.31 0,-3.74 0.2,-8.22 2.2,-12 2.2,-4.03 5.8,-5.03 8.2,-5.03 v 1.09 c -1.9,0 -4.9,1.25 -5.7,6.03 -0.6,2.99 -0.6,7.57 -0.6,10.52 0,3.19 0,6.47 0.4,9.15 1,5.94 4.7,6.38 5.9,6.38 1.7,0 5,-0.89 5.9,-5.83 0.5,-2.78 0.5,-6.58 0.5,-9.7 0,-3.75 0,-7.13 -0.5,-10.31 -0.8,-4.74 -3.6,-6.24 -5.9,-6.24 h 0 v -1.09 c 2.7,0 6.5,1.04 8.7,5.78 1.6,3.44 1.9,7.31 1.9,11.25 z"
             inkscape:connector-curvature="0"
             style="fill:#000000;stroke-width:0" /><path
             id="path4256"
             d="m 500.04,181.26 v -4.33 c 0,-1.8 -0.09,-2.34 -3.78,-2.34 h -1.05 v -1.55 c 2.05,0.16 4.64,0.16 6.74,0.16 2.09,0 4.73,0 6.76,-0.16 v 1.55 h -1.05 c -3.68,0 -3.78,0.54 -3.78,2.34 v 4.33 h 4.99 v 1.54 h -4.99 v 22.68 c 0,1 0,1.29 -0.79,1.29 -0.46,0 -0.6,0 -1,-0.61 l -15.3,-23.36 h 1.41 l 12.15,18.58 V 182.8 h -12.15 -1.41 v -1.54 z"
             inkscape:connector-curvature="0"
             style="fill:#000000;stroke-width:0" /><polyline
             id="polyline4258"
             points="539,155 541.04,155 541.04,214.88 539,214.88 "
             style="fill:#000000;fill-rule:nonzero;stroke-width:0" /><path
             id="path4260"
             d="m 601.32,188.98 0,0.74 -0.01,0.75 -0.02,0.75 -0.04,0.74 -0.04,0.75 -0.06,0.74 -0.08,0.74 -0.09,0.73 -0.12,0.73 -0.14,0.73 -0.16,0.72 -0.19,0.72 -0.22,0.72 -0.24,0.7 -0.28,0.7 -0.15,0.35 -0.16,0.34 c -2.28,4.8 -6.37,5.6 -8.47,5.6 -2.98,0 -6.62,-1.3 -8.67,-5.94 -1.59,-3.44 -1.84,-7.33 -1.84,-11.31 0,-3.74 0.2,-8.22 2.25,-12 2.14,-4.03 5.78,-5.03 8.21,-5.03 v 1.09 c -1.93,0 -4.89,1.25 -5.78,6.03 -0.54,2.98 -0.54,7.56 -0.54,10.52 0,3.18 0,6.46 0.4,9.15 0.94,5.94 4.67,6.38 5.92,6.38 1.65,0 4.94,-0.89 5.88,-5.83 0.5,-2.78 0.5,-6.58 0.5,-9.7 0,-3.75 0,-7.13 -0.55,-10.32 -0.75,-4.73 -3.59,-6.23 -5.83,-6.23 h 0 v -1.09 c 2.69,0 6.47,1.04 8.68,5.78 1.59,3.43 1.84,7.31 1.84,11.25 z"
             inkscape:connector-curvature="0"
             style="fill:#000000;stroke-width:0" /><path
             id="path4262"
             d="m 702.6,188.98 -0.01,0.74 -0.01,0.75 -0.02,0.75 -0.03,0.74 -0.04,0.75 -0.06,0.74 -0.08,0.74 -0.1,0.73 -0.11,0.73 -0.14,0.73 -0.16,0.72 -0.19,0.72 -0.22,0.72 -0.24,0.7 -0.28,0.7 -0.15,0.35 -0.16,0.34 c -2.28,4.8 -6.38,5.6 -8.47,5.6 -2.98,0 -6.63,-1.3 -8.67,-5.94 -1.6,-3.44 -1.85,-7.33 -1.85,-11.31 0,-3.74 0.21,-8.22 2.25,-12 2.14,-4.03 5.79,-5.03 8.22,-5.03 v 1.09 c -1.93,0 -4.89,1.25 -5.78,6.03 -0.55,2.98 -0.55,7.56 -0.55,10.52 0,3.18 0,6.46 0.41,9.15 0.94,5.94 4.67,6.38 5.92,6.38 1.64,0 4.94,-0.89 5.88,-5.83 0.5,-2.78 0.5,-6.58 0.5,-9.7 0,-3.75 0,-7.13 -0.55,-10.32 -0.75,-4.73 -3.59,-6.23 -5.83,-6.23 h 0 v -1.09 c 2.69,0 6.47,1.04 8.67,5.78 1.6,3.43 1.85,7.31 1.85,11.25 z"
             inkscape:connector-curvature="0"
             style="fill:#000000;stroke-width:0" /><path
             id="path4264"
             d="m 803.87,188.98 0,0.74 -0.01,0.75 -0.02,0.75 -0.04,0.74 -0.04,0.75 -0.06,0.74 -0.08,0.74 -0.09,0.73 -0.12,0.73 -0.14,0.73 -0.16,0.72 -0.19,0.72 -0.21,0.72 -0.25,0.7 -0.28,0.7 -0.15,0.35 -0.16,0.34 c -2.28,4.8 -6.37,5.6 -8.47,5.6 -2.98,0 -6.62,-1.3 -8.67,-5.94 -1.59,-3.44 -1.84,-7.33 -1.84,-11.31 0,-3.74 0.2,-8.22 2.25,-12 2.14,-4.03 5.78,-5.03 8.21,-5.03 v 1.09 c -1.93,0 -4.88,1.25 -5.78,6.03 -0.54,2.98 -0.54,7.56 -0.54,10.52 0,3.18 0,6.46 0.4,9.15 0.94,5.94 4.67,6.38 5.92,6.38 1.65,0 4.94,-0.89 5.88,-5.83 0.5,-2.78 0.5,-6.58 0.5,-9.7 0,-3.75 0,-7.13 -0.55,-10.32 -0.75,-4.73 -3.59,-6.23 -5.83,-6.23 h 0 v -1.09 c 2.69,0 6.47,1.04 8.68,5.78 1.59,3.43 1.84,7.31 1.84,11.25 z"
             inkscape:connector-curvature="0"
             style="fill:#000000;stroke-width:0" /><path
             id="path4266"
             d="m 896.87,204.93 0,0.05 0,0.06 0,0.05 0,0.05 0,0.05 0,0.05 0,0.04 -0.01,0.05 0,0.04 0,0.04 0,0.04 0,0.04 0,0.04 0,0.03 -0.01,0.04 0,0.03 -0.01,0.07 -0.01,0.06 -0.01,0.05 -0.01,0.05 -0.02,0.05 -0.02,0.04 -0.02,0.04 -0.03,0.03 -0.02,0.03 -0.04,0.03 -0.03,0.03 -0.04,0.02 -0.05,0.02 -0.02,0.01 -0.02,0.01 -0.03,0 -0.03,0.01 -0.02,0.01 -0.03,0 -0.03,0.01 -0.04,0 -0.03,0.01 -0.03,0 -0.04,0 -0.04,0.01 -0.04,0 -0.04,0 -0.04,0 -0.04,0 -0.05,0 -0.04,0.01 -0.05,0 -0.05,0 -0.05,0 -0.05,0 c -3.1,-3.19 -7.47,-3.19 -9.07,-3.19 v -1.55 c 1,0 3.94,0 6.52,1.3 v -25.81 c 0,-1.8 -0.14,-2.39 -4.63,-2.39 h -1.59 v -1.55 c 1.75,0.16 6.08,0.16 8.06,0.16 2,0 6.33,0 8.08,-0.16 v 1.55 h -1.59 c -4.49,0 -4.64,0.54 -4.64,2.39 z"
             inkscape:connector-curvature="0"
             style="fill:#000000;stroke-width:0" /><path
             id="path4268"
             d="m 1006.5,188.98 0,0.74 0,0.75 0,0.75 0,0.74 -0.1,0.75 0,0.74 -0.1,0.74 -0.1,0.73 -0.1,0.73 -0.1,0.73 -0.2,0.72 -0.2,0.72 -0.2,0.72 -0.3,0.7 -0.2,0.7 -0.2,0.35 -0.2,0.34 c -2.2,4.8 -6.33,5.6 -8.42,5.6 -2.99,0 -6.63,-1.3 -8.67,-5.94 -1.6,-3.44 -1.85,-7.33 -1.85,-11.31 0,-3.74 0.21,-8.22 2.25,-12 2.14,-4.03 5.78,-5.03 8.22,-5.03 v 1.09 c -1.94,0 -4.89,1.25 -5.78,6.03 -0.55,2.98 -0.55,7.56 -0.55,10.52 0,3.18 0,6.46 0.41,9.15 0.94,5.94 4.67,6.38 5.92,6.38 1.64,0 4.97,-0.89 5.87,-5.83 0.5,-2.78 0.5,-6.58 0.5,-9.7 0,-3.75 0,-7.13 -0.5,-10.32 -0.8,-4.73 -3.63,-6.23 -5.87,-6.23 h 0 v -1.09 c 2.69,0 6.47,1.04 8.67,5.78 1.6,3.43 1.8,7.31 1.8,11.25 z"
             inkscape:connector-curvature="0"
             style="fill:#000000;stroke-width:0" /><path
             id="path4270"
             d="m 1107.8,188.98 0,0.74 0,0.75 0,0.75 0,0.74 -0.1,0.75 -0.1,0.74 0,0.74 -0.1,0.73 -0.1,0.73 -0.2,0.73 -0.1,0.72 -0.2,0.72 -0.2,0.72 -0.3,0.7 -0.3,0.7 -0.1,0.35 -0.2,0.34 c -2.3,4.8 -6.4,5.6 -8.4,5.6 -3,0 -6.7,-1.3 -8.7,-5.94 -1.6,-3.44 -1.9,-7.33 -1.9,-11.31 0,-3.74 0.2,-8.22 2.3,-12 2.1,-4.03 5.8,-5.03 8.2,-5.03 v 1.09 c -1.9,0 -4.9,1.25 -5.8,6.03 -0.5,2.98 -0.5,7.56 -0.5,10.52 0,3.18 0,6.46 0.4,9.15 0.9,5.94 4.7,6.38 5.9,6.38 1.6,0 4.9,-0.89 5.9,-5.83 0.5,-2.78 0.5,-6.58 0.5,-9.7 0,-3.75 0,-7.13 -0.6,-10.32 -0.7,-4.73 -3.6,-6.23 -5.8,-6.23 h 0 v -1.09 c 2.7,0 6.5,1.04 8.7,5.78 1.6,3.43 1.8,7.31 1.8,11.25 z"
             inkscape:connector-curvature="0"
             style="fill:#000000;stroke-width:0" /><path
             id="path4272"
             d="m 1200.8,204.93 0,0.05 0,0.06 0,0.05 0,0.05 0,0.05 0,0.05 0,0.04 0,0.05 0,0.04 0,0.04 0,0.04 0,0.04 0,0.04 0,0.03 0,0.04 0,0.03 0,0.07 0,0.06 0,0.05 0,0.05 -0.1,0.05 0,0.04 0,0.04 0,0.03 -0.1,0.03 0,0.03 0,0.03 -0.1,0.02 0,0.02 0,0.01 -0.1,0.01 0,0 0,0.01 0,0.01 -0.1,0 0,0.01 0,0 -0.1,0.01 0,0 0,0 -0.1,0.01 0,0 0,0 -0.1,0 0,0 -0.1,0 0,0.01 -0.1,0 0,0 -0.1,0 0,0 c -3.1,-3.19 -7.5,-3.19 -9.1,-3.19 v -1.55 c 1,0 4,0 6.5,1.3 v -25.81 c 0,-1.8 -0.1,-2.39 -4.6,-2.39 h -1.6 v -1.55 c 1.8,0.16 6.1,0.16 8.1,0.16 2,0 6.3,0 8.1,-0.16 v 1.55 h -1.6 c -4.5,0 -4.7,0.54 -4.7,2.39 z"
             inkscape:connector-curvature="0"
             style="fill:#000000;stroke-width:0" /><polygon
             id="polygon4274"
             points="1279.7,185.24 1279.7,182.35 1292.9,182.35 1292.9,185.24 "
             style="fill:#000000;stroke-width:0" /><path
             id="path4276"
             d="m 1310.4,204.93 0,0.05 0,0.06 0,0.05 0,0.05 0,0.05 0,0.05 0,0.04 0,0.05 0,0.04 0,0.04 0,0.04 0,0.04 0,0.04 0,0.03 0,0.04 0,0.03 0,0.07 -0.1,0.06 0,0.05 0,0.05 0,0.05 0,0.04 0,0.04 -0.1,0.03 0,0.03 0,0.03 -0.1,0.03 0,0.02 0,0.02 -0.1,0.01 0,0.01 0,0 0,0.01 -0.1,0.01 0,0 0,0.01 -0.1,0 0,0.01 0,0 -0.1,0 0,0.01 0,0 -0.1,0 0,0 -0.1,0 0,0 -0.1,0.01 0,0 -0.1,0 0,0 -0.1,0 c -3.1,-3.19 -7.4,-3.19 -9,-3.19 v -1.55 c 1,0 3.9,0 6.5,1.3 v -25.81 c 0,-1.8 -0.1,-2.39 -4.6,-2.39 h -1.6 v -1.55 c 1.7,0.16 6.1,0.16 8,0.16 2,0 6.4,0 8.1,-0.16 v 1.55 h -1.6 c -4.5,0 -4.6,0.54 -4.6,2.39 z"
             inkscape:connector-curvature="0"
             style="fill:#000000;stroke-width:0" /><path
             id="path4278"
             d="m 1411.7,188.98 -0.1,0.74 0,0.75 0,0.75 0,0.74 -0.1,0.75 0,0.74 -0.1,0.74 -0.1,0.73 -0.1,0.73 -0.1,0.73 -0.2,0.72 -0.2,0.72 -0.2,0.72 -0.3,0.7 -0.2,0.7 -0.2,0.35 -0.1,0.34 c -2.3,4.8 -6.4,5.6 -8.5,5.6 -3,0 -6.6,-1.3 -8.7,-5.94 -1.6,-3.44 -1.8,-7.33 -1.8,-11.31 0,-3.74 0.2,-8.22 2.2,-12 2.2,-4.03 5.8,-5.03 8.2,-5.03 v 1.09 c -1.9,0 -4.9,1.25 -5.7,6.03 -0.6,2.98 -0.6,7.56 -0.6,10.52 0,3.18 0,6.46 0.4,9.15 1,5.94 4.7,6.38 5.9,6.38 1.7,0 5,-0.89 5.9,-5.83 0.5,-2.78 0.5,-6.58 0.5,-9.7 0,-3.75 0,-7.13 -0.5,-10.32 -0.8,-4.73 -3.6,-6.23 -5.9,-6.23 h 0 v -1.09 c 2.7,0 6.5,1.04 8.7,5.78 1.6,3.43 1.9,7.31 1.9,11.25 z"
             inkscape:connector-curvature="0"
             style="fill:#000000;stroke-width:0" /><path
             id="path4280"
             d="m 507.77,123.3 -0.01,0.55 -0.03,0.55 -0.06,0.53 -0.08,0.54 -0.11,0.52 -0.12,0.51 -0.15,0.51 -0.16,0.49 -0.19,0.48 -0.2,0.47 -0.22,0.46 -0.25,0.44 -0.26,0.43 -0.27,0.41 -0.3,0.4 -0.31,0.38 -0.32,0.36 -0.34,0.35 -0.36,0.33 -0.37,0.3 -0.38,0.29 -0.4,0.27 -0.41,0.24 -0.42,0.22 -0.43,0.2 -0.45,0.17 -0.45,0.15 -0.46,0.13 -0.48,0.09 -0.48,0.08 -0.49,0.04 -0.51,0.01 c -2.39,0 -4.53,-0.79 -6.32,-2.53 v 9.71 c 1,-0.3 2.64,-0.65 4.23,-0.65 6.13,0 9.61,4.54 9.61,5.19 0,0.3 -0.14,0.55 -0.5,0.55 -0.05,0 -0.14,0 -0.39,-0.16 -1,-0.45 -3.44,-1.43 -6.78,-1.43 -1.99,0 -4.28,0.34 -6.63,1.39 -0.39,0.14 -0.5,0.14 -0.59,0.14 -0.5,0 -0.5,-0.39 -0.5,-1.19 v -14.75 c 0,-0.89 0,-1.3 0.7,-1.3 0.35,0 0.44,0.16 0.64,0.45 0.55,0.8 2.39,3.49 6.43,3.49 2.59,0 3.84,-2.3 4.23,-3.19 0.81,-1.84 0.91,-3.78 0.91,-6.28 0,-1.73 0,-4.73 -1.21,-6.83 -1.18,-1.93 -3.03,-3.23 -5.33,-3.23 -3.64,0 -6.46,2.64 -7.32,5.58 0.15,-0.05 0.31,-0.1 0.86,-0.1 1.64,0 2.48,1.25 2.48,2.44 0,1.2 -0.84,2.44 -2.48,2.44 -0.71,0 -2.46,-0.35 -2.46,-2.64 0,-4.28 3.44,-9.11 9.03,-9.11 5.77,0 10.86,4.78 10.86,11.11 z"
             inkscape:connector-curvature="0"
             style="fill:#000000;stroke-width:0" /><polyline
             id="polyline4282"
             points="539,95 541.04,95 541.04,154.88 539,154.88 "
             style="fill:#000000;fill-rule:nonzero;stroke-width:0" /><path
             id="path4284"
             d="m 601.32,129.22 0,0.75 -0.01,0.74 -0.02,0.75 -0.04,0.74 -0.04,0.75 -0.06,0.74 -0.08,0.74 -0.09,0.73 -0.12,0.74 -0.14,0.72 -0.16,0.73 -0.19,0.71 -0.22,0.72 -0.24,0.7 -0.28,0.7 -0.15,0.35 -0.16,0.35 c -2.28,4.79 -6.37,5.59 -8.47,5.59 -2.98,0 -6.62,-1.3 -8.67,-5.94 -1.59,-3.44 -1.84,-7.33 -1.84,-11.31 0,-3.74 0.2,-8.22 2.25,-12 2.14,-4.03 5.78,-5.03 8.21,-5.03 v 1.09 c -1.93,0 -4.89,1.25 -5.78,6.03 -0.54,2.99 -0.54,7.57 -0.54,10.52 0,3.19 0,6.47 0.4,9.15 0.94,5.94 4.67,6.38 5.92,6.38 1.65,0 4.94,-0.89 5.88,-5.83 0.5,-2.78 0.5,-6.58 0.5,-9.7 0,-3.75 0,-7.13 -0.55,-10.31 -0.75,-4.74 -3.59,-6.24 -5.83,-6.24 h 0 v -1.09 c 2.69,0 6.47,1.04 8.68,5.78 1.59,3.44 1.84,7.31 1.84,11.25 z"
             inkscape:connector-curvature="0"
             style="fill:#000000;stroke-width:0" /><path
             id="path4286"
             d="m 702.6,129.22 -0.01,0.75 -0.01,0.74 -0.02,0.75 -0.03,0.74 -0.04,0.75 -0.06,0.74 -0.08,0.74 -0.1,0.73 -0.11,0.74 -0.14,0.72 -0.16,0.73 -0.19,0.71 -0.22,0.72 -0.24,0.7 -0.28,0.7 -0.15,0.35 -0.16,0.35 c -2.28,4.79 -6.38,5.59 -8.47,5.59 -2.98,0 -6.63,-1.3 -8.67,-5.94 -1.6,-3.44 -1.85,-7.33 -1.85,-11.31 0,-3.74 0.21,-8.22 2.25,-12 2.14,-4.03 5.79,-5.03 8.22,-5.03 v 1.09 c -1.93,0 -4.89,1.25 -5.78,6.03 -0.55,2.99 -0.55,7.57 -0.55,10.52 0,3.19 0,6.47 0.41,9.15 0.94,5.94 4.67,6.38 5.92,6.38 1.64,0 4.94,-0.89 5.88,-5.83 0.5,-2.78 0.5,-6.58 0.5,-9.7 0,-3.75 0,-7.13 -0.55,-10.31 -0.75,-4.74 -3.59,-6.24 -5.83,-6.24 h 0 v -1.09 c 2.69,0 6.47,1.04 8.67,5.78 1.6,3.44 1.85,7.31 1.85,11.25 z"
             inkscape:connector-curvature="0"
             style="fill:#000000;stroke-width:0" /><path
             id="path4288"
             d="m 803.87,129.22 0,0.75 -0.01,0.74 -0.02,0.75 -0.04,0.74 -0.04,0.75 -0.06,0.74 -0.08,0.74 -0.09,0.73 -0.12,0.74 -0.14,0.72 -0.16,0.73 -0.19,0.71 -0.21,0.72 -0.25,0.7 -0.28,0.7 -0.15,0.35 -0.16,0.35 c -2.28,4.79 -6.37,5.59 -8.47,5.59 -2.98,0 -6.62,-1.3 -8.67,-5.94 -1.59,-3.44 -1.84,-7.33 -1.84,-11.31 0,-3.74 0.2,-8.22 2.25,-12 2.14,-4.03 5.78,-5.03 8.21,-5.03 v 1.09 c -1.93,0 -4.88,1.25 -5.78,6.03 -0.54,2.99 -0.54,7.57 -0.54,10.52 0,3.19 0,6.47 0.4,9.15 0.94,5.94 4.67,6.38 5.92,6.38 1.65,0 4.94,-0.89 5.88,-5.83 0.5,-2.78 0.5,-6.58 0.5,-9.7 0,-3.75 0,-7.13 -0.55,-10.31 -0.75,-4.74 -3.59,-6.24 -5.83,-6.24 h 0 v -1.09 c 2.69,0 6.47,1.04 8.68,5.78 1.59,3.44 1.84,7.31 1.84,11.25 z"
             inkscape:connector-curvature="0"
             style="fill:#000000;stroke-width:0" /><path
             id="path4290"
             d="m 905.15,129.22 -0.01,0.75 -0.01,0.74 -0.02,0.75 -0.03,0.74 -0.04,0.75 -0.06,0.74 -0.08,0.74 -0.1,0.73 -0.11,0.74 -0.14,0.72 -0.16,0.73 -0.19,0.71 -0.22,0.72 -0.24,0.7 -0.28,0.7 -0.15,0.35 -0.16,0.35 c -2.28,4.79 -6.38,5.59 -8.47,5.59 -2.98,0 -6.63,-1.3 -8.67,-5.94 -1.6,-3.44 -1.85,-7.33 -1.85,-11.31 0,-3.74 0.21,-8.22 2.25,-12 2.14,-4.03 5.79,-5.03 8.22,-5.03 v 1.09 c -1.93,0 -4.89,1.25 -5.78,6.03 -0.55,2.99 -0.55,7.57 -0.55,10.52 0,3.19 0,6.47 0.41,9.15 0.94,5.94 4.67,6.38 5.92,6.38 1.64,0 4.94,-0.89 5.88,-5.83 0.5,-2.78 0.5,-6.58 0.5,-9.7 0,-3.75 0,-7.13 -0.55,-10.31 -0.75,-4.74 -3.59,-6.24 -5.83,-6.24 h 0 v -1.09 c 2.69,0 6.47,1.04 8.67,5.78 1.6,3.44 1.85,7.31 1.85,11.25 z"
             inkscape:connector-curvature="0"
             style="fill:#000000;stroke-width:0" /><path
             id="path4292"
             d="m 998.27,145.17 0,0.06 0,0.05 0,0.05 0,0.05 0,0.05 0,0.05 -0.01,0.04 0,0.05 0,0.04 0,0.04 0,0.04 0,0.04 0,0.04 -0.01,0.04 0,0.03 0,0.04 -0.01,0.06 -0.01,0.06 -0.01,0.05 -0.01,0.05 -0.02,0.05 -0.02,0.04 -0.02,0.04 -0.03,0.04 -0.03,0.03 -0.03,0.02 -0.03,0.03 -0.04,0.02 -0.05,0.02 -0.02,0.01 -0.02,0.01 -0.03,0 -0.03,0.01 -0.03,0.01 -0.03,0 -0.03,0.01 -0.03,0 -0.03,0.01 -0.04,0 -0.03,0 -0.04,0.01 -0.04,0 -0.04,0 -0.04,0 -0.04,0.01 -0.05,0 -0.04,0 -0.05,0 -0.05,0 -0.05,0 -0.06,0 c -3.09,-3.19 -7.46,-3.19 -9.06,-3.19 v -1.55 c 1,0 3.94,0 6.52,1.3 v -25.81 c 0,-1.8 -0.14,-2.39 -4.63,-2.39 h -1.59 v -1.55 c 1.75,0.16 6.08,0.16 8.06,0.16 2,0 6.38,0 8.08,-0.16 v 1.55 h -1.6 c -4.48,0 -4.63,0.55 -4.63,2.39 z"
             inkscape:connector-curvature="0"
             style="fill:#000000;stroke-width:0" /><path
             id="path4294"
             d="m 1099.5,145.17 0,0.06 0,0.05 0,0.05 0,0.05 0,0.05 0,0.05 0,0.04 0,0.05 0,0.04 0,0.04 0,0.04 0,0.04 0,0.04 0,0.04 0,0.03 0,0.04 0,0.06 0,0.06 0,0.05 0,0.05 0,0.05 -0.1,0.04 0,0.04 0,0.04 0,0.03 -0.1,0.02 0,0.03 0,0.02 -0.1,0.02 0,0.01 0,0.01 -0.1,0 0,0.01 0,0.01 0,0 -0.1,0.01 0,0 0,0.01 -0.1,0 0,0 0,0.01 -0.1,0 0,0 -0.1,0 0,0.01 -0.1,0 0,0 0,0 -0.1,0 0,0 -0.1,0 c -3.1,-3.19 -7.5,-3.19 -9.1,-3.19 v -1.55 c 1,0 4,0 6.6,1.3 v -25.81 c 0,-1.8 -0.2,-2.39 -4.7,-2.39 h -1.6 v -1.55 c 1.8,0.16 6.1,0.16 8.1,0.16 2,0 6.3,0 8.1,-0.16 v 1.55 h -1.6 c -4.5,0 -4.7,0.55 -4.7,2.39 z"
             inkscape:connector-curvature="0"
             style="fill:#000000;stroke-width:0" /><polygon
             id="polygon4296"
             points="1178.3,125.48 1178.3,122.59 1191.5,122.59 1191.5,125.48 "
             style="fill:#000000;stroke-width:0" /><path
             id="path4298"
             d="m 1209,145.17 0,0.06 0,0.05 0,0.05 0,0.05 0,0.05 0,0.05 0,0.04 0,0.05 0,0.04 0,0.04 0,0.04 0,0.04 0,0.04 0,0.04 0,0.03 0,0.04 0,0.06 -0.1,0.06 0,0.05 0,0.05 0,0.05 0,0.04 0,0.04 -0.1,0.04 0,0.03 0,0.02 -0.1,0.03 0,0.02 0,0.02 -0.1,0.01 0,0.01 0,0 0,0.01 -0.1,0.01 0,0 0,0.01 -0.1,0 0,0.01 0,0 -0.1,0 0,0.01 0,0 -0.1,0 0,0 -0.1,0.01 0,0 -0.1,0 0,0 -0.1,0 0,0 -0.1,0 c -3.1,-3.19 -7.4,-3.19 -9,-3.19 v -1.55 c 1,0 3.9,0 6.5,1.3 v -25.81 c 0,-1.8 -0.1,-2.39 -4.6,-2.39 h -1.6 v -1.55 c 1.7,0.16 6.1,0.16 8,0.16 2,0 6.4,0 8.1,-0.16 v 1.55 h -1.6 c -4.5,0 -4.6,0.55 -4.6,2.39 z"
             inkscape:connector-curvature="0"
             style="fill:#000000;stroke-width:0" /><path
             id="path4300"
             d="m 1310.4,129.22 0,0.75 0,0.74 -0.1,0.75 0,0.74 0,0.75 -0.1,0.74 -0.1,0.74 -0.1,0.73 -0.1,0.74 -0.1,0.72 -0.2,0.73 -0.2,0.71 -0.2,0.72 -0.2,0.7 -0.3,0.7 -0.2,0.35 -0.1,0.35 c -2.3,4.79 -6.4,5.59 -8.5,5.59 -3,0 -6.6,-1.3 -8.7,-5.94 -1.6,-3.44 -1.8,-7.33 -1.8,-11.31 0,-3.74 0.2,-8.22 2.2,-12 2.2,-4.03 5.8,-5.03 8.3,-5.03 v 1.09 c -2,0 -4.9,1.25 -5.8,6.03 -0.6,2.99 -0.6,7.57 -0.6,10.52 0,3.19 0,6.47 0.4,9.15 1,5.94 4.7,6.38 6,6.38 1.6,0 4.9,-0.89 5.8,-5.83 0.5,-2.78 0.5,-6.58 0.5,-9.7 0,-3.75 0,-7.13 -0.5,-10.31 -0.8,-4.74 -3.6,-6.24 -5.8,-6.24 h 0 v -1.09 c 2.7,0 6.4,1.04 8.6,5.78 1.6,3.44 1.9,7.31 1.9,11.25 z"
             inkscape:connector-curvature="0"
             style="fill:#000000;stroke-width:0" /><polygon
             id="polygon4302"
             points="1381,125.48 1381,122.59 1394.2,122.59 1394.2,125.48 "
             style="fill:#000000;stroke-width:0" /><path
             id="path4304"
             d="m 1411.7,145.17 0,0.06 -0.1,0.05 0,0.05 0,0.05 0,0.05 0,0.05 0,0.04 0,0.05 0,0.04 0,0.04 0,0.04 0,0.04 0,0.04 0,0.04 0,0.03 0,0.04 0,0.06 0,0.06 0,0.05 0,0.05 0,0.05 0,0.04 -0.1,0.04 0,0.04 0,0.03 -0.1,0.02 0,0.03 0,0.02 -0.1,0.02 0,0.01 0,0.01 0,0 -0.1,0.01 0,0.01 0,0 -0.1,0.01 0,0 0,0.01 -0.1,0 0,0 0,0.01 -0.1,0 0,0 -0.1,0 0,0.01 0,0 -0.1,0 0,0 -0.1,0 0,0 -0.1,0 c -3.1,-3.19 -7.5,-3.19 -9.1,-3.19 v -1.55 c 1,0 4,0 6.6,1.3 v -25.81 c 0,-1.8 -0.2,-2.39 -4.7,-2.39 h -1.5 v -1.55 c 1.7,0.16 6,0.16 8,0.16 2,0 6.3,0 8.1,-0.16 v 1.55 h -1.6 c -4.5,0 -4.6,0.55 -4.6,2.39 z"
             inkscape:connector-curvature="0"
             style="fill:#000000;stroke-width:0" /><path
             id="path4306"
             d="m 491.98,69.863 v 1.188 c 0,12.609 6.17,14.406 8.72,14.406 1.18,0 3.28,-0.297 4.37,-2 -0.73,0 -2.73,0 -2.73,-2.234 0,-1.547 1.2,-2.297 2.29,-2.297 0.8,0 2.28,0.453 2.28,2.39 0,3 -2.18,5.391 -6.31,5.391 -6.39,0 -13.11,-6.437 -13.11,-17.437 0,-13.313 5.78,-16.844 10.41,-16.844 5.53,0 10.26,4.687 10.26,11.25 0,6.328 -4.43,11.125 -9.96,11.125 l -0.05,-1.156 c 0.8,0 3.09,0 4.64,-3.094 0.89,-1.828 0.89,-4.375 0.89,-6.813 0,-2.39 0,-4.89 -0.84,-6.687 -1.5,-2.985 -3.79,-3.235 -4.94,-3.235 h 0 c -3.14,0 -4.63,2.985 -4.92,3.735 -0.91,2.344 -0.91,6.328 -0.91,7.234 0,3.875 1.59,8.86 6.08,8.86 l 0.05,1.156 c -3.38,0 -5.22,-2.547 -6.22,-4.938 z"
             inkscape:connector-curvature="0"
             style="fill:#000000;stroke-width:0" /><polyline
             id="polyline4308"
             points="539,36 541.04,36 541.04,95.879 539,95.879 "
             style="fill:#000000;fill-rule:nonzero;stroke-width:0" /><path
             id="path4310"
             d="m 601.32,69.457 0,0.747 -0.01,0.747 -0.02,0.747 -0.04,0.745 -0.04,0.743 -0.06,0.742 -0.08,0.739 -0.09,0.735 -0.12,0.732 -0.14,0.728 -0.16,0.723 -0.19,0.718 -0.22,0.713 -0.24,0.706 -0.28,0.699 -0.15,0.347 -0.16,0.345 c -2.28,4.797 -6.37,5.594 -8.47,5.594 -2.98,0 -6.62,-1.297 -8.67,-5.937 -1.59,-3.438 -1.84,-7.329 -1.84,-11.313 0,-3.734 0.2,-8.219 2.25,-12 2.14,-4.031 5.78,-5.031 8.21,-5.031 v 1.094 c -1.93,0 -4.89,1.25 -5.78,6.031 -0.54,2.984 -0.54,7.562 -0.54,10.515 0,3.188 0,6.469 0.4,9.157 0.94,5.937 4.67,6.375 5.92,6.375 1.65,0 4.94,-0.891 5.88,-5.828 0.5,-2.782 0.5,-6.579 0.5,-9.704 0,-3.75 0,-7.125 -0.55,-10.312 -0.75,-4.734 -3.59,-6.234 -5.83,-6.234 h 0 v -1.094 c 2.69,0 6.47,1.047 8.68,5.781 1.59,3.438 1.84,7.313 1.84,11.25 z"
             inkscape:connector-curvature="0"
             style="fill:#000000;stroke-width:0" /><path
             id="path4312"
             d="m 702.6,69.457 -0.01,0.747 -0.01,0.747 -0.02,0.747 -0.03,0.745 -0.04,0.743 -0.06,0.742 -0.08,0.739 -0.1,0.735 -0.11,0.732 -0.14,0.728 -0.16,0.723 -0.19,0.718 -0.22,0.713 -0.24,0.706 -0.28,0.699 -0.15,0.347 -0.16,0.345 c -2.28,4.797 -6.38,5.594 -8.47,5.594 -2.98,0 -6.63,-1.297 -8.67,-5.937 -1.6,-3.438 -1.85,-7.329 -1.85,-11.313 0,-3.734 0.21,-8.219 2.25,-12 2.14,-4.031 5.79,-5.031 8.22,-5.031 v 1.094 c -1.93,0 -4.89,1.25 -5.78,6.031 -0.55,2.984 -0.55,7.562 -0.55,10.515 0,3.188 0,6.469 0.41,9.157 0.94,5.937 4.67,6.375 5.92,6.375 1.64,0 4.94,-0.891 5.88,-5.828 0.5,-2.782 0.5,-6.579 0.5,-9.704 0,-3.75 0,-7.125 -0.55,-10.312 -0.75,-4.734 -3.59,-6.234 -5.83,-6.234 h 0 v -1.094 c 2.69,0 6.47,1.047 8.67,5.781 1.6,3.438 1.85,7.313 1.85,11.25 z"
             inkscape:connector-curvature="0"
             style="fill:#000000;stroke-width:0" /><path
             id="path4314"
             d="m 803.87,69.457 0,0.747 -0.01,0.747 -0.02,0.747 -0.04,0.745 -0.04,0.743 -0.06,0.742 -0.08,0.739 -0.09,0.735 -0.12,0.732 -0.14,0.728 -0.16,0.723 -0.19,0.718 -0.21,0.713 -0.25,0.706 -0.28,0.699 -0.15,0.347 -0.16,0.345 c -2.28,4.797 -6.37,5.594 -8.47,5.594 -2.98,0 -6.62,-1.297 -8.67,-5.937 -1.59,-3.438 -1.84,-7.329 -1.84,-11.313 0,-3.734 0.2,-8.219 2.25,-12 2.14,-4.031 5.78,-5.031 8.21,-5.031 v 1.094 c -1.93,0 -4.88,1.25 -5.78,6.031 -0.54,2.984 -0.54,7.562 -0.54,10.515 0,3.188 0,6.469 0.4,9.157 0.94,5.937 4.67,6.375 5.92,6.375 1.65,0 4.94,-0.891 5.88,-5.828 0.5,-2.782 0.5,-6.579 0.5,-9.704 0,-3.75 0,-7.125 -0.55,-10.312 -0.75,-4.734 -3.59,-6.234 -5.83,-6.234 h 0 v -1.094 c 2.69,0 6.47,1.047 8.68,5.781 1.59,3.438 1.84,7.313 1.84,11.25 z"
             inkscape:connector-curvature="0"
             style="fill:#000000;stroke-width:0" /><path
             id="path4316"
             d="m 905.15,69.457 -0.01,0.747 -0.01,0.747 -0.02,0.747 -0.03,0.745 -0.04,0.743 -0.06,0.742 -0.08,0.739 -0.1,0.735 -0.11,0.732 -0.14,0.728 -0.16,0.723 -0.19,0.718 -0.22,0.713 -0.24,0.706 -0.28,0.699 -0.15,0.347 -0.16,0.345 c -2.28,4.797 -6.38,5.594 -8.47,5.594 -2.98,0 -6.63,-1.297 -8.67,-5.937 -1.6,-3.438 -1.85,-7.329 -1.85,-11.313 0,-3.734 0.21,-8.219 2.25,-12 2.14,-4.031 5.79,-5.031 8.22,-5.031 v 1.094 c -1.93,0 -4.89,1.25 -5.78,6.031 -0.55,2.984 -0.55,7.562 -0.55,10.515 0,3.188 0,6.469 0.41,9.157 0.94,5.937 4.67,6.375 5.92,6.375 1.64,0 4.94,-0.891 5.88,-5.828 0.5,-2.782 0.5,-6.579 0.5,-9.704 0,-3.75 0,-7.125 -0.55,-10.312 -0.75,-4.734 -3.59,-6.234 -5.83,-6.234 h 0 v -1.094 c 2.69,0 6.47,1.047 8.67,5.781 1.6,3.438 1.85,7.313 1.85,11.25 z"
             inkscape:connector-curvature="0"
             style="fill:#000000;stroke-width:0" /><path
             id="path4318"
             d="m 1006.5,69.457 0,0.747 0,0.747 0,0.747 0,0.745 -0.1,0.743 0,0.742 -0.1,0.739 -0.1,0.735 -0.1,0.732 -0.1,0.728 -0.2,0.723 -0.2,0.718 -0.2,0.713 -0.3,0.706 -0.2,0.699 -0.2,0.347 -0.2,0.345 c -2.2,4.797 -6.33,5.594 -8.42,5.594 -2.99,0 -6.63,-1.297 -8.67,-5.937 -1.6,-3.438 -1.85,-7.329 -1.85,-11.313 0,-3.734 0.21,-8.219 2.25,-12 2.14,-4.031 5.78,-5.031 8.22,-5.031 v 1.094 c -1.94,0 -4.89,1.25 -5.78,6.031 -0.55,2.984 -0.55,7.562 -0.55,10.515 0,3.188 0,6.469 0.41,9.157 0.94,5.937 4.67,6.375 5.92,6.375 1.64,0 4.97,-0.891 5.87,-5.828 0.5,-2.782 0.5,-6.579 0.5,-9.704 0,-3.75 0,-7.125 -0.5,-10.312 -0.8,-4.734 -3.63,-6.234 -5.87,-6.234 h 0 v -1.094 c 2.69,0 6.47,1.047 8.67,5.781 1.6,3.438 1.8,7.313 1.8,11.25 z"
             inkscape:connector-curvature="0"
             style="fill:#000000;stroke-width:0" /><path
             id="path4320"
             d="m 1107.8,69.457 0,0.747 0,0.747 0,0.747 0,0.745 -0.1,0.743 -0.1,0.742 0,0.739 -0.1,0.735 -0.1,0.732 -0.2,0.728 -0.1,0.723 -0.2,0.718 -0.2,0.713 -0.3,0.706 -0.3,0.699 -0.1,0.347 -0.2,0.345 c -2.3,4.797 -6.4,5.594 -8.4,5.594 -3,0 -6.7,-1.297 -8.7,-5.937 -1.6,-3.438 -1.9,-7.329 -1.9,-11.313 0,-3.734 0.2,-8.219 2.3,-12 2.1,-4.031 5.8,-5.031 8.2,-5.031 v 1.094 c -1.9,0 -4.9,1.25 -5.8,6.031 -0.5,2.984 -0.5,7.562 -0.5,10.515 0,3.188 0,6.469 0.4,9.157 0.9,5.937 4.7,6.375 5.9,6.375 1.6,0 4.9,-0.891 5.9,-5.828 0.5,-2.782 0.5,-6.579 0.5,-9.704 0,-3.75 0,-7.125 -0.6,-10.312 -0.7,-4.734 -3.6,-6.234 -5.8,-6.234 h 0 v -1.094 c 2.7,0 6.5,1.047 8.7,5.781 1.6,3.438 1.8,7.313 1.8,11.25 z"
             inkscape:connector-curvature="0"
             style="fill:#000000;stroke-width:0" /><path
             id="path4322"
             d="m 1209.1,69.457 0,0.747 0,0.747 0,0.747 -0.1,0.745 0,0.743 -0.1,0.742 0,0.739 -0.1,0.735 -0.2,0.732 -0.1,0.728 -0.2,0.723 -0.1,0.718 -0.3,0.713 -0.2,0.706 -0.3,0.699 -0.1,0.347 -0.2,0.345 c -2.3,4.797 -6.4,5.594 -8.5,5.594 -2.9,0 -6.6,-1.297 -8.6,-5.937 -1.6,-3.438 -1.9,-7.329 -1.9,-11.313 0,-3.734 0.2,-8.219 2.3,-12 2.1,-4.031 5.8,-5.031 8.2,-5.031 v 1.094 c -1.9,0 -4.9,1.25 -5.8,6.031 -0.5,2.984 -0.5,7.562 -0.5,10.515 0,3.188 0,6.469 0.4,9.157 0.9,5.937 4.6,6.375 5.9,6.375 1.6,0 4.9,-0.891 5.9,-5.828 0.5,-2.782 0.5,-6.579 0.5,-9.704 0,-3.75 0,-7.125 -0.6,-10.312 -0.7,-4.734 -3.6,-6.234 -5.8,-6.234 h 0 v -1.094 c 2.7,0 6.5,1.047 8.7,5.781 1.5,3.438 1.8,7.313 1.8,11.25 z"
             inkscape:connector-curvature="0"
             style="fill:#000000;stroke-width:0" /><path
             id="path4324"
             d="m 1302.1,85.41 0,0.055 0,0.053 0,0.052 0,0.05 0,0.049 0,0.048 0,0.045 0,0.045 0,0.043 0,0.042 0,0.04 0,0.039 0,0.037 0,0.037 0,0.035 0,0.034 0,0.064 0,0.059 0,0.055 -0.1,0.05 0,0.047 0,0.042 0,0.038 0,0.035 -0.1,0.031 0,0.028 0,0.025 -0.1,0.022 0,0.019 0,0.008 -0.1,0.008 0,0.008 0,0.007 -0.1,0.006 0,0.005 0,0.006 0,0.004 -0.1,0.004 0,0.004 0,0.003 -0.1,0.003 0,0.003 -0.1,0.002 0,0.002 0,0.001 -0.1,0.002 0,0 -0.1,0.001 0,10e-4 -0.1,0 0,0 c -3.1,-3.187 -7.5,-3.187 -9.1,-3.187 v -1.547 c 1,0 3.9,0 6.5,1.297 V 57.457 c 0,-1.797 -0.1,-2.391 -4.6,-2.391 h -1.6 V 53.52 c 1.7,0.156 6.1,0.156 8,0.156 2,0 6.4,0 8.1,-0.156 v 1.546 h -1.6 c -4.5,0 -4.6,0.547 -4.6,2.391 z"
             inkscape:connector-curvature="0"
             style="fill:#000000;stroke-width:0" /><path
             id="path4326"
             d="m 1403.4,85.41 0,0.055 0,0.053 0,0.052 0,0.05 0,0.049 0,0.048 0,0.045 0,0.045 0,0.043 0,0.042 0,0.04 0,0.039 0,0.037 0,0.037 0,0.035 0,0.034 0,0.064 -0.1,0.059 0,0.055 0,0.05 0,0.047 0,0.042 0,0.038 -0.1,0.035 0,0.031 0,0.028 -0.1,0.025 0,0.022 0,0.019 -0.1,0.008 0,0.008 0,0.008 0,0.007 -0.1,0.006 0,0.005 0,0.006 -0.1,0.004 0,0.004 0,0.004 -0.1,0.003 0,0.003 0,0.003 -0.1,0.002 0,0.002 -0.1,0.001 0,0.002 -0.1,0 0,0.001 -0.1,10e-4 0,0 -0.1,0 c -3.1,-3.187 -7.4,-3.187 -9,-3.187 v -1.547 c 1,0 3.9,0 6.5,1.297 V 57.457 c 0,-1.797 -0.1,-2.391 -4.6,-2.391 h -1.6 V 53.52 c 1.7,0.156 6.1,0.156 8,0.156 2,0 6.4,0 8.1,-0.156 v 1.546 h -1.6 c -4.5,0 -4.6,0.547 -4.6,2.391 z"
             inkscape:connector-curvature="0"
             style="fill:#000000;stroke-width:0" /></g></g></g>  </g>
</svg>
