<?xml version="1.0" encoding="UTF-8" standalone="no"?>
<svg
   xmlns:dc="http://purl.org/dc/elements/1.1/"
   xmlns:cc="http://creativecommons.org/ns#"
   xmlns:rdf="http://www.w3.org/1999/02/22-rdf-syntax-ns#"
   xmlns:svg="http://www.w3.org/2000/svg"
   xmlns="http://www.w3.org/2000/svg"
   xmlns:sodipodi="http://sodipodi.sourceforge.net/DTD/sodipodi-0.dtd"
   xmlns:inkscape="http://www.inkscape.org/namespaces/inkscape"
   sodipodi:docname="1_2b.eps"
   inkscape:version="0.48.4 r9939"
   id="svg2"
   version="1.1"
   height="163.65916"
   width="60.619545">
  <sodipodi:namedview
     pagecolor="#ffffff"
     bordercolor="#666666"
     borderopacity="1"
     objecttolerance="10"
     gridtolerance="10"
     guidetolerance="10"
     inkscape:pageopacity="0"
     inkscape:pageshadow="2"
     inkscape:window-width="1301"
     inkscape:window-height="744"
     id="namedview218"
     showgrid="true"
     inkscape:zoom="2.0629787"
     inkscape:cx="11.513582"
     inkscape:cy="44.906596"
     inkscape:window-x="65"
     inkscape:window-y="24"
     inkscape:window-maximized="1"
     inkscape:current-layer="g3311"
     inkscape:snap-grids="true"
     showguides="true"
     inkscape:guide-bbox="true"
     fit-margin-top="0"
     fit-margin-left="0"
     fit-margin-right="0"
     fit-margin-bottom="0" />
  <metadata
     id="metadata220">
    <rdf:RDF>
      <cc:Work
         rdf:about="">
        <dc:format>image/svg+xml</dc:format>
        <dc:type
           rdf:resource="http://purl.org/dc/dcmitype/StillImage" />
        <dc:title></dc:title>
      </cc:Work>
    </rdf:RDF>
  </metadata>
  <defs
     id="defs4" />
  <g
     id="g27438"
     transform="matrix(1.3802385,0,0,1.3802385,-91.119484,-123.2716)">
    <g
       word-spacing="normal"
       letter-spacing="normal"
       font-size-adjust="none"
       font-stretch="normal"
       font-weight="normal"
       font-variant="normal"
       font-style="normal"
       stroke-miterlimit="10.433"
       xml:space="preserve"
       transform="matrix(0.23428571,0,0,-0.23428571,-41,204.75)"
       id="content"
       style="font-style:normal;font-variant:normal;font-weight:normal;font-stretch:normal;letter-spacing:normal;word-spacing:normal;text-anchor:start;fill:none;stroke:#000000;stroke-linecap:butt;stroke-linejoin:miter;stroke-miterlimit:10.43299961;stroke-opacity:1;stroke-dasharray:none;stroke-dashoffset:0"><g
         id="g3309"
         transform="matrix(4.1019762,0,0,4.1019762,156.30734,-419.62364)"><g
           word-spacing="normal"
           letter-spacing="normal"
           font-size-adjust="none"
           font-stretch="normal"
           font-weight="normal"
           font-variant="normal"
           font-style="normal"
           stroke-miterlimit="10.433"
           xml:space="preserve"
           transform="matrix(0.23428571,0,0,-0.23428571,-41,204.75)"
           id="g3311"
           style="font-style:normal;font-variant:normal;font-weight:normal;font-stretch:normal;letter-spacing:normal;word-spacing:normal;text-anchor:start;fill:none;stroke:#000000;stroke-linecap:butt;stroke-linejoin:miter;stroke-miterlimit:10.43299961;stroke-opacity:1;stroke-dasharray:none;stroke-dashoffset:0"><path
             id="path3313"
             d="m 510.2451,-72.044171 0,0 0,-0.0086 0,-0.0086 0,-0.0086 0,-0.0086 0,-0.0086 0,-0.02019 0,-0.02019 -0.01,-0.02019 0,-0.02019 -0.01,-0.02019 0,-0.02019 -0.01,-0.03 -0.01,-0.02019 -0.01,-0.02019 -0.01,-0.03 -0.019,-0.02019 -0.01,-0.03 -0.019,-0.02019 -0.019,-0.03 -0.019,-0.02019 -0.019,-0.0086 -0.01,-0.0086 -0.01,-0.0086 -0.019,-0.0086 -0.01,-0.0086 -0.019,-0.0086 -0.01,-0.0086 -0.019,-0.0086 -0.019,-0.0086 -0.01,-0.0086 -0.019,-0.0086 -0.019,0 -0.019,-0.0086 -0.019,-0.0086 -0.019,0 -0.0285,-0.0086 -0.019,0 -0.0285,-0.0086 -0.019,0 -0.0285,0 -0.019,-0.0086 -0.0285,0 -0.0285,0 -0.0285,0 c -0.71259,0 -5.20656,0.448721 -6.01414,0.548447 -0.38004,0.03981 -0.66508,0.289166 -0.66508,0.947318 0,0.588343 0.42755,0.588343 1.14013,0.588343 2.27074,0 2.36575,0.348995 2.36575,0.847594 l -0.13302,0.997196 -2.85029,11.776714 c -0.8456,-1.83481 -2.23275,-3.181001 -4.35148,-3.181001 l 0.0475,1.096892 c 3.06883,0 3.7339,4.068491 3.7339,4.357686 0,0.309128 -0.0855,0.608276 -0.13301,0.857575 l -2.37526,9.742453 c -0.23751,0.88749 -0.23751,0.977263 -0.95009,1.834838 -2.08072,2.73228 -4.01893,3.520044 -5.33958,3.520044 -2.36574,0 -3.0308,-2.722299 -3.0308,-4.676796 0,-2.472999 1.51066,-8.575749 2.59377,-10.869289 1.47265,-2.931702 3.61038,-4.766511 5.50107,-4.766511 l -0.0475,-1.096892 c -5.53908,0 -11.40119,7.299368 -11.40119,14.558841 0,4.666814 2.59378,7.94754 6.28966,7.94754 0.9406,0 3.31585,-0.209432 6.14715,-3.729448 0.38955,2.094061 2.03322,3.729448 4.30395,3.729448 1.66267,0 2.7458,-1.136789 3.50588,-2.73228 0.79808,-1.794913 1.42514,-4.826368 1.42514,-4.926065 0,-0.498599 -0.42754,-0.498599 -0.56057,-0.498599 -0.47504,0 -0.52254,0.209433 -0.67456,0.907424 -0.79808,3.220897 -1.66266,6.152627 -3.59137,6.152627 -1.27314,0 -1.42516,-1.286362 -1.42516,-2.283559 0,-1.186637 0.095,-1.545614 0.28503,-2.393237 z"
             inkscape:connector-curvature="0"
             style="fill:#000000;stroke-width:0" /><path
             id="path3315"
             d="m 533.9786,-26.193738 0,-0.02019 0,-0.03 0,-0.0086 0,-0.02019 -0.01,-0.0086 0,-0.02019 -0.01,-0.02019 0,-0.0086 -0.01,-0.02019 -0.01,-0.02019 -0.01,-0.03 -0.019,-0.02019 -0.01,-0.02019 -0.019,-0.03001 -0.019,-0.03 -0.0285,-0.03 -0.019,-0.03981 -0.0285,-0.03 -0.019,-0.02019 -0.019,-0.02019 -0.01,-0.02019 -0.019,-0.02019 -0.019,-0.02019 -0.019,-0.03001 -0.019,-0.02019 -0.019,-0.02019 -0.0285,-0.03 -0.019,-0.03001 -0.0285,-0.02019 -0.019,-0.03001 -0.0285,-0.03 -0.019,-0.03 -0.0285,-0.03 -0.0285,-0.03 -0.0285,-0.03001 -0.038,-0.03 -0.0285,-0.03981 -0.0285,-0.03001 -0.038,-0.0398 -0.038,-0.03 -0.0285,-0.03981 -0.038,-0.03981 c -5.90962,-6.262306 -7.42027,-15.645782 -7.42027,-23.244298 0,-8.655542 1.79569,-17.301131 7.61029,-23.503578 0.60806,-0.608305 0.60806,-0.698049 0.60806,-0.857575 0,-0.339044 -0.17101,-0.478665 -0.45604,-0.478665 -0.47505,0 -4.741,3.360518 -7.52479,9.672672 -2.42276,5.474512 -2.99281,10.988948 -2.99281,15.167146 0,3.879021 0.52254,9.872093 3.12582,15.496208 2.8313,6.112703 6.91673,9.3336 7.39178,9.3336 0.28503,0 0.45604,-0.139622 0.45604,-0.49857 z"
             inkscape:connector-curvature="0"
             style="fill:#000000;stroke-width:0" /><path
             id="path3317"
             d="m 550.70036,-69.910215 0,-0.05971 0,-0.04991 0,-0.04991 0,-0.04991 0,-0.04991 0,-0.04991 -0.01,-0.0398 0,-0.04991 0,-0.0398 0,-0.03981 0,-0.03981 0,-0.0398 0,-0.03981 -0.01,-0.03981 0,-0.03 0,-0.03981 -0.01,-0.05971 -0.01,-0.05972 -0.01,-0.04991 -0.01,-0.04991 -0.019,-0.04991 -0.019,-0.03981 -0.019,-0.0398 -0.0285,-0.03981 -0.0285,-0.03 -0.0285,-0.02019 -0.0285,-0.03 -0.038,-0.02019 -0.0475,-0.02019 -0.019,-0.0086 -0.019,-0.0086 -0.0285,0 -0.0285,-0.0086 -0.0285,-0.0086 -0.0285,0 -0.0285,-0.0086 -0.0285,0 -0.0285,-0.0086 -0.038,0 -0.0285,0 -0.038,-0.0086 -0.038,0 -0.038,0 -0.038,0 -0.038,-0.0086 -0.0475,0 -0.038,0 -0.0475,0 -0.0475,0 -0.0475,0 -0.057,0 c -2.93582,3.181001 -7.08776,3.181001 -8.60791,3.181001 v 1.545643 c 0.9501,0 3.74339,0 6.19465,-1.296344 v 25.737259 c 0,1.794943 -0.13301,2.383256 -4.39896,2.383256 h -1.51066 v 1.545643 c 1.66267,-0.159527 5.77661,-0.159527 7.6578,-0.159527 1.90021,0 6.01413,0 7.67681,0.159527 v -1.545643 h -1.51066 c -4.26594,0 -4.40846,-0.538465 -4.40846,-2.383256 z"
             inkscape:connector-curvature="0"
             style="fill:#000000;stroke-width:0" /><path
             id="path3319"
             d="m 570.1014,-38.15992 0,-0.299177 -0.01,-0.299146 -0.019,-0.289167 -0.019,-0.279242 -0.038,-0.269147 -0.0285,-0.269146 -0.0475,-0.249241 -0.0475,-0.249241 -0.057,-0.229337 -0.057,-0.229336 -0.0665,-0.219241 -0.076,-0.209432 -0.076,-0.199336 -0.0855,-0.199335 -0.095,-0.179431 -0.095,-0.169622 -0.10447,-0.159526 -0.10447,-0.159526 -0.11396,-0.139622 -0.11396,-0.139621 -0.12352,-0.119717 -0.12352,-0.10962 -0.13302,-0.10962 -0.13301,-0.08971 -0.14251,-0.07962 -0.15202,-0.06981 -0.15201,-0.05972 -0.15202,-0.04991 -0.16151,-0.03981 -0.16151,-0.03 -0.17104,-0.02019 -0.17101,0 c -1.55816,0 -2.50826,1.246466 -2.50826,2.632554 0,1.336211 0.9501,2.632555 2.50826,2.632555 0.57007,0 1.18764,-0.199336 1.66268,-0.638191 0.13301,-0.10962 0.19952,-0.159526 0.23753,-0.159526 0.0475,0 0.095,0.04991 0.095,0.747898 0,3.679598 -1.65316,6.651196 -3.22083,8.286583 -0.52256,0.548446 -0.52256,0.658124 -0.52256,0.797746 0,0.358976 0.23753,0.548446 0.47506,0.548446 0.52254,0 4.30394,-3.819221 4.30394,-9.632775 z"
             inkscape:connector-curvature="0"
             style="fill:#000000;stroke-width:0" /><path
             id="path3321"
             d="m 587.48825,-41.939244 5.01652,-5.115564 c 7.37277,-6.85062 10.22307,-9.533051 10.22307,-14.508994 0,-5.663981 -4.25645,-9.642728 -10.03305,-9.642728 -5.35857,0 -8.86444,4.587023 -8.86444,9.004538 0,2.772176 2.37526,2.772176 2.50827,2.772176 0.81708,0 2.46075,-0.588343 2.46075,-2.632555 0,-1.286362 -0.83607,-2.582706 -2.49875,-2.582706 -0.38004,0 -0.47505,0 -0.61757,0.04991 1.09262,-3.230878 3.63888,-5.065687 6.38467,-5.065687 4.30396,0 6.35618,4.038605 6.35618,8.097114 0,3.978776 -2.37526,7.907673 -4.96903,10.988949 l -9.09246,10.629972 c -0.53206,0.538465 -0.53206,0.638191 -0.53206,1.834809 h 17.55787 l 1.33962,-8.64556 h -1.18762 c -0.23753,1.495765 -0.56056,3.669617 -1.0356,4.417514 -0.34205,0.398873 -3.45837,0.398873 -4.50348,0.398873 z"
             inkscape:connector-curvature="0"
             style="fill:#000000;stroke-width:0" /><path
             id="path3323"
             d="m 618.85105,-50.524975 0,-0.368958 0,-0.388921 -0.01,-0.388892 -0.01,-0.408854 -0.038,-0.837612 -0.057,-0.877538 -0.0855,-0.917404 -0.095,-0.947319 -0.13301,-0.977234 -0.15202,-0.997197 -0.19002,-1.017129 -0.21853,-1.037064 -0.24702,-1.047044 -0.29453,-1.056998 -0.33253,-1.057025 -0.37054,-1.066978 -0.19952,-0.528513 -0.21853,-0.528513 -0.22802,-0.528484 -0.23753,-0.528513 c -2.8313,-6.112732 -6.89772,-9.333628 -7.37277,-9.333628 -0.28504,0 -0.47505,0.189527 -0.47505,0.478665 0,0.159526 0,0.249241 0.88359,1.156722 4.65549,4.906132 7.35379,12.803824 7.35379,23.204431 0,8.486005 -1.7482,17.23129 -7.62932,23.493596 -0.60806,0.588343 -0.60806,0.69802 -0.60806,0.837641 0,0.299148 0.19001,0.49857 0.47505,0.49857 0.47505,0 4.72199,-3.380423 7.52479,-9.692606 2.40375,-5.454578 2.96431,-10.968986 2.96431,-15.137201 z"
             inkscape:connector-curvature="0"
             style="fill:#000000;stroke-width:0" /><path
             id="path3325"
             d="m 656.05697,-54.36413 0.13302,0 0.1425,0 0.13302,0 0.076,-0.0086 0.0666,0 0.0665,-0.0086 0.0665,-0.0086 0.0665,-0.0086 0.0666,-0.0086 0.0665,-0.0086 0.0665,-0.02019 0.057,-0.02019 0.057,-0.02019 0.057,-0.03 0.057,-0.02019 0.057,-0.03 0.0475,-0.03981 0.0475,-0.03981 0.0475,-0.0398 0.038,-0.03981 0.038,-0.04991 0.019,-0.03 0.019,-0.03 0.01,-0.03 0.019,-0.03 0.01,-0.03 0.019,-0.03 0.01,-0.03 0.01,-0.03981 0.01,-0.03 0.01,-0.03981 0.01,-0.03981 0,-0.0398 0.01,-0.03981 0,-0.03981 0,-0.04991 0,-0.03981 c 0,-0.997196 -0.9026,-0.997196 -1.55818,-0.997196 h -28.35098 c -0.67456,0 -1.55816,0 -1.55816,0.997196 0,0.977234 0.8836,0.977234 1.59617,0.977234 z"
             inkscape:connector-curvature="0"
             style="fill:#000000;stroke-width:0" /><path
             id="path3327"
             d="m 656.10446,-44.721402 0.0666,0 0.057,0 0.13301,0 0.13302,0 0.0665,-0.0086 0.0665,0 0.0665,-0.0086 0.0666,-0.0086 0.057,-0.0086 0.0665,-0.0086 0.0665,-0.0086 0.057,-0.02019 0.0665,-0.02019 0.057,-0.02019 0.057,-0.03001 0.057,-0.02019 0.0475,-0.03981 0.0475,-0.03 0.0475,-0.03981 0.0475,-0.03981 0.038,-0.04991 0.019,-0.02019 0.019,-0.03 0.019,-0.02019 0.019,-0.03 0.01,-0.03 0.019,-0.03 0.01,-0.03 0.019,-0.0398 0.01,-0.03 0.01,-0.03981 0.01,-0.03 0.01,-0.03981 0.01,-0.03981 0,-0.03981 0.01,-0.03981 0,-0.04991 0,-0.03981 0,-0.04991 c 0,-0.997197 -0.9026,-0.997197 -1.60567,-0.997197 h -28.26548 c -0.71257,0 -1.59617,0 -1.59617,0.997197 0,0.997166 0.8836,0.997166 1.55815,0.997166 z"
             inkscape:connector-curvature="0"
             style="fill:#000000;stroke-width:0" /><path
             id="path3329"
             d="m 674.08987,-55.590663 0.36103,-0.129525 0.35154,-0.149718 0.35153,-0.159525 0.33254,-0.159526 0.33254,-0.179431 0.32303,-0.189527 0.31354,-0.209432 0.30403,-0.209433 0.29453,-0.219239 0.28503,-0.229337 0.28502,-0.239433 0.26603,-0.249241 0.25653,-0.259338 0.24703,-0.269147 0.23752,-0.279242 0.21852,-0.279243 0.21853,-0.289196 0.19952,-0.299146 0.19002,-0.30913 0.18052,-0.309128 0.16151,-0.31908 0.16151,-0.31911 0.13302,-0.329062 0.12351,-0.339044 0.11398,-0.339043 0.10446,-0.349024 0.076,-0.348996 0.076,-0.349024 0.057,-0.358978 0.038,-0.359005 0.019,-0.368958 0.01,-0.358977 c 0,-4.06849 -4.17093,-6.8606 -8.71242,-6.8606 -4.779,0 -8.37989,2.991532 -8.37989,6.760875 0,1.635387 1.04512,2.592687 2.42276,2.592687 1.45365,0 2.40376,-1.096893 2.40376,-2.54281 0,-2.473028 -2.22323,-2.473028 -2.92631,-2.473028 1.46315,-2.433104 4.58899,-3.091257 6.29915,-3.091257 1.92871,0 4.54149,1.096893 4.54149,5.564285 0,0.608276 -0.10446,3.470195 -1.33964,5.673962 -1.40616,2.383256 -3.02132,2.522848 -4.19944,2.582707 -0.38004,0.04991 -1.51066,0.139621 -1.8527,0.139621 -0.37054,0.04991 -0.71257,0.09981 -0.71257,0.598295 0,0.538494 0.34203,0.538494 1.14012,0.538494 h 2.08072 c 3.89541,0 5.64359,3.380452 5.64359,8.256669 0,6.750922 -3.26835,8.19684 -5.35857,8.19684 -2.03321,0 -5.58658,-0.837642 -7.23027,-3.769344 1.64369,0.239433 3.11633,-0.857575 3.11633,-2.742261 0,-1.794941 -1.27312,-2.772175 -2.66028,-2.772175 -1.13061,0 -2.64127,0.688067 -2.64127,2.881853 0,4.51724 4.39897,7.788014 9.55802,7.788014 5.7766,0 10.08054,-4.51724 10.08054,-9.582927 0,-4.078472 -2.98331,-7.94754 -7.89532,-8.984604 z"
             inkscape:connector-curvature="0"
             style="fill:#000000;stroke-width:0" /><path
             id="path3331"
             d="m 510.2451,-12.452576 0,0 0,-0.0086 0,0 0,-0.02019 0,-0.0086 0,-0.0086 0,-0.02019 0,-0.02019 -0.01,-0.02019 0,-0.02019 -0.01,-0.02019 0,-0.02019 -0.01,-0.02019 -0.01,-0.03001 -0.01,-0.02019 -0.01,-0.03 -0.019,-0.02019 -0.01,-0.03 -0.019,-0.02019 -0.019,-0.02019 -0.019,-0.03001 -0.019,-0.0086 -0.01,-0.0086 -0.01,-0.0086 -0.019,-0.0086 -0.01,-0.0086 -0.019,-0.0086 -0.01,-0.0086 -0.019,-0.0086 -0.019,-0.0086 -0.01,-0.0086 -0.019,0 -0.019,-0.0086 -0.019,-0.0086 -0.019,-0.0086 -0.019,0 -0.0285,-0.0086 -0.019,0 -0.0285,-0.0086 -0.019,0 -0.0285,0 -0.019,0 -0.0285,-0.0086 -0.0285,0 -0.0285,0 c -0.71259,0 -5.20656,0.458702 -6.01414,0.548446 -0.38004,0.04991 -0.66508,0.299147 -0.66508,0.947319 0,0.598294 0.42755,0.598294 1.14013,0.598294 2.27074,0 2.36575,0.339044 2.36575,0.837642 l -0.13302,0.9971962 -2.85029,11.7767133 c -0.8456,-1.83480869 -2.23275,-3.1810297 -4.35148,-3.1810297 l 0.0475,1.09692132 c 3.06883,0 3.7339,4.06849088 3.7339,4.35768558 0,0.3190813 -0.0855,0.608276 -0.13301,0.8575756 l -2.37526,9.7424537 c -0.23751,0.88749 -0.23751,0.977234 -0.95009,1.834808 -2.08072,2.732281 -4.01893,3.520074 -5.33958,3.520074 -2.36574,0 -3.0308,-2.722328 -3.0308,-4.666814 0,-2.482981 1.51066,-8.5857322 2.59377,-10.8792719 1.47265,-2.9317013 3.61038,-4.76651098 5.50107,-4.76651098 l -0.0475,-1.09692132 c -5.53908,0 -11.40119,7.2993973 -11.40119,14.5588712 0,4.676794 2.59378,7.947539 6.28966,7.947539 0.9406,0 3.31585,-0.209431 6.14715,-3.729447 0.38955,2.09406 2.03322,3.729447 4.30395,3.729447 1.66267,0 2.7458,-1.136788 3.50588,-2.732279 0.79808,-1.784961 1.42514,-4.82637 1.42514,-4.916114 0,-0.498598 -0.42754,-0.498598 -0.56057,-0.498598 -0.47504,0 -0.52254,0.199335 -0.67456,0.897472 -0.79808,3.230877 -1.66266,6.152627 -3.59137,6.152627 -1.27314,0 -1.42516,-1.286363 -1.42516,-2.283559 0,-1.186637 0.095,-1.545614 0.28503,-2.383255 z"
             inkscape:connector-curvature="0"
             style="fill:#000000;stroke-width:0" /><path
             id="path3333"
             d="m 533.9786,33.397829 0,-0.02019 0,-0.03 0,-0.0086 0,-0.02019 -0.01,-0.0086 0,-0.02019 -0.01,-0.0086 0,-0.02019 -0.01,-0.02019 -0.01,-0.02019 -0.01,-0.02019 -0.019,-0.03 -0.01,-0.02019 -0.019,-0.03 -0.019,-0.03 -0.0285,-0.03 -0.019,-0.03001 -0.0285,-0.0398 -0.019,-0.02019 -0.019,-0.02019 -0.01,-0.02019 -0.019,-0.02019 -0.019,-0.02019 -0.019,-0.03 -0.019,-0.02019 -0.019,-0.02019 -0.0285,-0.03 -0.019,-0.02019 -0.0285,-0.03 -0.019,-0.03 -0.0285,-0.03 -0.019,-0.03 -0.0285,-0.03 -0.0285,-0.03 -0.0285,-0.03001 -0.038,-0.03 -0.0285,-0.03981 -0.0285,-0.03 -0.038,-0.0398 -0.038,-0.03 -0.0285,-0.03981 -0.038,-0.03981 c -5.90962,-6.262306 -7.42027,-15.645782 -7.42027,-23.2443265 0,-8.64556073 1.79569,-17.3011027 7.61029,-23.5035785 0.60806,-0.598295 0.60806,-0.69802 0.60806,-0.847594 0,-0.349025 -0.17101,-0.488617 -0.45604,-0.488617 -0.47505,0 -4.741,3.370471 -7.52479,9.6726719 -2.42276,5.47451234 -2.99281,10.988949 -2.99281,15.1671176 0,3.8790495 0.52254,9.8721225 3.12582,15.4962075 2.8313,6.112732 6.91673,9.333629 7.39178,9.333629 0.28503,0 0.45604,-0.139622 0.45604,-0.498598 z"
             inkscape:connector-curvature="0"
             style="fill:#000000;stroke-width:0" /><path
             id="path3335"
             d="m 550.70036,-10.318619 0,-0.04991 0,-0.05971 0,-0.04991 0,-0.04991 0,-0.0499 0,-0.04991 -0.01,-0.03981 0,-0.0499 0,-0.03981 0,-0.03981 0,-0.03981 0,-0.03981 0,-0.03981 -0.01,-0.03 0,-0.03981 0,-0.03001 -0.01,-0.06981 -0.01,-0.05972 -0.01,-0.04991 -0.01,-0.04991 -0.019,-0.04991 -0.019,-0.0398 -0.019,-0.03981 -0.0285,-0.03 -0.0285,-0.03981 -0.0285,-0.02019 -0.0285,-0.03 -0.038,-0.02019 -0.0475,-0.02019 -0.019,-0.0086 -0.019,-0.0086 -0.0285,0 -0.0285,-0.0086 -0.0285,-0.0086 -0.0285,0 -0.0285,-0.0086 -0.0285,0 -0.0285,-0.0086 -0.038,0 -0.0285,0 -0.038,-0.0086 -0.038,0 -0.038,0 -0.038,0 -0.038,0 -0.0475,0 -0.038,-0.0086 -0.0475,0 -0.0475,0 -0.0475,0 -0.057,0 c -2.93582,3.1810265 -7.08776,3.1810265 -8.60791,3.1810265 v 1.5456139 c 0.9501,0 3.74339,0 6.19465,-1.2963148 V 17.562665 c 0,1.794913 -0.13301,2.383255 -4.39896,2.383255 h -1.51066 v 1.545643 c 1.66267,-0.159526 5.77661,-0.159526 7.6578,-0.159526 1.90021,0 6.01413,0 7.67681,0.159526 V 19.94592 h -1.51066 c -4.26594,0 -4.40846,-0.538466 -4.40846,-2.383255 z"
             inkscape:connector-curvature="0"
             style="fill:#000000;stroke-width:0" /><path
             id="path3337"
             d="m 570.1014,21.431647 0,-0.299148 -0.01,-0.299147 -0.019,-0.289195 -0.019,-0.279243 -0.038,-0.269146 -0.0285,-0.259338 -0.0475,-0.259338 -0.0475,-0.239433 -0.057,-0.239433 -0.057,-0.229337 -0.0665,-0.219528 -0.076,-0.209433 -0.076,-0.199335 -0.0855,-0.189528 -0.095,-0.189526 -0.095,-0.169623 -0.10447,-0.159527 -0.10447,-0.159525 -0.11396,-0.139621 -0.11396,-0.129525 -0.12352,-0.129525 -0.12352,-0.10962 -0.13302,-0.09981 -0.13301,-0.09981 -0.14251,-0.07991 -0.15202,-0.06981 -0.15201,-0.05972 -0.15202,-0.04991 -0.16151,-0.03981 -0.16151,-0.03 -0.17104,-0.02019 -0.17101,0 c -1.55816,0 -2.50826,1.246496 -2.50826,2.632584 0,1.33621 0.9501,2.632554 2.50826,2.632554 0.57007,0 1.18764,-0.199335 1.66268,-0.638191 0.13301,-0.109619 0.19952,-0.159526 0.23753,-0.159526 0.0475,0 0.095,0.04991 0.095,0.747868 0,3.679628 -1.65316,6.661179 -3.22083,8.296566 -0.52256,0.538494 -0.52256,0.648172 -0.52256,0.787764 0,0.359006 0.23753,0.548476 0.47506,0.548476 0.52254,0 4.30394,-3.819221 4.30394,-9.632806 z"
             inkscape:connector-curvature="0"
             style="fill:#000000;stroke-width:0" /><path
             id="path3339"
             d="m 595.20305,4.0009331 0.36104,-0.1295251 0.35154,-0.1497177 0.34204,-0.1497177 0.34204,-0.1696227 0.33253,-0.1794306 0.32303,-0.1895274 0.31354,-0.1993355 0.30402,-0.2195292 0.29454,-0.2195282 0.28503,-0.2293362 0.28502,-0.2394341 0.26604,-0.249241 0.25652,-0.2593379 0.24702,-0.269146 0.23753,-0.26914589 0.21852,-0.28916692 0.21853,-0.2891947 0.19952,-0.29914765 0.19002,-0.29914662 0.18052,-0.31911009 0.16152,-0.31911008 0.15201,-0.31908025 0.14251,-0.329062 0.12351,-0.3390438 0.11397,-0.3390427 0.095,-0.3390437 0.0855,-0.3490246 0.076,-0.3589767 0.0475,-0.3590058 0.038,-0.3589767 0.0285,-0.3589769 0.01,-0.368958 c 0,-4.0685195 -4.17094,-6.8606287 -8.71241,-6.8606287 -4.7885,0 -8.37988,2.99156 -8.37988,6.7609033 0,1.6453682 1.04511,2.5926878 2.42275,2.5926878 1.45365,0 2.40376,-1.0969222 2.40376,-2.5428107 0,-2.4730284 -2.22325,-2.4730284 -2.92632,-2.4730284 1.45366,-2.4331325 4.58898,-3.091257 6.29916,-3.091257 1.92871,0 4.54149,1.0968933 4.54149,5.5642854 0,0.6082759 -0.10447,3.4801487 -1.33964,5.67396261 -1.40614,2.38325599 -3.02132,2.52284809 -4.19945,2.58267779 -0.38003,0.049909 -1.51065,0.1396209 -1.85269,0.1396209 -0.37054,0.049909 -0.71257,0.099807 -0.71257,0.5982953 0,0.5384933 0.34203,0.5384933 1.14012,0.5384933 h 2.0807 c 3.88592,0 5.6436,3.3804525 5.6436,8.2566697 0,6.750923 -3.26834,8.19684 -5.35856,8.19684 -2.03321,0 -5.58658,-0.837642 -7.23025,-3.769373 1.64367,0.239434 3.11632,-0.857575 3.11632,-2.742232 0,-1.784961 -1.27313,-2.772175 -2.66027,-2.772175 -1.13063,0 -2.64129,0.688067 -2.64129,2.881853 0,4.51724 4.38947,7.787985 9.558,7.787985 5.77662,0 10.08057,-4.517211 10.08057,-9.582898 0,-4.0784723 -2.98331,-7.9375884 -7.89533,-8.9846041 z"
             inkscape:connector-curvature="0"
             style="fill:#000000;stroke-width:0" /><path
             id="path3341"
             d="m 618.85105,9.0665907 0,-0.3689581 0,-0.3888917 -0.01,-0.3888908 -0.01,-0.4088541 -0.038,-0.837642 -0.057,-0.8775083 -0.0855,-0.9174043 -0.095,-0.9473188 -0.13301,-0.9672821 -0.15202,-1.0071485 -0.19002,-1.01713019 -0.21853,-1.02708205 -0.24702,-1.04704456 -0.29453,-1.0570252 -0.33253,-1.0669787 -0.37054,-1.0669781 -0.19952,-0.5285129 -0.21853,-0.5285129 -0.22802,-0.5284841 -0.23753,-0.5285128 c -2.8313,-6.1027505 -6.89772,-9.3336275 -7.37277,-9.3336275 -0.28504,0 -0.47505,0.189526 -0.47505,0.488616 0,0.149718 0,0.249241 0.88359,1.14677 4.65549,4.9061322 7.35379,12.8137763 7.35379,23.2044017 0,8.4860353 -1.7482,17.2313203 -7.62932,23.4936263 -0.60806,0.588342 -0.60806,0.69802 -0.60806,0.837612 0,0.299177 0.19001,0.498598 0.47505,0.498598 0.47505,0 4.72199,-3.380451 7.52479,-9.682623 2.40375,-5.454579 2.96431,-10.969016 2.96431,-15.1472133 z"
             inkscape:connector-curvature="0"
             style="fill:#000000;stroke-width:0" /><path
             id="path3343"
             d="m 656.05697,5.2274658 0.13302,0 0.1425,0 0.13302,0 0.076,-0.00864 0.0666,0 0.0665,-0.00864 0.0665,-0.00863 0.0665,-0.00864 0.0666,-0.00864 0.0665,-0.00863 0.0665,-0.02019 0.057,-0.02019 0.057,-0.02019 0.057,-0.02019 0.057,-0.029997 0.057,-0.029997 0.0475,-0.039814 0.0475,-0.029997 0.0475,-0.049909 0.038,-0.039814 0.038,-0.049909 0.019,-0.029997 0.019,-0.029997 0.01,-0.02019 0.019,-0.029997 0.01,-0.039814 0.019,-0.029997 0.01,-0.029997 0.01,-0.039814 0.01,-0.030007 0.01,-0.039814 0.01,-0.039814 0,-0.039814 0.01,-0.039814 0,-0.039814 0,-0.049909 0,-0.039814 c 0,-0.9971677 -0.9026,-0.9971677 -1.55818,-0.9971677 h -28.35098 c -0.67456,0 -1.55816,0 -1.55816,0.9971677 0,0.9772629 0.8836,0.9772629 1.59617,0.9772629 z"
             inkscape:connector-curvature="0"
             style="fill:#000000;stroke-width:0" /><path
             id="path3345"
             d="m 656.10446,14.880175 0.0666,0 0.057,0 0.13301,-0.0086 0.13302,0 0.0665,0 0.0665,-0.0086 0.0665,-0.0086 0.0666,0 0.057,-0.0086 0.0665,-0.02019 0.0665,-0.0086 0.057,-0.02019 0.0665,-0.02019 0.057,-0.02019 0.057,-0.02019 0.057,-0.03 0.0475,-0.03001 0.0475,-0.03981 0.0475,-0.0398 0.0475,-0.03981 0.038,-0.04991 0.019,-0.02019 0.019,-0.03 0.019,-0.02019 0.019,-0.03 0.01,-0.03001 0.019,-0.03001 0.01,-0.03 0.019,-0.03001 0.01,-0.03981 0.01,-0.03001 0.01,-0.03981 0.01,-0.03981 0.01,-0.03981 0,-0.03981 0.01,-0.0398 0,-0.03981 0,-0.04991 0,-0.03981 c 0,-0.997167 -0.9026,-0.997167 -1.60567,-0.997167 h -28.26548 c -0.71257,0 -1.59617,0 -1.59617,0.997167 0,0.997197 0.8836,0.997197 1.55815,0.997197 z"
             inkscape:connector-curvature="0"
             style="fill:#000000;stroke-width:0" /><path
             id="path3347"
             d="m 674.27038,-10.318619 0,-0.04991 0,-0.05971 0,-0.04991 0,-0.04991 0,-0.0499 0,-0.04991 0,-0.03981 0,-0.0499 -0.01,-0.03981 0,-0.03981 0,-0.03981 0,-0.03981 0,-0.03981 0,-0.03 -0.01,-0.03981 0,-0.03001 -0.01,-0.06981 -0.01,-0.05972 -0.01,-0.04991 -0.01,-0.04991 -0.019,-0.04991 -0.019,-0.0398 -0.019,-0.03981 -0.019,-0.03 -0.0285,-0.03981 -0.0285,-0.02019 -0.038,-0.03 -0.038,-0.02019 -0.038,-0.02019 -0.0285,-0.0086 -0.019,-0.0086 -0.0285,0 -0.0285,-0.0086 -0.019,-0.0086 -0.0285,0 -0.0285,-0.0086 -0.038,0 -0.0285,-0.0086 -0.0285,0 -0.038,0 -0.038,-0.0086 -0.038,0 -0.038,0 -0.038,0 -0.038,0 -0.0475,0 -0.038,-0.0086 -0.0475,0 -0.0475,0 -0.0475,0 -0.0475,0 c -2.94532,3.1810265 -7.09725,3.1810265 -8.61742,3.1810265 v 1.5456139 c 0.9501,0 3.7434,0 6.19466,-1.2963148 V 17.562665 c 0,1.794913 -0.13302,2.383255 -4.38947,2.383255 h -1.52016 v 1.545643 c 1.66268,-0.159526 5.77661,-0.159526 7.66732,-0.159526 1.90019,0 6.00463,0 7.66731,0.159526 V 19.94592 h -1.51066 c -4.25646,0 -4.40848,-0.538466 -4.40848,-2.383255 z"
             inkscape:connector-curvature="0"
             style="fill:#000000;stroke-width:0" /><path
             id="path3349"
             d="m 510.2451,47.13902 0,-0.0086 0,0 0,-0.0086 0,-0.0086 0,-0.0086 0,-0.0086 0,-0.02019 0,-0.02019 -0.01,-0.02019 0,-0.02019 -0.01,-0.02019 0,-0.02019 -0.01,-0.03 -0.01,-0.02019 -0.01,-0.02019 -0.01,-0.03 -0.019,-0.02019 -0.01,-0.03 -0.019,-0.02019 -0.019,-0.03 -0.019,-0.02019 -0.019,-0.0086 -0.01,-0.0086 -0.01,-0.0086 -0.019,-0.0086 -0.01,-0.0086 -0.019,-0.0086 -0.01,-0.0086 -0.019,-0.0086 -0.019,-0.0086 -0.01,-0.0086 -0.019,-0.0086 -0.019,0 -0.019,-0.0086 -0.019,-0.0086 -0.019,0 -0.0285,-0.0086 -0.019,0 -0.0285,-0.0086 -0.019,0 -0.0285,0 -0.019,-0.0086 -0.0285,0 -0.0285,0 -0.0285,0 c -0.71259,0 -5.20656,0.44872 -6.01414,0.548446 -0.38004,0.03981 -0.66508,0.289166 -0.66508,0.947319 0,0.588342 0.42755,0.588342 1.14013,0.588342 2.27074,0 2.36575,0.348996 2.36575,0.847594 l -0.13302,0.997168 -2.85029,11.776742 c -0.8456,-1.834838 -2.23275,-3.18103 -4.35148,-3.18103 l 0.0475,1.096922 c 3.06883,0 3.7339,4.058509 3.7339,4.357685 0,0.3091 -0.0855,0.608276 -0.13301,0.857575 l -2.37526,9.742453 c -0.23751,0.88749 -0.23751,0.977234 -0.95009,1.83481 -2.08072,2.722328 -4.01893,3.520072 -5.33958,3.520072 -2.36574,0 -3.0308,-2.722327 -3.0308,-4.676794 0,-2.473 1.51066,-8.585732 2.59377,-10.86929 1.47265,-2.931703 3.61038,-4.766511 5.50107,-4.766511 l -0.0475,-1.096922 c -5.53908,0 -11.40119,7.299369 -11.40119,14.55887 0,4.666814 2.59378,7.947541 6.28966,7.947541 0.9406,0 3.31585,-0.209432 6.14715,-3.729477 0.38955,2.084108 2.03322,3.729477 4.30395,3.729477 1.66267,0 2.7458,-1.14677 3.50588,-2.73228 0.79808,-1.794942 1.42514,-4.826369 1.42514,-4.926095 0,-0.498569 -0.42754,-0.498569 -0.56057,-0.498569 -0.47504,0 -0.52254,0.209432 -0.67456,0.907423 -0.79808,3.220897 -1.66266,6.152627 -3.59137,6.152627 -1.27314,0 -1.42516,-1.296343 -1.42516,-2.293539 0,-1.176656 0.095,-1.535662 0.28503,-2.383255 z"
             inkscape:connector-curvature="0"
             style="fill:#000000;stroke-width:0" /><path
             id="path3351"
             d="m 533.9786,92.989429 0,-0.02015 0,-0.03002 0,-0.0082 0,-0.02015 -0.01,-0.0082 0,-0.02015 -0.01,-0.02015 0,-0.0082 -0.01,-0.02015 -0.01,-0.02015 -0.01,-0.03002 -0.019,-0.02015 -0.01,-0.02015 -0.019,-0.03002 -0.019,-0.03002 -0.0285,-0.03002 -0.019,-0.03978 -0.0285,-0.03002 -0.019,-0.02015 -0.019,-0.02015 -0.01,-0.02015 -0.019,-0.02015 -0.019,-0.02015 -0.019,-0.03002 -0.019,-0.02015 -0.019,-0.02015 -0.0285,-0.03002 -0.019,-0.03002 -0.0285,-0.02015 -0.019,-0.03002 -0.0285,-0.03002 -0.019,-0.03002 -0.0285,-0.03002 -0.0285,-0.03002 -0.0285,-0.03002 -0.038,-0.03002 -0.0285,-0.03978 -0.0285,-0.03002 -0.038,-0.03978 -0.038,-0.03978 -0.0285,-0.03002 -0.038,-0.03978 c -5.90962,-6.26231 -7.42027,-15.645786 -7.42027,-23.244331 0,-8.655542 1.79569,-17.301102 7.61029,-23.503579 0.60806,-0.608276 0.60806,-0.69802 0.60806,-0.857574 0,-0.339044 -0.17101,-0.478636 -0.45604,-0.478636 -0.47505,0 -4.741,3.360489 -7.52479,9.672672 -2.42276,5.474511 -2.99281,10.988919 -2.99281,15.167117 0,3.879049 0.52254,9.872122 3.12582,15.496208 2.8313,6.112733 6.91673,9.333624 7.39178,9.333624 0.28503,0 0.45604,-0.139621 0.45604,-0.498593 z"
             inkscape:connector-curvature="0"
             style="fill:#000000;stroke-width:0" /><path
             id="path3353"
             d="m 542.79552,77.233965 5.02604,-5.105582 c 7.37278,-6.8606 10.22308,-9.533051 10.22308,-14.508993 0,-5.663982 -4.25645,-9.642757 -10.03306,-9.642757 -5.35856,0 -8.86442,4.577069 -8.86442,9.004566 0,2.772176 2.37524,2.772176 2.50826,2.772176 0.81708,0 2.46075,-0.588342 2.46075,-2.632583 0,-1.286363 -0.84559,-2.582677 -2.50827,-2.582677 -0.37053,0 -0.47505,0 -0.60806,0.04991 1.08312,-3.230877 3.63889,-5.065687 6.38468,-5.065687 4.30395,0 6.35617,4.028624 6.35617,8.097115 0,3.978746 -2.37526,7.897692 -4.96903,10.988948 l -9.09246,10.619991 c -0.53204,0.548447 -0.53204,0.648172 -0.53204,1.844791 h 17.55783 l 1.33965,-8.64559 h -1.18762 c -0.23753,1.495794 -0.56057,3.669646 -1.03562,4.417544 -0.34203,0.388891 -3.45837,0.388891 -4.50348,0.388891 z"
             inkscape:connector-curvature="0"
             style="fill:#000000;stroke-width:0" /><path
             id="path3355"
             d="m 570.1014,81.023242 0,-0.299147 -0.01,-0.299147 -0.019,-0.289196 -0.019,-0.279241 -0.038,-0.269147 -0.0285,-0.269146 -0.0475,-0.249241 -0.0475,-0.249241 -0.057,-0.229338 -0.057,-0.229336 -0.0665,-0.21924 -0.076,-0.209433 -0.076,-0.199335 -0.0855,-0.199335 -0.095,-0.179431 -0.095,-0.169623 -0.10447,-0.169622 -0.10447,-0.149718 -0.11396,-0.139621 -0.11396,-0.139622 -0.12352,-0.119717 -0.12352,-0.109619 -0.13302,-0.10962 -0.13301,-0.08971 -0.14251,-0.07962 -0.15202,-0.06981 -0.15201,-0.05972 -0.15202,-0.04991 -0.16151,-0.0398 -0.16151,-0.03 -0.17104,-0.02019 -0.17101,0 c -1.55816,0 -2.50826,1.246495 -2.50826,2.632582 0,1.336212 0.9501,2.632555 2.50826,2.632555 0.57007,0 1.18764,-0.199336 1.66268,-0.638191 0.13301,-0.10962 0.19952,-0.159525 0.23753,-0.159525 0.0475,0 0.095,0.04991 0.095,0.747868 0,3.679599 -1.65316,6.651225 -3.22083,8.286583 -0.52256,0.548447 -0.52256,0.658154 -0.52256,0.797744 0,0.359003 0.23753,0.54845 0.47506,0.54845 0.52254,0 4.30394,-3.819193 4.30394,-9.632777 z"
             inkscape:connector-curvature="0"
             style="fill:#000000;stroke-width:0" /><path
             id="path3357"
             d="m 595.20305,63.5925 0.36104,-0.139621 0.35154,-0.139622 0.34204,-0.159526 0.34204,-0.159525 0.33253,-0.179431 0.32303,-0.199335 0.31354,-0.199336 0.30402,-0.209432 0.29454,-0.219241 0.28503,-0.229336 0.28502,-0.239433 0.26604,-0.249242 0.25652,-0.259338 0.24702,-0.269146 0.23753,-0.279243 0.21852,-0.279242 0.21853,-0.289195 0.19952,-0.299148 0.19002,-0.309128 0.18052,-0.309128 0.16152,-0.31911 0.15201,-0.319081 0.14251,-0.329092 0.12351,-0.339042 0.11397,-0.339015 0.095,-0.349025 0.0855,-0.349024 0.076,-0.348996 0.0475,-0.359005 0.038,-0.358977 0.0285,-0.368958 0.01,-0.358977 c 0,-4.068519 -4.17094,-6.860629 -8.71241,-6.860629 -4.7885,0 -8.37988,2.99156 -8.37988,6.760903 0,1.635387 1.04511,2.592688 2.42275,2.592688 1.45365,0 2.40376,-1.096922 2.40376,-2.542839 0,-2.48298 -2.22325,-2.48298 -2.92632,-2.48298 1.45366,-2.423152 4.58898,-3.081276 6.29916,-3.081276 1.92871,0 4.54149,1.086911 4.54149,5.564256 0,0.608305 -0.10447,3.470196 -1.33964,5.673963 -1.40614,2.383284 -3.02132,2.522877 -4.19945,2.582706 -0.38003,0.04991 -1.51065,0.139621 -1.85269,0.139621 -0.37054,0.04991 -0.71257,0.08971 -0.71257,0.588343 0,0.548446 0.34203,0.548446 1.14012,0.548446 h 2.0807 c 3.88592,0 5.6436,3.380451 5.6436,8.256669 0,6.750922 -3.26834,8.19681 -5.35856,8.19681 -2.03321,0 -5.58658,-0.837612 -7.23025,-3.769343 1.64367,0.229337 3.11632,-0.857574 3.11632,-2.742232 0,-1.794942 -1.27313,-2.772176 -2.66027,-2.772176 -1.13063,0 -2.64129,0.688069 -2.64129,2.881854 0,4.517241 4.38947,7.787986 9.558,7.787986 5.77662,0 10.08057,-4.517212 10.08057,-9.582899 0,-4.078472 -2.98331,-7.947541 -7.89533,-8.984632 z"
             inkscape:connector-curvature="0"
             style="fill:#000000;stroke-width:0" /><path
             id="path3359"
             d="m 618.85105,68.658187 0,-0.378911 0,-0.378939 -0.01,-0.388891 -0.01,-0.408854 -0.038,-0.837641 -0.057,-0.877509 -0.0855,-0.917405 -0.095,-0.947319 -0.13301,-0.977234 -0.15202,-0.997196 -0.19002,-1.01713 -0.21853,-1.037063 -0.24702,-1.047045 -0.29453,-1.056996 -0.33253,-1.057027 -0.37054,-1.066978 -0.19952,-0.528512 -0.21853,-0.528514 -0.22802,-0.528513 -0.23753,-0.528483 c -2.8313,-6.112732 -6.89772,-9.333628 -7.37277,-9.333628 -0.28504,0 -0.47505,0.189526 -0.47505,0.478635 0,0.159526 0,0.249242 0.88359,1.156752 4.65549,4.906131 7.35379,12.803794 7.35379,23.204401 0,8.486034 -1.7482,17.231321 -7.62932,23.49363 -0.60806,0.588305 -0.60806,0.698012 -0.60806,0.837612 0,0.299174 0.19001,0.498593 0.47505,0.498593 0.47505,0 4.72199,-3.380456 7.52479,-9.692604 2.40375,-5.454578 2.96431,-10.969015 2.96431,-15.137231 z"
             inkscape:connector-curvature="0"
             style="fill:#000000;stroke-width:0" /><path
             id="path3361"
             d="m 656.05697,64.819033 0.13302,0 0.1425,0 0.13302,0 0.076,-0.0086 0.0666,0 0.0665,-0.0086 0.0665,-0.0086 0.0665,-0.0086 0.0666,-0.0086 0.0665,-0.0086 0.0665,-0.02019 0.057,-0.02019 0.057,-0.02019 0.057,-0.03 0.057,-0.02019 0.057,-0.03 0.0475,-0.03981 0.0475,-0.03981 0.0475,-0.0398 0.038,-0.03981 0.038,-0.04991 0.019,-0.03 0.019,-0.03 0.01,-0.03001 0.019,-0.03 0.01,-0.03 0.019,-0.03 0.01,-0.03 0.01,-0.03981 0.01,-0.03 0.01,-0.03981 0.01,-0.03981 0,-0.0398 0.01,-0.03981 0,-0.03981 0,-0.04991 0,-0.03981 c 0,-0.997167 -0.9026,-0.997167 -1.55818,-0.997167 h -28.35098 c -0.67456,0 -1.55816,0 -1.55816,0.997167 0,0.977235 0.8836,0.977235 1.59617,0.977235 z"
             inkscape:connector-curvature="0"
             style="fill:#000000;stroke-width:0" /><path
             id="path3363"
             d="m 656.10446,74.46179 0.0666,0 0.057,0 0.13301,0 0.13302,0 0.0665,-0.0086 0.0665,0 0.0665,-0.0086 0.0666,-0.0086 0.057,-0.0086 0.0665,-0.0086 0.0665,-0.0086 0.057,-0.02019 0.0665,-0.02019 0.057,-0.02019 0.057,-0.03001 0.057,-0.02019 0.0475,-0.03981 0.0475,-0.03 0.0475,-0.03981 0.0475,-0.03981 0.038,-0.04991 0.019,-0.02019 0.019,-0.03 0.019,-0.03 0.019,-0.02019 0.01,-0.03 0.019,-0.03 0.01,-0.03 0.019,-0.0398 0.01,-0.03 0.01,-0.03981 0.01,-0.03 0.01,-0.03981 0.01,-0.03981 0,-0.0398 0.01,-0.03981 0,-0.04991 0,-0.03981 0,-0.04991 c 0,-0.997196 -0.9026,-0.997196 -1.60567,-0.997196 h -28.26548 c -0.71257,0 -1.59617,0 -1.59617,0.997196 0,0.997167 0.8836,0.997167 1.55815,0.997167 z"
             inkscape:connector-curvature="0"
             style="fill:#000000;stroke-width:0" /><path
             id="path3365"
             d="m 681.61465,71.081338 -0.01,-0.548446 -0.0285,-0.548447 -0.057,-0.528513 -0.076,-0.538464 -0.10447,-0.518532 -0.11396,-0.50858 -0.14251,-0.50855 -0.15202,-0.488617 -0.18052,-0.478665 -0.19001,-0.468655 -0.20902,-0.458702 -0.23753,-0.438768 -0.24703,-0.428788 -0.25653,-0.408853 -0.28502,-0.398874 -0.29453,-0.37891 -0.30404,-0.359006 -0.32304,-0.348996 -0.34204,-0.32909 -0.35152,-0.299148 -0.36105,-0.289166 -0.38003,-0.269146 -0.38955,-0.239433 -0.39904,-0.219529 -0.40854,-0.199335 -0.42754,-0.169622 -0.42755,-0.149719 -0.44656,-0.129524 -0.44653,-0.08971 -0.45605,-0.07991 -0.47505,-0.03981 -0.47505,-0.0086 c -2.27074,0 -4.30395,0.787765 -6.00464,2.522848 v -9.682624 c 0.95011,0.299147 2.50827,0.648172 4.01892,0.648172 5.81462,0 9.13048,-4.527222 9.13048,-5.175394 0,-0.299147 -0.13302,-0.548446 -0.47506,-0.548446 -0.0475,0 -0.13301,0 -0.37054,0.159526 -0.95009,0.44875 -3.26835,1.425984 -6.44167,1.425984 -1.89071,0 -4.06644,-0.339044 -6.29917,-1.386088 -0.37054,-0.139622 -0.47505,-0.139622 -0.56056,-0.139622 -0.47505,0 -0.47505,0.38892 -0.47505,1.186666 v 14.708415 c 0,0.88749 0,1.296343 0.66507,1.296343 0.33253,0 0.41805,-0.159525 0.60807,-0.458702 0.52255,-0.787764 2.27073,-3.470195 6.10914,-3.470195 2.46077,0 3.64839,2.293511 4.01893,3.181001 0.76957,1.834837 0.85509,3.769372 0.85509,6.262305 0,1.725131 0,4.716691 -1.14013,6.810751 -1.12112,1.924583 -2.8788,3.220897 -5.06403,3.220897 -3.45837,0 -6.14714,-2.632554 -6.95473,-5.564256 0.14251,0.04991 0.29453,0.09981 0.80759,0.09981 1.56765,0 2.36573,-1.246495 2.36573,-2.433131 0,-1.196619 -0.79808,-2.433133 -2.36573,-2.433133 -0.66508,0 -2.32776,0.349024 -2.32776,2.632554 0,4.267942 3.26836,9.08433 8.57941,9.08433 5.48209,0 10.31809,-4.766511 10.31809,-11.078694 z"
             inkscape:connector-curvature="0"
             style="fill:#000000;stroke-width:0" /><path
             id="path3367"
             d="m 510.2451,106.73061 0,0 0,-0.008 0,0 0,-0.0202 0,-0.008 0,-0.008 0,-0.0202 0,-0.0202 -0.01,-0.0201 0,-0.0202 -0.01,-0.0202 0,-0.0202 -0.01,-0.0202 -0.01,-0.03 -0.01,-0.0201 -0.01,-0.03 -0.019,-0.0202 -0.01,-0.03 -0.019,-0.0202 -0.019,-0.0201 -0.019,-0.03 -0.019,-0.008 -0.01,-0.008 -0.01,-0.008 -0.019,-0.008 -0.01,-0.008 -0.019,-0.008 -0.01,-0.008 -0.019,-0.008 -0.019,-0.008 -0.01,-0.008 -0.019,0 -0.019,-0.008 -0.019,-0.008 -0.019,-0.008 -0.019,0 -0.0285,-0.008 -0.019,0 -0.0285,-0.008 -0.019,0 -0.0285,0 -0.019,0 -0.0285,-0.008 -0.0285,0 -0.0285,0 c -0.71259,0 -5.20656,0.4587 -6.01414,0.54848 -0.38004,0.0499 -0.66508,0.29914 -0.66508,0.94732 0,0.59829 0.42755,0.59829 1.14013,0.59829 2.27074,0 2.36575,0.33904 2.36575,0.83765 l -0.13302,0.99716 -2.85029,11.77674 c -0.8456,-1.83484 -2.23275,-3.18103 -4.35148,-3.18103 l 0.0475,1.09689 c 3.06883,0 3.7339,4.06852 3.7339,4.35769 0,0.31911 -0.0855,0.6083 -0.13301,0.85758 l -2.37526,9.74248 c -0.23751,0.88749 -0.23751,0.97723 -0.95009,1.8348 -2.08072,2.73228 -4.01893,3.52005 -5.33958,3.52005 -2.36574,0 -3.0308,-2.7223 -3.0308,-4.66678 0,-2.48302 1.51066,-8.58576 2.59377,-10.87928 1.47265,-2.9317 3.61038,-4.76654 5.50107,-4.76654 l -0.0475,-1.09689 c -5.53908,0 -11.40119,7.29937 -11.40119,14.55888 0,4.67676 2.59378,7.94753 6.28966,7.94753 0.9406,0 3.31585,-0.20943 6.14715,-3.72948 0.38955,2.09409 2.03322,3.72948 4.30395,3.72948 1.66267,0 2.7458,-1.13679 3.50588,-2.73228 0.79808,-1.78496 1.42514,-4.82637 1.42514,-4.91611 0,-0.4986 -0.42754,-0.4986 -0.56057,-0.4986 -0.47504,0 -0.52254,0.19933 -0.67456,0.89747 -0.79808,3.23088 -1.66266,6.1526 -3.59137,6.1526 -1.27314,0 -1.42516,-1.28636 -1.42516,-2.28352 0,-1.18665 0.095,-1.54565 0.28503,-2.38326 z"
             inkscape:connector-curvature="0"
             style="fill:#000000;stroke-width:0" /><path
             id="path3369"
             d="m 533.9786,152.58101 0,-0.0202 0,-0.03 0,-0.008 0,-0.0203 -0.01,-0.008 0,-0.0201 -0.01,-0.008 0,-0.0202 -0.01,-0.0201 -0.01,-0.0202 -0.01,-0.0202 -0.019,-0.03 -0.01,-0.0202 -0.019,-0.03 -0.019,-0.03 -0.0285,-0.03 -0.019,-0.03 -0.0285,-0.0398 -0.019,-0.0203 -0.019,-0.0202 -0.01,-0.0202 -0.019,-0.0202 -0.019,-0.0202 -0.019,-0.03 -0.019,-0.0203 -0.019,-0.0201 -0.0285,-0.03 -0.019,-0.0202 -0.0285,-0.03 -0.019,-0.03 -0.0285,-0.03 -0.019,-0.03 -0.0285,-0.03 -0.0285,-0.03 -0.0285,-0.03 -0.038,-0.03 -0.0285,-0.0398 -0.0285,-0.03 -0.038,-0.0398 -0.038,-0.03 -0.0285,-0.0398 -0.038,-0.0398 c -5.90962,-6.2623 -7.42027,-15.64579 -7.42027,-23.24433 0,-8.64556 1.79569,-17.3011 7.61029,-23.50357 0.60806,-0.5983 0.60806,-0.69803 0.60806,-0.8476 0,-0.34902 -0.17101,-0.48861 -0.45604,-0.48861 -0.47505,0 -4.741,3.37046 -7.52479,9.67267 -2.42276,5.47451 -2.99281,10.98892 -2.99281,15.16711 0,3.87905 0.52254,9.8721 3.12582,15.49621 2.8313,6.11274 6.91673,9.33363 7.39178,9.33363 0.28503,0 0.45604,-0.13962 0.45604,-0.49859 z"
             inkscape:connector-curvature="0"
             style="fill:#000000;stroke-width:0" /><path
             id="path3371"
             d="m 542.79552,136.83551 5.02604,-5.11554 c 7.37278,-6.85064 10.22308,-9.53304 10.22308,-14.50899 0,-5.66398 -4.25645,-9.64276 -10.03306,-9.64276 -5.35856,0 -8.86442,4.58706 -8.86442,9.00457 0,2.78213 2.37524,2.78213 2.50826,2.78213 0.81708,0 2.46075,-0.5983 2.46075,-2.64254 0,-1.28637 -0.84559,-2.58271 -2.50827,-2.58271 -0.37053,0 -0.47505,0 -0.60806,0.05 1.08312,-3.23088 3.63889,-5.06569 6.38468,-5.06569 4.30395,0 6.35617,4.03858 6.35617,8.09712 0,3.97874 -2.37526,7.90765 -4.96903,10.98895 l -9.09246,10.62994 c -0.53204,0.5385 -0.53204,0.63822 -0.53204,1.83484 h 17.55783 l 1.33965,-8.64559 h -1.18762 c -0.23753,1.4958 -0.56057,3.6796 -1.03562,4.4275 -0.34203,0.38888 -3.45837,0.38888 -4.50348,0.38888 z"
             inkscape:connector-curvature="0"
             style="fill:#000000;stroke-width:0" /><path
             id="path3373"
             d="m 570.1014,140.61484 0,-0.29916 -0.01,-0.29914 -0.019,-0.28919 -0.019,-0.27926 -0.038,-0.26913 -0.0285,-0.25934 -0.0475,-0.25934 -0.0475,-0.24925 -0.057,-0.22933 -0.057,-0.22933 -0.0665,-0.21954 -0.076,-0.20943 -0.076,-0.19934 -0.0855,-0.19932 -0.095,-0.17944 -0.095,-0.16963 -0.10447,-0.15952 -0.10447,-0.15952 -0.11396,-0.13962 -0.11396,-0.12953 -0.12352,-0.12953 -0.12352,-0.10962 -0.13302,-0.0998 -0.13301,-0.0998 -0.14251,-0.0799 -0.15202,-0.0698 -0.15201,-0.0597 -0.15202,-0.0499 -0.16151,-0.0398 -0.16151,-0.03 -0.17104,-0.0202 -0.17101,0 c -1.55816,0 -2.50826,1.2465 -2.50826,2.63256 0,1.33624 0.9501,2.63258 2.50826,2.63258 0.57007,0 1.18764,-0.19933 1.66268,-0.63822 0.13301,-0.10962 0.19952,-0.15953 0.23753,-0.15953 0.0475,0 0.095,0.05 0.095,0.74787 0,3.6796 -1.65316,6.66118 -3.22083,8.29657 -0.52256,0.53846 -0.52256,0.64816 -0.52256,0.78777 0,0.35897 0.23753,0.54844 0.47506,0.54844 0.52254,0 4.30394,-3.81919 4.30394,-9.63278 z"
             inkscape:connector-curvature="0"
             style="fill:#000000;stroke-width:0" /><path
             id="path3375"
             d="m 595.38357,132.46787 v 4.31778 c 0,1.79495 -0.095,2.33342 -3.59138,2.33342 h -0.99761 v 1.54563 c 1.94772,-0.15952 4.40847,-0.15952 6.39419,-0.15952 1.9952,0 4.50347,0 6.43217,0.15952 v -1.54563 h -0.99761 c -3.49636,0 -3.59138,-0.53847 -3.59138,-2.33342 v -4.31778 h 4.73151 v -1.53566 h -4.73151 v -22.61609 c 0,-0.99719 0,-1.28637 -0.76007,-1.28637 -0.42755,0 -0.56056,0 -0.95011,0.60828 l -14.52703,23.29418 h 1.33015 l 11.55321,-18.52764 v 18.52764 h -11.55321 -1.33015 v 1.53566 z"
             inkscape:connector-curvature="0"
             style="fill:#000000;stroke-width:0" /><path
             id="path3377"
             d="m 618.85105,128.24977 0,-0.36895 0,-0.3889 -0.01,-0.38888 -0.01,-0.40886 -0.038,-0.83764 -0.057,-0.8775 -0.0855,-0.91741 -0.095,-0.94732 -0.13301,-0.97726 -0.15202,-0.99718 -0.19002,-1.01713 -0.21853,-1.02708 -0.24702,-1.05702 -0.29453,-1.04705 -0.33253,-1.06697 -0.37054,-1.06698 -0.19952,-0.52852 -0.21853,-0.5285 -0.22802,-0.52852 -0.23753,-0.52849 c -2.8313,-6.10277 -6.89772,-9.33363 -7.37277,-9.33363 -0.28504,0 -0.47505,0.18953 -0.47505,0.48863 0,0.14971 0,0.24924 0.88359,1.14673 4.65549,4.90616 7.35379,12.81381 7.35379,23.20443 0,8.48604 -1.7482,17.23133 -7.62932,23.49363 -0.60806,0.58831 -0.60806,0.69802 -0.60806,0.83761 0,0.29915 0.19001,0.4986 0.47505,0.4986 0.47505,0 4.72199,-3.38045 7.52479,-9.68263 2.40375,-5.4546 2.96431,-10.969 2.96431,-15.14721 z"
             inkscape:connector-curvature="0"
             style="fill:#000000;stroke-width:0" /><path
             id="path3379"
             d="m 656.05697,124.41062 0.13302,0 0.1425,0 0.13302,0 0.076,-0.008 0.0666,0 0.0665,-0.008 0.0665,-0.008 0.0665,-0.008 0.0666,-0.008 0.0665,-0.008 0.0665,-0.0202 0.057,-0.0202 0.057,-0.0202 0.057,-0.0202 0.057,-0.03 0.057,-0.03 0.0475,-0.0398 0.0475,-0.0398 0.0475,-0.0398 0.038,-0.0398 0.038,-0.0499 0.019,-0.03 0.019,-0.03 0.01,-0.0202 0.019,-0.03 0.01,-0.0398 0.019,-0.03 0.01,-0.03 0.01,-0.0398 0.01,-0.03 0.01,-0.0398 0.01,-0.0398 0,-0.0398 0.01,-0.0398 0,-0.0398 0,-0.05 0,-0.0398 c 0,-0.99716 -0.9026,-0.99716 -1.55818,-0.99716 h -28.35098 c -0.67456,0 -1.55816,0 -1.55816,0.99716 0,0.97724 0.8836,0.97724 1.59617,0.97724 z"
             inkscape:connector-curvature="0"
             style="fill:#000000;stroke-width:0" /><path
             id="path3381"
             d="m 656.10446,134.06336 0.0666,-0.008 0.057,0 0.13301,0 0.13302,0 0.0665,-0.008 0.0665,0 0.0665,-0.008 0.0666,-0.008 0.057,-0.008 0.0665,-0.008 0.0665,-0.008 0.057,-0.0202 0.0665,-0.0202 0.057,-0.0203 0.057,-0.0202 0.057,-0.03 0.0475,-0.03 0.0475,-0.0398 0.0475,-0.0398 0.0475,-0.0398 0.038,-0.0499 0.019,-0.0202 0.019,-0.03 0.019,-0.0202 0.019,-0.03 0.01,-0.03 0.019,-0.03 0.01,-0.03 0.019,-0.0398 0.01,-0.03 0.01,-0.03 0.01,-0.0398 0.01,-0.0398 0.01,-0.0398 0,-0.0398 0.01,-0.0398 0,-0.0398 0,-0.05 0,-0.0398 c 0,-0.99717 -0.9026,-0.99717 -1.60567,-0.99717 h -28.26548 c -0.71257,0 -1.59617,0 -1.59617,0.99717 0,0.9972 0.8836,0.9972 1.55815,0.9972 z"
             inkscape:connector-curvature="0"
             style="fill:#000000;stroke-width:0" /><path
             id="path3383"
             d="m 666.37505,136.83551 5.01654,-5.11554 c 7.37277,-6.85064 10.22306,-9.53304 10.22306,-14.50899 0,-5.66398 -4.25643,-9.64276 -10.03305,-9.64276 -5.35856,0 -8.86444,4.58706 -8.86444,9.00457 0,2.78213 2.37526,2.78213 2.50827,2.78213 0.81708,0 2.47026,-0.5983 2.47026,-2.64254 0,-1.28637 -0.84559,-2.58271 -2.50827,-2.58271 -0.38003,0 -0.47504,0 -0.61756,0.05 1.09262,-3.23088 3.63888,-5.06569 6.38468,-5.06569 4.30395,0 6.35615,4.03858 6.35615,8.09712 0,3.97874 -2.37524,7.90765 -4.96901,10.98895 l -9.08296,10.62994 c -0.54156,0.5385 -0.54156,0.63822 -0.54156,1.83484 h 17.56735 l 1.33014,-8.64559 h -1.18763 c -0.23752,1.4958 -0.56054,3.6796 -1.0356,4.4275 -0.34204,0.38888 -3.45836,0.38888 -4.49398,0.38888 z"
             inkscape:connector-curvature="0"
             style="fill:#000000;stroke-width:0" /><path
             id="path3385"
             d="m 510.2451,166.32217 0,0 0,0 0,-0.008 0,-0.008 0,-0.0203 0,-0.008 0,-0.0202 0,-0.008 -0.01,-0.0202 0,-0.0202 -0.01,-0.03 0,-0.0202 -0.01,-0.0203 -0.01,-0.03 -0.01,-0.0202 -0.01,-0.03 -0.019,-0.0202 -0.01,-0.0203 -0.019,-0.03 -0.019,-0.0201 -0.019,-0.03 -0.019,-0.008 -0.01,-0.008 -0.01,-0.008 -0.019,-0.008 -0.01,-0.008 -0.019,-0.008 -0.01,-0.008 -0.019,-0.008 -0.019,-0.008 -0.01,0 -0.019,-0.008 -0.019,-0.008 -0.019,-0.008 -0.019,0 -0.019,-0.008 -0.0285,0 -0.019,-0.008 -0.0285,0 -0.019,-0.008 -0.0285,0 -0.019,0 -0.0285,0 -0.0285,-0.008 -0.0285,0 c -0.71259,0 -5.20656,0.4587 -6.01414,0.54845 -0.38004,0.05 -0.66508,0.29917 -0.66508,0.94735 0,0.59829 0.42755,0.59829 1.14013,0.59829 2.27074,0 2.36575,0.33904 2.36575,0.83764 l -0.13302,0.99717 -2.85029,11.77671 c -0.8456,-1.83481 -2.23275,-3.17102 -4.35148,-3.17102 l 0.0475,1.08691 c 3.06883,0 3.7339,4.06852 3.7339,4.36767 0,0.30913 -0.0855,0.5983 -0.13301,0.8476 l -2.37526,9.74247 c -0.23751,0.88749 -0.23751,0.97724 -0.95009,1.83481 -2.08072,2.73228 -4.01893,3.53003 -5.33958,3.53003 -2.36574,0 -3.0308,-2.73228 -3.0308,-4.6768 0,-2.48298 1.51066,-8.58572 2.59377,-10.87924 1.47265,-2.9317 3.61038,-4.76654 5.50107,-4.76654 l -0.0475,-1.08691 c -5.53908,0 -11.40119,7.28939 -11.40119,14.5489 0,4.67676 2.59378,7.94753 6.28966,7.94753 0.9406,0 3.31585,-0.19934 6.14715,-3.72948 0.38955,2.09409 2.03322,3.72948 4.30395,3.72948 1.66267,0 2.7458,-1.13679 3.50588,-2.73228 0.79808,-1.78496 1.42514,-4.82637 1.42514,-4.91611 0,-0.4986 -0.42754,-0.4986 -0.56057,-0.4986 -0.47504,0 -0.52254,0.19933 -0.67456,0.89747 -0.79808,3.23088 -1.66266,6.16258 -3.59137,6.16258 -1.27314,0 -1.42516,-1.29634 -1.42516,-2.29352 0,-1.18666 0.095,-1.54563 0.28503,-2.38328 z"
             inkscape:connector-curvature="0"
             style="fill:#000000;stroke-width:0" /><path
             id="path3387"
             d="m 533.9786,212.18259 0,-0.03 0,-0.03 0,-0.008 0,-0.0202 -0.01,-0.008 0,-0.0202 -0.01,-0.008 0,-0.0202 -0.01,-0.0202 -0.01,-0.0202 -0.01,-0.0202 -0.019,-0.03 -0.01,-0.0203 -0.019,-0.03 -0.019,-0.03 -0.0285,-0.03 -0.019,-0.03 -0.0285,-0.0398 -0.019,-0.0201 -0.019,-0.0203 -0.01,-0.0201 -0.019,-0.0202 -0.019,-0.0203 -0.019,-0.0202 -0.019,-0.03 -0.019,-0.0202 -0.0285,-0.03 -0.019,-0.0203 -0.0285,-0.03 -0.019,-0.03 -0.0285,-0.03 -0.019,-0.0202 -0.0285,-0.03 -0.0285,-0.0398 -0.0285,-0.03 -0.038,-0.03 -0.0285,-0.03 -0.0285,-0.0398 -0.038,-0.0398 -0.038,-0.03 -0.0285,-0.0398 -0.038,-0.0398 c -5.90962,-6.26231 -7.42027,-15.64581 -7.42027,-23.24432 0,-8.64557 1.79569,-17.30111 7.61029,-23.49361 0.60806,-0.60828 0.60806,-0.708 0.60806,-0.85757 0,-0.34902 -0.17101,-0.48861 -0.45604,-0.48861 -0.47505,0 -4.741,3.37046 -7.52479,9.68261 -2.42276,5.46457 -2.99281,10.97897 -2.99281,15.15718 0,3.87904 0.52254,9.88206 3.12582,15.50618 2.8313,6.10275 6.91673,9.33363 7.39178,9.33363 0.28503,0 0.45604,-0.14972 0.45604,-0.4986 z"
             inkscape:connector-curvature="0"
             style="fill:#000000;stroke-width:0" /><path
             id="path3389"
             d="m 542.79552,196.4271 5.02604,-5.11553 c 7.37278,-6.85065 10.22308,-9.53305 10.22308,-14.49901 0,-5.67399 -4.25645,-9.65274 -10.03306,-9.65274 -5.35856,0 -8.86442,4.58705 -8.86442,9.01452 0,2.77217 2.37524,2.77217 2.50826,2.77217 0.81708,0 2.46075,-0.59832 2.46075,-2.63255 0,-1.29634 -0.84559,-2.59269 -2.50827,-2.59269 -0.37053,0 -0.47505,0 -0.60806,0.05 1.08312,-3.23088 3.63889,-5.06569 6.38468,-5.06569 4.30395,0 6.35617,4.03858 6.35617,8.10709 0,3.96877 -2.37526,7.89767 -4.96903,10.97897 l -9.09246,10.62995 c -0.53204,0.53849 -0.53204,0.63819 -0.53204,1.83481 h 17.55783 l 1.33965,-8.64557 h -1.18762 c -0.23753,1.49577 -0.56057,3.6796 -1.03562,4.4275 -0.34203,0.3889 -3.45837,0.3889 -4.50348,0.3889 z"
             inkscape:connector-curvature="0"
             style="fill:#000000;stroke-width:0" /><path
             id="path3391"
             d="m 570.1014,200.21641 0,-0.30912 -0.01,-0.29916 -0.019,-0.28919 -0.019,-0.27924 -0.038,-0.26915 -0.0285,-0.25934 -0.0475,-0.25934 -0.0475,-0.23943 -0.057,-0.23944 -0.057,-0.22933 -0.0665,-0.21953 -0.076,-0.20943 -0.076,-0.19933 -0.0855,-0.18953 -0.095,-0.18953 -0.095,-0.16962 -0.10447,-0.15953 -0.10447,-0.15953 -0.11396,-0.13962 -0.11396,-0.12952 -0.12352,-0.12953 -0.12352,-0.10961 -0.13302,-0.0998 -0.13301,-0.0897 -0.14251,-0.0898 -0.15202,-0.0698 -0.15201,-0.0597 -0.15202,-0.05 -0.16151,-0.0398 -0.16151,-0.03 -0.17104,-0.008 -0.17101,-0.008 c -1.55816,0 -2.50826,1.24647 -2.50826,2.63256 0,1.33623 0.9501,2.63255 2.50826,2.63255 0.57007,0 1.18764,-0.19934 1.66268,-0.63819 0.13301,-0.10962 0.19952,-0.15952 0.23753,-0.15952 0.0475,0 0.095,0.05 0.095,0.75788 0,3.66961 -1.65316,6.65119 -3.22083,8.28658 -0.52256,0.53846 -0.52256,0.64817 -0.52256,0.78776 0,0.35898 0.23753,0.54845 0.47506,0.54845 0.52254,0 4.30394,-3.81919 4.30394,-9.62279 z"
             inkscape:connector-curvature="0"
             style="fill:#000000;stroke-width:0" /><path
             id="path3393"
             d="m 602.72784,190.2745 -0.01,-0.55842 -0.038,-0.53847 -0.0475,-0.5385 -0.0855,-0.5285 -0.095,-0.52849 -0.11396,-0.50858 -0.14252,-0.4986 -0.15201,-0.49856 -0.18052,-0.47867 -0.19003,-0.46868 -0.21851,-0.44873 -0.22803,-0.44871 -0.24702,-0.42879 -0.25654,-0.40886 -0.28503,-0.39887 -0.29453,-0.37894 -0.30403,-0.35897 -0.32304,-0.34903 -0.34202,-0.31908 -0.35155,-0.30913 -0.36103,-0.2892 -0.38006,-0.25934 -0.38953,-0.24923 -0.39904,-0.21953 -0.40854,-0.19934 -0.42754,-0.16962 -0.42755,-0.14943 -0.44654,-0.11972 -0.44655,-0.0998 -0.45605,-0.0698 -0.47505,-0.0498 -0.47506,-0.008 c -2.27073,0 -4.30394,0.79775 -6.00463,2.52288 v -9.67268 c 0.95011,0.28921 2.49878,0.63823 4.01892,0.63823 5.81462,0 9.13047,-4.51724 9.13047,-5.1754 0,-0.29914 -0.13301,-0.54844 -0.47505,-0.54844 -0.0475,0 -0.13301,0 -0.37054,0.15952 -0.95009,0.44873 -3.26835,1.43594 -6.44168,1.43594 -1.89069,0 -4.07592,-0.34903 -6.29916,-1.38609 -0.37054,-0.13962 -0.47506,-0.13962 -0.56056,-0.13962 -0.47505,0 -0.47505,0.38889 -0.47505,1.17666 v 14.70844 c 0,0.88749 0,1.29635 0.66507,1.29635 0.33254,0 0.41805,-0.14972 0.60806,-0.44876 0.52256,-0.79774 2.27075,-3.48014 6.09964,-3.48014 2.47027,0 3.6579,2.29351 4.02844,3.181 0.76958,1.8348 0.85507,3.76934 0.85507,6.2623 0,1.73512 0,4.72665 -1.14011,6.81075 -1.13062,1.93453 -2.87881,3.2209 -5.06404,3.2209 -3.45836,0 -6.14714,-2.63255 -6.95472,-5.5543 0.14251,0.0398 0.29452,0.0897 0.80758,0.0897 1.56766,0 2.36575,-1.24646 2.36575,-2.4331 0,-1.19662 -0.79809,-2.42315 -2.36575,-2.42315 -0.66507,0 -2.32775,0.33904 -2.32775,2.63256 0,4.26793 3.26835,9.08432 8.57941,9.08432 5.48208,0 10.31808,-4.77652 10.31808,-11.0787 z"
             inkscape:connector-curvature="0"
             style="fill:#000000;stroke-width:0" /><path
             id="path3395"
             d="m 618.85105,187.84138 0,-0.36897 0,-0.38888 -0.01,-0.38893 -0.01,-0.40882 -0.038,-0.83764 -0.057,-0.87751 -0.0855,-0.91741 -0.095,-0.94735 -0.13301,-0.96725 -0.15202,-0.99719 -0.19002,-1.02708 -0.21853,-1.02712 -0.24702,-1.04702 -0.29453,-1.05702 -0.33253,-1.06698 -0.37054,-1.05702 -0.19952,-0.53847 -0.21853,-0.52851 -0.22802,-0.52852 -0.23753,-0.52851 c -2.8313,-6.10275 -6.89772,-9.33359 -7.37277,-9.33359 -0.28504,0 -0.47505,0.18952 -0.47505,0.48861 0,0.14971 0,0.24924 0.88359,1.14675 4.65549,4.90612 7.35379,12.81379 7.35379,23.20443 0,8.48603 -1.7482,17.23128 -7.62932,23.49359 -0.60806,0.58835 -0.60806,0.69805 -0.60806,0.84762 0,0.28917 0.19001,0.4986 0.47505,0.4986 0.47505,0 4.72199,-3.39043 7.52479,-9.69263 2.40375,-5.45458 2.96431,-10.96899 2.96431,-15.14718 z"
             inkscape:connector-curvature="0"
             style="fill:#000000;stroke-width:0" /><path
             id="path3397"
             d="m 656.05697,184.00221 0.13302,0 0.1425,0 0.13302,0 0.076,-0.008 0.0666,0 0.0665,-0.008 0.0665,-0.008 0.0665,0 0.0666,-0.0202 0.0665,-0.008 0.0665,-0.0203 0.057,-0.0202 0.057,-0.0202 0.057,-0.0203 0.057,-0.03 0.057,-0.03 0.0475,-0.0398 0.0475,-0.03 0.0475,-0.0398 0.038,-0.05 0.038,-0.0499 0.019,-0.03 0.019,-0.0202 0.01,-0.03 0.019,-0.03 0.01,-0.03 0.019,-0.0398 0.01,-0.03 0.01,-0.03 0.01,-0.0398 0.01,-0.0398 0.01,-0.0398 0,-0.0398 0.01,-0.0398 0,-0.0398 0,-0.0398 0,-0.0499 c 0,-0.99716 -0.9026,-0.99716 -1.55818,-0.99716 h -28.35098 c -0.67456,0 -1.55816,0 -1.55816,0.99716 0,0.97724 0.8836,0.97724 1.59617,0.97724 z"
             inkscape:connector-curvature="0"
             style="fill:#000000;stroke-width:0" /><path
             id="path3399"
             d="m 656.10446,193.65496 0.0666,0 0.057,0 0.13301,0 0.13302,-0.008 0.0665,0 0.0665,-0.008 0.0665,-0.008 0.0666,0 0.057,-0.008 0.0665,-0.0202 0.0665,-0.008 0.057,-0.0202 0.0665,-0.0202 0.057,-0.0201 0.057,-0.0202 0.057,-0.03 0.0475,-0.03 0.0475,-0.0398 0.0475,-0.0398 0.0475,-0.0398 0.038,-0.0398 0.019,-0.03 0.019,-0.0201 0.019,-0.03 0.019,-0.03 0.01,-0.03 0.019,-0.03 0.01,-0.03 0.019,-0.03 0.01,-0.0398 0.01,-0.03 0.01,-0.0398 0.01,-0.0398 0.01,-0.0398 0,-0.0398 0.01,-0.0398 0,-0.0398 0,-0.0499 0,-0.0398 c 0,-0.99716 -0.9026,-0.99716 -1.60567,-0.99716 h -28.26548 c -0.71257,0 -1.59617,0 -1.59617,0.99716 0,0.9972 0.8836,0.9972 1.55815,0.9972 z"
             inkscape:connector-curvature="0"
             style="fill:#000000;stroke-width:0" /><path
             id="path3401"
             d="m 674.27038,168.45617 0,-0.0499 0,-0.0597 0,-0.0499 0,-0.0499 0,-0.05 0,-0.05 0,-0.0398 0,-0.0499 -0.01,-0.0398 0,-0.0398 0,-0.0398 0,-0.0398 0,-0.0398 0,-0.03 -0.01,-0.0398 0,-0.03 -0.01,-0.0698 -0.01,-0.0597 -0.01,-0.05 -0.01,-0.05 -0.019,-0.05 -0.019,-0.0398 -0.019,-0.0398 -0.019,-0.03 -0.0285,-0.03 -0.0285,-0.03 -0.038,-0.03 -0.038,-0.0201 -0.038,-0.0201 -0.0285,-0.008 -0.019,0 -0.0285,-0.008 -0.0285,-0.008 -0.019,0 -0.0285,-0.008 -0.0285,-0.008 -0.038,0 -0.0285,0 -0.0285,-0.008 -0.038,0 -0.038,0 -0.038,-0.008 -0.038,0 -0.038,0 -0.038,0 -0.0475,0 -0.038,0 -0.0475,-0.008 -0.0475,0 -0.0475,0 -0.0475,0 c -2.94532,3.18099 -7.09725,3.18099 -8.61742,3.18099 v 1.54565 c 0.9501,0 3.7434,0 6.19466,-1.29634 v 25.73728 c 0,1.79491 -0.13302,2.39324 -4.38947,2.39324 h -1.52016 v 1.53564 c 1.66268,-0.14973 5.77661,-0.14973 7.66732,-0.14973 1.90019,0 6.00463,0 7.66731,0.14973 v -1.53564 h -1.51066 c -4.25646,0 -4.40848,-0.54848 -4.40848,-2.39324 z"
             inkscape:connector-curvature="0"
             style="fill:#000000;stroke-width:0" /><path
             id="path3403"
             d="m 510.2451,225.91378 0,0 0,-0.008 0,-0.008 0,-0.008 0,-0.008 0,-0.008 0,-0.0201 0,-0.0202 -0.01,-0.0202 0,-0.0202 -0.01,-0.0202 0,-0.0201 -0.01,-0.0202 -0.01,-0.03 -0.01,-0.0203 -0.01,-0.03 -0.019,-0.0202 -0.01,-0.03 -0.019,-0.0201 -0.019,-0.0203 -0.019,-0.03 -0.019,-0.008 -0.01,-0.008 -0.01,-0.008 -0.019,-0.008 -0.01,-0.008 -0.019,-0.008 -0.01,-0.008 -0.019,-0.008 -0.019,-0.008 -0.01,-0.008 -0.019,0 -0.019,-0.008 -0.019,-0.008 -0.019,-0.008 -0.019,0 -0.0285,-0.008 -0.019,0 -0.0285,-0.008 -0.019,0 -0.0285,0 -0.019,0 -0.0285,-0.008 -0.0285,0 -0.0285,0 c -0.71259,0 -5.20656,0.44874 -6.01414,0.54845 -0.38004,0.0499 -0.66508,0.29917 -0.66508,0.94732 0,0.59831 0.42755,0.59831 1.14013,0.59831 2.27074,0 2.36575,0.33905 2.36575,0.83765 l -0.13302,0.99716 -2.85029,11.77672 c -0.8456,-1.83481 -2.23275,-3.18101 -4.35148,-3.18101 l 0.0475,1.0969 c 3.06883,0 3.7339,4.06852 3.7339,4.35768 0,0.31912 -0.0855,0.60828 -0.13301,0.85758 l -2.37526,9.74248 c -0.23751,0.88749 -0.23751,0.97724 -0.95009,1.83481 -2.08072,2.73228 -4.01893,3.52005 -5.33958,3.52005 -2.36574,0 -3.0308,-2.7223 -3.0308,-4.67678 0,-2.47302 1.51066,-8.57577 2.59377,-10.86928 1.47265,-2.93173 3.61038,-4.76654 5.50107,-4.76654 l -0.0475,-1.0969 c -5.53908,0 -11.40119,7.29937 -11.40119,14.55885 0,4.66681 2.59378,7.94754 6.28966,7.94754 0.9406,0 3.31585,-0.20943 6.14715,-3.72945 0.38955,2.09409 2.03322,3.72945 4.30395,3.72945 1.66267,0 2.7458,-1.13677 3.50588,-2.73228 0.79808,-1.79491 1.42514,-4.82634 1.42514,-4.91609 0,-0.49859 -0.42754,-0.49859 -0.56057,-0.49859 -0.47504,0 -0.52254,0.19933 -0.67456,0.89747 -0.79808,3.22089 -1.66266,6.1526 -3.59137,6.1526 -1.27314,0 -1.42516,-1.28637 -1.42516,-2.28353 0,-1.18667 0.095,-1.54565 0.28503,-2.39325 z"
             inkscape:connector-curvature="0"
             style="fill:#000000;stroke-width:0" /><path
             id="path3405"
             d="m 533.9786,271.7642 0,-0.0201 0,-0.03 0,-0.008 0,-0.0202 -0.01,-0.008 0,-0.0202 -0.01,-0.0201 0,-0.008 -0.01,-0.0202 -0.01,-0.0202 -0.01,-0.0202 -0.019,-0.03 -0.01,-0.0202 -0.019,-0.03 -0.019,-0.03 -0.0285,-0.03 -0.019,-0.03 -0.0285,-0.0398 -0.019,-0.0202 -0.019,-0.0202 -0.01,-0.0202 -0.019,-0.0202 -0.019,-0.0202 -0.019,-0.03 -0.019,-0.0201 -0.019,-0.0202 -0.0285,-0.03 -0.019,-0.0201 -0.0285,-0.03 -0.019,-0.03 -0.0285,-0.03 -0.019,-0.03 -0.0285,-0.03 -0.0285,-0.03 -0.0285,-0.03 -0.038,-0.03 -0.0285,-0.0398 -0.0285,-0.03 -0.038,-0.0398 -0.038,-0.03 -0.0285,-0.0398 -0.038,-0.0398 c -5.90962,-6.26231 -7.42027,-15.64578 -7.42027,-23.2443 0,-8.65555 1.79569,-17.3011 7.61029,-23.50358 0.60806,-0.60827 0.60806,-0.69801 0.60806,-0.85757 0,-0.33905 -0.17101,-0.47867 -0.45604,-0.47867 -0.47505,0 -4.741,3.37051 -7.52479,9.67268 -2.42276,5.47453 -2.99281,10.98894 -2.99281,15.16714 0,3.87905 0.52254,9.8721 3.12582,15.49621 2.8313,6.11273 6.91673,9.33363 7.39178,9.33363 0.28503,0 0.45604,-0.13962 0.45604,-0.4986 z"
             inkscape:connector-curvature="0"
             style="fill:#000000;stroke-width:0" /><path
             id="path3407"
             d="m 550.51985,242.36728 0.36104,-0.12952 0.35153,-0.14972 0.34204,-0.15953 0.34203,-0.15952 0.33253,-0.17944 0.32304,-0.18952 0.31354,-0.20944 0.30402,-0.20943 0.29454,-0.21924 0.28503,-0.22933 0.27552,-0.23944 0.27554,-0.24924 0.25653,-0.25933 0.24702,-0.26915 0.22802,-0.27924 0.22803,-0.27924 0.21851,-0.28917 0.19953,-0.29918 0.19003,-0.30912 0.18051,-0.30911 0.16152,-0.31911 0.15201,-0.3191 0.14252,-0.32907 0.12351,-0.33904 0.11396,-0.33905 0.095,-0.34902 0.0855,-0.34899 0.0665,-0.34903 0.057,-0.35898 0.038,-0.35898 0.0285,-0.36895 0.01,-0.35901 c 0,-4.06849 -4.17094,-6.8606 -8.72193,-6.8606 -4.779,0 -8.37038,2.99154 -8.37038,6.76091 0,1.63535 1.04511,2.59265 2.42276,2.59265 1.45366,0 2.40375,-1.09689 2.40375,-2.5428 0,-2.473 -2.22322,-2.473 -2.92631,-2.473 1.45366,-2.43314 4.58899,-3.09129 6.29917,-3.09129 1.9287,0 4.54149,1.09692 4.54149,5.56429 0,0.60827 -0.10447,3.47019 -1.33965,5.67396 -1.40615,2.38325 -3.03083,2.52288 -4.19945,2.58271 -0.38004,0.0498 -1.51066,0.13962 -1.85269,0.13962 -0.37054,0.0499 -0.71258,0.0998 -0.71258,0.59832 0,0.53846 0.34204,0.53846 1.14012,0.53846 h 2.08073 c 3.88591,0 5.64359,3.38045 5.64359,8.25667 0,6.75092 -3.26834,8.19685 -5.36807,8.19685 -2.02372,0 -5.57708,-0.83765 -7.22076,-3.76936 1.64368,0.23944 3.11634,-0.85756 3.11634,-2.74225 0,-1.78496 -1.28264,-2.77215 -2.66029,-2.77215 -1.13061,0 -2.64127,0.68804 -2.64127,2.88186 0,4.51721 4.38946,7.78798 9.558,7.78798 5.77661,0 10.08056,-4.51724 10.08056,-9.58293 0,-4.07847 -2.98331,-7.93756 -7.89533,-8.9846 z"
             inkscape:connector-curvature="0"
             style="fill:#000000;stroke-width:0" /><path
             id="path3409"
             d="m 570.1014,259.79802 0,-0.29914 -0.01,-0.29918 -0.019,-0.28917 -0.019,-0.27924 -0.038,-0.26915 -0.0285,-0.25934 -0.0475,-0.25933 -0.0475,-0.24924 -0.057,-0.22934 -0.057,-0.22934 -0.0665,-0.21924 -0.076,-0.20943 -0.076,-0.19933 -0.0855,-0.19934 -0.095,-0.17943 -0.095,-0.16962 -0.10447,-0.15953 -0.10447,-0.15952 -0.11396,-0.13963 -0.11396,-0.12952 -0.12352,-0.12952 -0.12352,-0.10963 -0.13302,-0.0998 -0.13301,-0.0998 -0.14251,-0.0799 -0.15202,-0.0698 -0.15201,-0.0597 -0.15202,-0.05 -0.16151,-0.0398 -0.16151,-0.03 -0.17104,-0.0202 -0.17101,0 c -1.55816,0 -2.50826,1.24646 -2.50826,2.63256 0,1.33623 0.9501,2.63255 2.50826,2.63255 0.57007,0 1.18764,-0.19934 1.66268,-0.63819 0.13301,-0.10963 0.19952,-0.15952 0.23753,-0.15952 0.0475,0 0.095,0.0498 0.095,0.74788 0,3.6796 -1.65316,6.66119 -3.22083,8.28659 -0.52256,0.54845 -0.52256,0.65813 -0.52256,0.79775 0,0.35898 0.23753,0.54845 0.47506,0.54845 0.52254,0 4.30394,-3.81922 4.30394,-9.63279 z"
             inkscape:connector-curvature="0"
             style="fill:#000000;stroke-width:0" /><path
             id="path3411"
             d="m 602.72784,249.85611 -0.01,-0.54844 -0.038,-0.5385 -0.0475,-0.53845 -0.0855,-0.52852 -0.095,-0.52851 -0.11396,-0.50855 -0.14252,-0.50856 -0.15201,-0.48864 -0.18052,-0.47864 -0.19003,-0.46868 -0.21851,-0.4587 -0.22803,-0.43874 -0.24702,-0.42879 -0.25654,-0.40885 -0.28503,-0.39887 -0.29453,-0.37895 -0.30403,-0.35897 -0.32304,-0.34902 -0.34202,-0.32907 -0.35155,-0.29914 -0.36103,-0.28919 -0.38006,-0.26915 -0.38953,-0.23944 -0.39904,-0.21924 -0.40854,-0.19933 -0.42754,-0.16962 -0.42755,-0.14973 -0.44654,-0.12952 -0.44655,-0.0897 -0.45605,-0.0698 -0.47505,-0.05 -0.47506,-0.008 c -2.27073,0 -4.30394,0.78778 -6.00463,2.52287 V 231.839 c 0.95011,0.28919 2.49878,0.63819 4.01892,0.63819 5.81462,0 9.13047,-4.51722 9.13047,-5.17536 0,-0.29916 -0.13301,-0.54845 -0.47505,-0.54845 -0.0475,0 -0.13301,0 -0.37054,0.15953 -0.95009,0.44871 -3.26835,1.43593 -6.44168,1.43593 -1.89069,0 -4.07592,-0.34902 -6.29916,-1.38608 -0.37054,-0.14973 -0.47506,-0.14973 -0.56056,-0.14973 -0.47505,0 -0.47505,0.39888 -0.47505,1.18664 v 14.70845 c 0,0.88749 0,1.29634 0.66507,1.29634 0.33254,0 0.41805,-0.15952 0.60806,-0.44875 0.52256,-0.79774 2.27075,-3.48015 6.09964,-3.48015 2.47027,0 3.6579,2.29351 4.02844,3.181 0.76958,1.83481 0.85507,3.76934 0.85507,6.26231 0,1.73508 0,4.72664 -1.14011,6.81075 -1.13062,1.93453 -2.87881,3.2209 -5.06404,3.2209 -3.45836,0 -6.14714,-2.63256 -6.95472,-5.55431 0.14251,0.0398 0.29452,0.0898 0.80758,0.0898 1.56766,0 2.36575,-1.24647 2.36575,-2.43313 0,-1.19663 -0.79809,-2.43311 -2.36575,-2.43311 -0.66507,0 -2.32775,0.34899 -2.32775,2.63256 0,4.26793 3.26835,9.08432 8.57941,9.08432 5.48208,0 10.31808,-4.76654 10.31808,-11.07868 z"
             inkscape:connector-curvature="0"
             style="fill:#000000;stroke-width:0" /><path
             id="path3413"
             d="m 618.85105,247.43297 0,-0.36896 0,-0.38889 -0.01,-0.38892 -0.01,-0.40883 -0.038,-0.83764 -0.057,-0.87751 -0.0855,-0.91743 -0.095,-0.94732 -0.13301,-0.97724 -0.15202,-0.99716 -0.19002,-1.01713 -0.21853,-1.02711 -0.24702,-1.057 -0.29453,-1.04704 -0.33253,-1.06698 -0.37054,-1.067 -0.19952,-0.52849 -0.21853,-0.52852 -0.22802,-0.52851 -0.23753,-0.52851 c -2.8313,-6.11271 -6.89772,-9.33363 -7.37277,-9.33363 -0.28504,0 -0.47505,0.18953 -0.47505,0.47867 0,0.15952 0,0.24923 0.88359,1.15672 4.65549,4.90613 7.35379,12.80383 7.35379,23.20443 0,8.486 -1.7482,17.23129 -7.62932,23.49359 -0.60806,0.58835 -0.60806,0.69805 -0.60806,0.83764 0,0.29916 0.19001,0.49861 0.47505,0.49861 0.47505,0 4.72199,-3.38046 7.52479,-9.69261 2.40375,-5.45461 2.96431,-10.96902 2.96431,-15.13723 z"
             inkscape:connector-curvature="0"
             style="fill:#000000;stroke-width:0" /><path
             id="path3415"
             d="m 656.05697,243.59382 0.13302,0 0.1425,0 0.13302,0 0.076,-0.008 0.0666,0 0.0665,-0.008 0.0665,-0.008 0.0665,-0.008 0.0666,-0.008 0.0665,-0.008 0.0665,-0.0203 0.057,-0.0202 0.057,-0.0201 0.057,-0.0203 0.057,-0.03 0.057,-0.03 0.0475,-0.0398 0.0475,-0.0398 0.0475,-0.0398 0.038,-0.0398 0.038,-0.05 0.019,-0.03 0.019,-0.03 0.01,-0.03 0.019,-0.03 0.01,-0.03 0.019,-0.03 0.01,-0.03 0.01,-0.0398 0.01,-0.03 0.01,-0.0398 0.01,-0.0398 0,-0.0398 0.01,-0.0398 0,-0.0398 0,-0.05 0,-0.0398 c 0,-0.9972 -0.9026,-0.9972 -1.55818,-0.9972 h -28.35098 c -0.67456,0 -1.55816,0 -1.55816,0.9972 0,0.97723 0.8836,0.97723 1.59617,0.97723 z"
             inkscape:connector-curvature="0"
             style="fill:#000000;stroke-width:0" /><path
             id="path3417"
             d="m 656.10446,253.24652 0.0666,-0.008 0.057,0 0.13301,0 0.13302,0 0.0665,-0.008 0.0665,0 0.0665,-0.008 0.0666,-0.008 0.057,-0.008 0.0665,-0.008 0.0665,-0.008 0.057,-0.0201 0.0665,-0.0202 0.057,-0.0203 0.057,-0.0202 0.057,-0.03 0.0475,-0.03 0.0475,-0.0398 0.0475,-0.0398 0.0475,-0.0398 0.038,-0.05 0.019,-0.0202 0.019,-0.03 0.019,-0.0202 0.019,-0.03 0.01,-0.03 0.019,-0.03 0.01,-0.03 0.019,-0.0398 0.01,-0.03 0.01,-0.03 0.01,-0.0398 0.01,-0.0398 0.01,-0.0398 0,-0.0398 0.01,-0.0398 0,-0.0398 0,-0.05 0,-0.0398 c 0,-0.99719 -0.9026,-0.99719 -1.60567,-0.99719 h -28.26548 c -0.71257,0 -1.59617,0 -1.59617,0.99719 0,0.99718 0.8836,0.99718 1.55815,0.99718 z"
             inkscape:connector-curvature="0"
             style="fill:#000000;stroke-width:0" /><path
             id="path3419"
             d="m 674.27038,251.65104 v 4.31781 c 0,1.79491 -0.0855,2.33341 -3.59138,2.33341 h -0.9976 v 1.54561 c 1.9477,-0.15952 4.40847,-0.15952 6.40368,-0.15952 1.98571,0 4.49396,0 6.42267,0.15952 v -1.54561 h -0.99761 c -3.49636,0 -3.59138,-0.5385 -3.59138,-2.33341 v -4.31781 h 4.74101 v -1.54562 h -4.74101 v -22.60611 c 0,-0.9972 0,-1.28636 -0.76007,-1.28636 -0.42755,0 -0.56056,0 -0.95011,0.5983 l -14.52701,23.29417 h 1.33964 l 11.5437,-18.51768 v 18.51768 h -11.5437 -1.33964 v 1.54562 z"
             inkscape:connector-curvature="0"
             style="fill:#000000;stroke-width:0" /><path
             id="path3421"
             d="m 510.2451,285.62205 0,-0.002 0,-0.003 0,-0.008 0,-0.008 0,-0.0115 0,-0.0144 0,-0.0173 0,-0.0173 -0.01,-0.0202 0,-0.0202 -0.01,-0.0203 0,-0.023 -0.01,-0.023 -0.01,-0.023 -0.01,-0.026 -0.01,-0.023 -0.019,-0.026 -0.01,-0.023 -0.019,-0.023 -0.019,-0.023 -0.019,-0.023 -0.019,-0.0115 -0.01,-0.0115 -0.01,-0.0115 -0.019,-0.008 -0.01,-0.008 -0.019,-0.008 -0.01,-0.008 -0.019,-0.008 -0.019,-0.008 -0.01,-0.008 -0.019,-0.008 -0.019,-0.006 -0.019,-0.006 -0.019,-0.006 -0.019,-0.006 -0.0285,-0.006 -0.019,-0.006 -0.0285,-0.003 -0.019,-0.003 -0.0285,-0.003 -0.019,-0.002 -0.0285,-0.002 -0.0285,-9.9e-4 -0.0285,-0.001 c -0.71259,0 -5.20656,0.45273 -6.01414,0.54548 -0.38004,0.0468 -0.66508,0.29614 -0.66508,0.95028 0,0.59233 0.42755,0.59233 1.14013,0.59233 2.27074,0 2.36575,0.34305 2.36575,0.84162 l -0.13302,0.9972 -2.85029,11.7787 c -0.8456,-1.83781 -2.23275,-3.17801 -4.35148,-3.17801 l 0.0475,1.0909 c 3.06883,0 3.7339,4.06653 3.7339,4.36267 0,0.31112 -0.0855,0.6073 -0.13301,0.8566 l -2.37526,9.73847 c -0.23751,0.88749 -0.23751,0.98121 -0.95009,1.83781 -2.08072,2.72729 -4.01893,3.52203 -5.33958,3.52203 -2.36574,0 -3.0308,-2.72728 -3.0308,-4.67477 0,-2.47701 1.51066,-8.58475 2.59377,-10.87526 1.47265,-2.92974 3.61038,-4.76755 5.50107,-4.76755 l -0.0475,-1.0909 c -5.53908,0 -11.40119,7.29138 -11.40119,14.55287 0,4.6738 2.59378,7.94555 6.28966,7.94555 0.9406,0 3.31585,-0.2025 6.14715,-3.72347 0.38955,2.08809 2.03322,3.72347 4.30395,3.72347 1.66267,0 2.7458,-1.13678 3.50588,-2.7263 0.79808,-1.79195 1.42514,-4.83035 1.42514,-4.92309 0,-0.49858 -0.42754,-0.49858 -0.56057,-0.49858 -0.47504,0 -0.52254,0.20252 -0.67456,0.90345 -0.79808,3.22488 -1.66266,6.15458 -3.59137,6.15458 -1.27314,0 -1.42516,-1.29334 -1.42516,-2.2905 0,-1.18465 0.095,-1.54265 0.28503,-2.38427 z"
             inkscape:connector-curvature="0"
             style="fill:#000000;stroke-width:0" /><path
             id="path3423"
             d="m 533.9786,331.47745 0,-0.0259 0,-0.026 0,-0.0144 0,-0.0144 -0.01,-0.0144 0,-0.0173 -0.01,-0.0173 0,-0.0173 -0.01,-0.0203 -0.01,-0.0202 -0.01,-0.0231 -0.019,-0.023 -0.01,-0.026 -0.019,-0.0259 -0.019,-0.03 -0.0285,-0.0308 -0.019,-0.034 -0.0285,-0.0361 -0.019,-0.0202 -0.019,-0.0202 -0.01,-0.0202 -0.019,-0.0202 -0.019,-0.023 -0.019,-0.023 -0.019,-0.023 -0.019,-0.023 -0.0285,-0.026 -0.019,-0.026 -0.0285,-0.0259 -0.019,-0.0289 -0.0285,-0.0289 -0.019,-0.0289 -0.0285,-0.03 -0.0285,-0.032 -0.0285,-0.0321 -0.038,-0.0321 -0.0285,-0.034 -0.0285,-0.035 -0.038,-0.0358 -0.038,-0.0369 -0.0285,-0.0378 -0.038,-0.039 c -5.90962,-6.26328 -7.42027,-15.64379 -7.42027,-23.2473 0,-8.64657 1.79569,-17.29412 7.61029,-23.49558 0.60806,-0.60731 0.60806,-0.70103 0.60806,-0.8566 0,-0.34302 -0.17101,-0.48363 -0.45604,-0.48363 -0.47505,0 -4.741,3.36548 -7.52479,9.67565 -2.42276,5.46955 -2.99281,10.98496 -2.99281,15.16016 0,3.88003 0.52254,9.87908 3.12582,15.50319 2.8313,6.10774 6.91673,9.33363 7.39178,9.33363 0.28503,0 0.45604,-0.14049 0.45604,-0.4986 z"
             inkscape:connector-curvature="0"
             style="fill:#000000;stroke-width:0" /><path
             id="path3425"
             d="m 550.70036,311.36229 v 4.31583 c 0,1.79191 -0.095,2.33739 -3.59138,2.33739 h -0.9976 v 1.54263 c 1.94771,-0.15663 4.40847,-0.15663 6.39418,-0.15663 1.9952,0 4.50346,0 6.43216,0.15663 v -1.54263 h -0.9976 c -3.50586,0 -3.59137,-0.54548 -3.59137,-2.33739 v -4.31583 h 4.7315 v -1.54262 h -4.7315 v -22.60812 c 0,-0.99717 0,-1.29334 -0.76009,-1.29334 -0.42754,0 -0.56055,0 -0.95009,0.60827 l -14.52703,23.29319 h 1.33013 L 550.99489,291.294 v 18.52567 h -11.55322 -1.33013 v 1.54262 z"
             inkscape:connector-curvature="0"
             style="fill:#000000;stroke-width:0" /><path
             id="path3427"
             d="m 570.1014,319.51127 0,-0.30414 -0.01,-0.29618 -0.019,-0.28818 -0.019,-0.28011 -0.038,-0.27117 -0.0285,-0.26337 -0.0475,-0.25415 -0.0475,-0.2452 -0.057,-0.23742 -0.057,-0.22731 -0.0665,-0.21924 -0.076,-0.20943 -0.076,-0.20136 -0.0855,-0.19039 -0.095,-0.1826 -0.095,-0.17252 -0.10447,-0.16241 -0.10447,-0.15346 -0.11396,-0.1425 -0.11396,-0.13357 -0.12352,-0.1226 -0.12352,-0.11366 -0.13302,-0.1027 -0.13301,-0.0917 -0.14251,-0.0828 -0.15202,-0.0709 -0.15201,-0.0609 -0.15202,-0.05 -0.16151,-0.039 -0.16151,-0.0289 -0.17104,-0.0173 -0.17101,-0.006 c -1.55816,0 -2.50826,1.24649 -2.50826,2.63356 0,1.34023 0.9501,2.63357 2.50826,2.63357 0.57007,0 1.18764,-0.20338 1.66268,-0.6392 0.13301,-0.10875 0.19952,-0.15549 0.23753,-0.15549 0.0475,0 0.095,0.0468 0.095,0.74789 0,3.67661 -1.65316,6.65319 -3.22083,8.28858 -0.52256,0.54548 -0.52256,0.65415 -0.52256,0.79475 0,0.35799 0.23753,0.54548 0.47506,0.54548 0.52254,0 4.30394,-3.81724 4.30394,-9.62881 z"
             inkscape:connector-curvature="0"
             style="fill:#000000;stroke-width:0" /><path
             id="path3429"
             d="m 587.72576,303.26018 v -1.18464 c 0,-12.57345 5.86212,-14.36539 8.27538,-14.36539 1.13061,0 3.12583,0.29614 4.16143,1.99436 -0.70306,0 -2.60327,0 -2.60327,2.22771 0,1.54264 1.14963,2.29051 2.18523,2.29051 0.76009,0 2.16623,-0.45172 2.16623,-2.38326 0,-2.99156 -2.07122,-5.37579 -5.99513,-5.37579 -6.07115,0 -12.45582,6.41984 -12.45582,17.38885 0,13.27447 5.49158,16.79553 9.89056,16.79553 5.25404,0 9.74801,-4.6738 9.74801,-11.21829 0,-6.31019 -4.20894,-11.09366 -9.47249,-11.09366 l -0.038,1.15375 c 0.75057,0 2.93581,0 4.40845,3.08428 0.8456,1.82283 0.8456,4.36267 0.8456,6.79378 0,2.38328 0,4.87625 -0.80758,6.66816 -1.42517,2.97659 -3.59138,3.22589 -4.684,3.22589 h 0 c -2.98331,0 -4.39896,-2.97659 -4.6745,-3.72446 -0.86459,-2.3364 -0.86459,-6.31019 -0.86459,-7.21363 0,-3.86408 1.51067,-8.83402 5.77662,-8.83402 l 0.038,-1.15375 c -3.20185,0 -4.95002,2.53984 -5.90013,4.92407 z"
             inkscape:connector-curvature="0"
             style="fill:#000000;stroke-width:0" /><path
             id="path3431"
             d="m 618.85105,307.13923 0,-0.36896 0,-0.38191 -0.01,-0.39388 -0.01,-0.40487 -0.038,-0.84062 -0.057,-0.87952 -0.0855,-0.91441 -0.095,-0.94633 -0.13301,-0.97423 -0.15202,-0.99819 -0.19002,-1.01813 -0.21853,-1.03406 -0.24702,-1.04807 -0.29453,-1.05601 -0.33253,-1.06198 -0.37054,-1.06399 -0.19952,-0.53151 -0.21853,-0.5305 -0.22802,-0.52852 -0.23753,-0.52649 c -2.8313,-6.10774 -6.89772,-9.33363 -7.37277,-9.33363 -0.28504,0 -0.47505,0.18752 -0.47505,0.48363 0,0.15549 0,0.24924 0.88359,1.15274 4.65549,4.90812 7.35379,12.8078 7.35379,23.19944 0,8.49201 -1.7482,17.23331 -7.62932,23.4966 -0.60806,0.59232 -0.60806,0.70102 -0.60806,0.84162 0,0.29618 0.19001,0.4986 0.47505,0.4986 0.47505,0 4.72199,-3.38146 7.52479,-9.69162 2.40375,-5.45357 2.96431,-10.96899 2.96431,-15.1452 z"
             inkscape:connector-curvature="0"
             style="fill:#000000;stroke-width:0" /><path
             id="path3433"
             d="m 656.05697,303.30706 0.13302,-9.9e-4 0.1425,-10e-4 0.13302,-0.006 0.076,-0.003 0.0666,-0.006 0.0665,-0.006 0.0665,-0.008 0.0665,-0.008 0.0666,-0.0115 0.0665,-0.0144 0.0665,-0.0173 0.057,-0.0203 0.057,-0.0201 0.057,-0.026 0.057,-0.026 0.057,-0.0308 0.0475,-0.0348 0.0475,-0.0378 0.0475,-0.041 0.038,-0.0459 0.038,-0.0499 0.019,-0.026 0.019,-0.0289 0.01,-0.0289 0.019,-0.03 0.01,-0.0308 0.019,-0.0329 0.01,-0.0329 0.01,-0.0349 0.01,-0.0361 0.01,-0.0369 0.01,-0.039 0,-0.039 0.01,-0.0418 0,-0.0418 0,-0.0438 0,-0.0458 c 0,-0.99716 -0.9026,-0.99716 -1.55818,-0.99716 h -28.35098 c -0.67456,0 -1.55816,0 -1.55816,0.99716 0,0.98222 0.8836,0.98222 1.59617,0.98222 z"
             inkscape:connector-curvature="0"
             style="fill:#000000;stroke-width:0" /><path
             id="path3435"
             d="m 656.10446,312.95181 0.0666,0 0.057,-0.001 0.13301,-9.9e-4 0.13302,-0.006 0.0665,-0.003 0.0665,-0.006 0.0665,-0.006 0.0666,-0.008 0.057,-0.008 0.0665,-0.0115 0.0665,-0.0144 0.057,-0.0173 0.0665,-0.0203 0.057,-0.023 0.057,-0.0259 0.057,-0.0289 0.0475,-0.032 0.0475,-0.0349 0.0475,-0.0378 0.0475,-0.0418 0.038,-0.0468 0.019,-0.023 0.019,-0.0259 0.019,-0.026 0.019,-0.0289 0.01,-0.0289 0.019,-0.0308 0.01,-0.0308 0.019,-0.0329 0.01,-0.034 0.01,-0.035 0.01,-0.0369 0.01,-0.0378 0.01,-0.039 0,-0.0398 0.01,-0.0418 0,-0.0439 0,-0.0439 0,-0.0458 c 0,-0.9972 -0.9026,-0.9972 -1.60567,-0.9972 h -28.26548 c -0.71257,0 -1.59617,0 -1.59617,0.9972 0,0.99717 0.8836,0.99717 1.55815,0.99717 z"
             inkscape:connector-curvature="0"
             style="fill:#000000;stroke-width:0" /><path
             id="path3437"
             d="m 674.08987,302.07554 0.36103,-0.13155 0.35154,-0.14366 0.35153,-0.15664 0.33254,-0.1676 0.33254,-0.17944 0.32303,-0.19039 0.31354,-0.20049 0.30403,-0.21145 0.29453,-0.22126 0.28503,-0.23136 0.28502,-0.24029 0.26603,-0.24924 0.25653,-0.25934 0.24703,-0.26713 0.23752,-0.2752 0.21852,-0.28328 0.21853,-0.29021 0.19952,-0.29814 0.19002,-0.30514 0.18052,-0.31112 0.16151,-0.3181 0.16151,-0.32407 0.13302,-0.33008 0.12351,-0.33506 0.11398,-0.34002 0.10446,-0.34505 0.076,-0.34899 0.076,-0.35301 0.057,-0.35701 0.038,-0.36097 0.019,-0.36396 0.01,-0.36697 c 0,-4.06651 -4.17093,-6.85561 -8.71242,-6.85561 -4.779,0 -8.37989,2.99152 -8.37989,6.76188 0,1.63637 1.04512,2.58669 2.42276,2.58669 1.45365,0 2.40376,-1.09093 2.40376,-2.53984 0,-2.47698 -2.22323,-2.47698 -2.92631,-2.47698 1.46315,-2.43114 4.58899,-3.08529 6.29915,-3.08529 1.92871,0 4.54149,1.09093 4.54149,5.56227 0,0.6083 -0.10446,3.47518 -1.33964,5.67197 -1.40616,2.38329 -3.02132,2.52388 -4.19944,2.58571 -0.38004,0.0468 -1.51066,0.14048 -1.8527,0.14048 -0.37054,0.0468 -0.71257,0.0937 -0.71257,0.59233 0,0.54545 0.34203,0.54545 1.14012,0.54545 h 2.08072 c 3.89541,0 5.64359,3.38045 5.64359,8.25767 0,6.74694 -3.26835,8.19584 -5.35857,8.19584 -2.03321,0 -5.58658,-0.84162 -7.23027,-3.77134 1.64369,0.23424 3.11633,-0.8566 3.11633,-2.74226 0,-1.79094 -1.27312,-2.77316 -2.66028,-2.77316 -1.13061,0 -2.64127,0.68605 -2.64127,2.88286 0,4.51822 4.39897,7.78998 9.55802,7.78998 5.7766,0 10.08054,-4.51822 10.08054,-9.58192 0,-4.08245 -2.98331,-7.94656 -7.89532,-8.9906 z"
             inkscape:connector-curvature="0"
             style="fill:#000000;stroke-width:0" /><path
             id="path3439"
             d="m 510.2451,345.21564 0,-0.002 0,-0.003 0,-0.008 0,-0.008 0,-0.0115 0,-0.0144 0,-0.0173 0,-0.0173 -0.01,-0.0202 0,-0.0202 -0.01,-0.023 0,-0.023 -0.01,-0.023 -0.01,-0.023 -0.01,-0.026 -0.01,-0.023 -0.019,-0.026 -0.01,-0.023 -0.019,-0.026 -0.019,-0.023 -0.019,-0.023 -0.019,-0.0115 -0.01,-0.0115 -0.01,-0.0115 -0.019,-0.008 -0.01,-0.0115 -0.019,-0.008 -0.01,-0.008 -0.019,-0.008 -0.019,-0.008 -0.01,-0.008 -0.019,-0.008 -0.019,-0.006 -0.019,-0.006 -0.019,-0.006 -0.019,-0.006 -0.0285,-0.006 -0.019,-0.006 -0.0285,-0.003 -0.019,-0.003 -0.0285,-0.003 -0.019,-0.003 -0.0285,-10e-4 -0.0285,-9.8e-4 -0.0285,-10e-4 c -0.71259,0 -5.20656,0.45172 -6.01414,0.54548 -0.38004,0.0468 -0.66508,0.29614 -0.66508,0.95029 0,0.59232 0.42755,0.59232 1.14013,0.59232 2.27074,0 2.36575,0.34305 2.36575,0.84162 l -0.13302,0.9972 -2.85029,11.7787 c -0.8456,-1.83879 -2.23275,-3.178 -4.35148,-3.178 l 0.0475,1.08991 c 3.06883,0 3.7339,4.06751 3.7339,4.36268 0,0.3121 -0.0855,0.60828 -0.13301,0.85757 l -2.37526,9.73787 c -0.23751,0.88816 -0.23751,0.98165 -0.95009,1.83859 -2.08072,2.72671 -4.01893,3.52128 -5.33958,3.52128 -2.36574,0 -3.0308,-2.7266 -3.0308,-4.67426 0,-2.47735 1.51066,-8.58509 2.59377,-10.8752 1.47265,-2.92974 3.61038,-4.76853 5.50107,-4.76853 l -0.0475,-1.08991 c -5.53908,0 -11.40119,7.29138 -11.40119,14.55227 0,4.67428 2.59378,7.94635 6.28966,7.94635 0.9406,0 3.31585,-0.2025 6.14715,-3.72387 0.38955,2.08788 2.03322,3.72387 4.30395,3.72387 1.66267,0 2.7458,-1.13739 3.50588,-2.72671 0.79808,-1.7918 1.42514,-4.83004 1.42514,-4.92358 0,-0.49861 -0.42754,-0.49861 -0.56057,-0.49861 -0.47504,0 -0.52254,0.20252 -0.67456,0.90377 -0.79808,3.22522 -1.66266,6.15441 -3.59137,6.15441 -1.27314,0 -1.42516,-1.29317 -1.42516,-2.29033 0,-1.18419 0.095,-1.54256 0.28503,-2.38393 z"
             inkscape:connector-curvature="0"
             style="fill:#000000;stroke-width:0" /><path
             id="path3441"
             d="m 533.9786,391.07004 0,-0.0259 0,-0.026 0,-0.0139 0,-0.0139 -0.01,-0.015 0,-0.0158 -0.01,-0.0171 0,-0.0179 -0.01,-0.019 -0.01,-0.0199 -0.01,-0.0219 -0.019,-0.023 -0.01,-0.026 -0.019,-0.0268 -0.019,-0.0289 -0.0285,-0.0309 -0.019,-0.0339 -0.0285,-0.0369 -0.019,-0.019 -0.019,-0.019 -0.01,-0.0211 -0.019,-0.0211 -0.019,-0.0219 -0.019,-0.0231 -0.019,-0.0228 -0.019,-0.0239 -0.0285,-0.0248 -0.019,-0.026 -0.0285,-0.0268 -0.019,-0.0268 -0.0285,-0.028 -0.019,-0.0299 -0.0285,-0.0299 -0.0285,-0.031 -0.0285,-0.0319 -0.038,-0.0329 -0.0285,-0.0339 -0.0285,-0.035 -0.038,-0.0349 -0.038,-0.0369 -0.0285,-0.0379 -0.038,-0.0389 c -5.90962,-6.26389 -7.42027,-15.64361 -7.42027,-23.24711 0,-8.64775 1.79569,-17.29533 7.61029,-23.49579 0.60806,-0.60831 0.60806,-0.70102 0.60806,-0.85757 0,-0.34204 -0.17101,-0.48265 -0.45604,-0.48265 -0.47505,0 -4.741,3.36548 -7.52479,9.67565 -2.42276,5.46856 -2.99281,10.98496 -2.99281,15.16036 0,3.87963 0.52254,9.87829 3.12582,15.50307 2.8313,6.10766 6.91673,9.33255 7.39178,9.33255 0.28503,0 0.45604,-0.13959 0.45604,-0.49859 z"
             inkscape:connector-curvature="0"
             style="fill:#000000;stroke-width:0" /><path
             id="path3443"
             d="m 558.04464,369.16364 -0.01,-0.55072 -0.038,-0.54458 -0.057,-0.53758 -0.076,-0.52989 -0.095,-0.52145 -0.11396,-0.51224 -0.14253,-0.50238 -0.15201,-0.4917 -0.18052,-0.47996 -0.19002,-0.46866 -0.21852,-0.45572 -0.22803,-0.44175 -0.24703,-0.4268 -0.26602,-0.41283 -0.27553,-0.39587 -0.29453,-0.37993 -0.30403,-0.36298 -0.33254,-0.34403 -0.33254,-0.32607 -0.35153,-0.30615 -0.36104,-0.28617 -0.38004,-0.26511 -0.38954,-0.24347 -0.39904,-0.22039 -0.41804,-0.19732 -0.41805,-0.17452 -0.42755,-0.14857 -0.44655,-0.12376 -0.44654,-0.0978 -0.46555,-0.0698 -0.46555,-0.043 -0.47504,-0.0144 c -2.27074,0 -4.30396,0.79475 -6.01415,2.52487 v -9.67567 c 0.95011,0.29516 2.50826,0.63821 4.02843,0.63821 5.81461,0 9.13046,-4.51825 9.13046,-5.17239 0,-0.29618 -0.13301,-0.54545 -0.47505,-0.54545 -0.0475,0 -0.13302,0 -0.37054,0.15549 -0.9501,0.45172 -3.26835,1.43394 -6.45118,1.43394 -1.8812,0 -4.06643,-0.34301 -6.28966,-1.38707 -0.37054,-0.14048 -0.47505,-0.14048 -0.56056,-0.14048 -0.47504,0 -0.47504,0.3899 -0.47504,1.18465 v 14.70844 c 0,0.88749 0,1.29334 0.66506,1.29334 0.32304,0 0.41805,-0.15664 0.60807,-0.45175 0.52256,-0.79474 2.27074,-3.47515 6.09963,-3.47515 2.47027,0 3.65789,2.29051 4.02843,3.179 0.76958,1.83781 0.8551,3.77025 0.8551,6.26321 0,1.72952 0,4.72105 -1.14013,6.8089 -1.13061,1.93208 -2.8788,3.22522 -5.06403,3.22522 -3.45837,0 -6.14715,-2.63313 -6.96422,-5.56237 0.152,0.0468 0.30402,0.0934 0.81707,0.0934 1.55816,0 2.36575,-1.24647 2.36575,-2.43063 0,-1.19981 -0.80759,-2.43065 -2.36575,-2.43065 -0.66507,0 -2.32774,0.34275 -2.32774,2.63317 0,4.26918 3.26834,9.08372 8.5794,9.08372 5.48208,0 10.31809,-4.76781 10.31809,-11.07809 z"
             inkscape:connector-curvature="0"
             style="fill:#000000;stroke-width:0" /><path
             id="path3445"
             d="m 570.1014,379.10425 0,-0.30414 -0.01,-0.29626 -0.019,-0.2879 -0.019,-0.27981 -0.038,-0.27146 -0.0285,-0.26309 -0.0475,-0.25414 -0.0475,-0.24578 -0.057,-0.23684 -0.057,-0.2279 -0.0665,-0.21895 -0.076,-0.21 -0.076,-0.20079 -0.0855,-0.19126 -0.095,-0.18202 -0.095,-0.17251 -0.10447,-0.1627 -0.10447,-0.15289 -0.11396,-0.14308 -0.11396,-0.13327 -0.12352,-0.12319 -0.12352,-0.11307 -0.13302,-0.1027 -0.13301,-0.0923 -0.14251,-0.0819 -0.15202,-0.0712 -0.15201,-0.0605 -0.15202,-0.0499 -0.16151,-0.039 -0.16151,-0.0289 -0.17104,-0.0173 -0.17101,-0.006 c -1.55816,0 -2.50826,1.24649 -2.50826,2.63321 0,1.33991 0.9501,2.63316 2.50826,2.63316 0.57007,0 1.18764,-0.20251 1.66268,-0.6388 0.13301,-0.10903 0.19952,-0.15577 0.23753,-0.15577 0.0475,0 0.095,0.0468 0.095,0.74787 0,3.67711 -1.65316,6.65281 -3.22083,8.28918 -0.52256,0.54546 -0.52256,0.65416 -0.52256,0.79475 0,0.358 0.23753,0.54546 0.47506,0.54546 0.52254,0 4.30394,-3.8172 4.30394,-9.62939 z"
             inkscape:connector-curvature="0"
             style="fill:#000000;stroke-width:0" /><path
             id="path3447"
             d="m 595.38357,370.95549 v 4.31589 c 0,1.79186 -0.095,2.33711 -3.59138,2.33711 h -0.99761 v 1.54255 c 1.94772,-0.15578 4.40847,-0.15578 6.39419,-0.15578 1.9952,0 4.50347,0 6.43217,0.15578 v -1.54255 h -0.99761 c -3.49636,0 -3.59138,-0.54525 -3.59138,-2.33711 v -4.31589 h 4.73151 v -1.54255 h -4.73151 v -22.60781 c 0,-0.99716 0,-1.29334 -0.76007,-1.29334 -0.42755,0 -0.56056,0 -0.95011,0.6073 l -14.52703,23.29385 h 1.33015 l 11.55321,-18.52535 v 18.52535 h -11.55321 -1.33015 v 1.54255 z"
             inkscape:connector-curvature="0"
             style="fill:#000000;stroke-width:0" /><path
             id="path3449"
             d="m 618.85105,366.73302 0,-0.36985 0,-0.38203 -0.01,-0.39347 -0.01,-0.40468 -0.038,-0.84041 -0.057,-0.87952 -0.0855,-0.91542 -0.095,-0.94631 -0.13301,-0.97325 -0.15202,-0.99818 -0.19002,-1.01814 -0.21853,-1.03406 -0.24702,-1.04806 -0.29453,-1.05699 -0.33253,-1.06202 -0.37054,-1.06297 -0.19952,-0.53151 -0.21853,-0.5305 -0.22802,-0.52852 -0.23753,-0.5275 c -2.8313,-6.10774 -6.89772,-9.33262 -7.37277,-9.33262 -0.28504,0 -0.47505,0.18635 -0.47505,0.48265 0,0.15663 0,0.24923 0.88359,1.15372 4.65549,4.90714 7.35379,12.80682 7.35379,23.19964 0,8.4916 -1.7482,17.2325 -7.62932,23.49639 -0.60806,0.59133 -0.60806,0.70103 -0.60806,0.84063 0,0.29617 0.19001,0.49859 0.47505,0.49859 0.47505,0 4.72199,-3.38044 7.52479,-9.6909 2.40375,-5.4534 2.96431,-10.96902 2.96431,-15.14471 z"
             inkscape:connector-curvature="0"
             style="fill:#000000;stroke-width:0" /><path
             id="path3451"
             d="m 656.05697,362.89966 0.13302,0 0.1425,-0.002 0.13302,-0.003 0.076,-0.003 0.0666,-0.006 0.0665,-0.006 0.0665,-0.008 0.0665,-0.008 0.0666,-0.0115 0.0665,-0.0144 0.0665,-0.0173 0.057,-0.0202 0.057,-0.023 0.057,-0.0231 0.057,-0.0289 0.057,-0.0308 0.0475,-0.034 0.0475,-0.0378 0.0475,-0.041 0.038,-0.0458 0.038,-0.0499 0.019,-0.026 0.019,-0.0289 0.01,-0.0289 0.019,-0.03 0.01,-0.0308 0.019,-0.032 0.01,-0.0329 0.01,-0.035 0.01,-0.0358 0.01,-0.0369 0.01,-0.039 0,-0.0398 0.01,-0.041 0,-0.0418 0,-0.0438 0,-0.0458 c 0,-0.99717 -0.9026,-0.99717 -1.55818,-0.99717 h -28.35098 c -0.67456,0 -1.55816,0 -1.55816,0.99717 0,0.98124 0.8836,0.98124 1.59617,0.98124 z"
             inkscape:connector-curvature="0"
             style="fill:#000000;stroke-width:0" /><path
             id="path3453"
             d="m 656.10446,372.5447 0.0666,0 0.057,-2e-4 0.13301,-0.002 0.13302,-0.006 0.0665,-0.003 0.0665,-0.006 0.0665,-0.006 0.0666,-0.008 0.057,-0.0115 0.0665,-0.0115 0.0665,-0.0144 0.057,-0.0173 0.0665,-0.0201 0.057,-0.023 0.057,-0.026 0.057,-0.0289 0.0475,-0.0311 0.0475,-0.0346 0.0475,-0.0383 0.0475,-0.0421 0.038,-0.0462 0.019,-0.026 0.019,-0.026 0.019,-0.026 0.019,-0.0289 0.01,-0.0291 0.019,-0.0303 0.01,-0.0315 0.019,-0.0326 0.01,-0.034 0.01,-0.0352 0.01,-0.0364 0.01,-0.0378 0.01,-0.039 0,-0.0404 0.01,-0.0418 0,-0.043 0,-0.0447 0,-0.0461 c 0,-0.99717 -0.9026,-0.99717 -1.60567,-0.99717 h -28.26548 c -0.71257,0 -1.59617,0 -1.59617,0.99717 0,0.99719 0.8836,0.99719 1.55815,0.99719 z"
             inkscape:connector-curvature="0"
             style="fill:#000000;stroke-width:0" /><path
             id="path3455"
             d="m 666.37505,375.31812 5.01654,-5.11052 c 7.37277,-6.85524 10.22306,-9.53564 10.22306,-14.50562 0,-5.67197 -4.25643,-9.64472 -10.03305,-9.64472 -5.35856,0 -8.86444,4.58105 -8.86444,9.00555 0,2.77316 2.37526,2.77316 2.50827,2.77316 0.81708,0 2.47026,-0.59135 2.47026,-2.63255 0,-1.29335 -0.84559,-2.58669 -2.50827,-2.58669 -0.38003,0 -0.47504,0 -0.61756,0.0468 1.09262,-3.22588 3.63888,-5.06369 6.38468,-5.06369 4.30395,0 6.35615,4.0356 6.35615,8.1021 0,3.97278 -2.37524,7.89968 -4.96901,10.98427 l -9.08296,10.62626 c -0.54156,0.54527 -0.54156,0.63879 -0.54156,1.83853 h 17.56735 l 1.33014,-8.64747 h -1.18763 c -0.23752,1.49577 -0.56054,3.67715 -1.0356,4.42502 -0.34204,0.38952 -3.45836,0.38952 -4.49398,0.38952 z"
             inkscape:connector-curvature="0"
             style="fill:#000000;stroke-width:0" /><path
             id="path3457"
             d="m 510.2451,404.80523 0,-0.003 0,-0.003 0,-0.008 0,-0.0103 0,-0.013 0,-0.015 0,-0.0158 0,-0.0179 -0.01,-0.019 0,-0.0211 -0.01,-0.0219 0,-0.0219 -0.01,-0.024 -0.01,-0.024 -0.01,-0.0239 -0.01,-0.0248 -0.019,-0.024 -0.01,-0.0248 -0.019,-0.024 -0.019,-0.0228 -0.019,-0.023 -0.019,-0.0118 -0.01,-0.0103 -0.01,-0.011 -0.019,-0.011 -0.01,-0.0103 -0.019,-0.0103 -0.01,-0.009 -0.019,-0.009 -0.019,-0.009 -0.01,-0.008 -0.019,-0.008 -0.019,-0.008 -0.019,-0.007 -0.019,-0.006 -0.019,-0.006 -0.0285,-0.005 -0.019,-0.005 -0.0285,-0.005 -0.019,-0.003 -0.0285,-0.003 -0.019,-0.003 -0.0285,-0.002 -0.0285,-10e-4 -0.0285,0 c -0.71259,0 -5.20656,0.45172 -6.01414,0.54546 -0.38004,0.0469 -0.66508,0.29617 -0.66508,0.95031 0,0.59233 0.42755,0.59233 1.14013,0.59233 2.27074,0 2.36575,0.34304 2.36575,0.84163 l -0.13302,0.99718 -2.85029,11.77871 c -0.8456,-1.8388 -2.23275,-3.17902 -4.35148,-3.17902 l 0.0475,1.09092 c 3.06883,0 3.7339,4.0665 3.7339,4.36268 0,0.31211 -0.0855,0.60828 -0.13301,0.85758 l -2.37526,9.73746 c -0.23751,0.8885 -0.23751,0.98222 -0.95009,1.83882 -2.08072,2.72628 -4.01893,3.52105 -5.33958,3.52105 -2.36574,0 -3.0308,-2.7263 -3.0308,-4.67379 0,-2.47802 1.51066,-8.58576 2.59377,-10.87528 1.47265,-2.92972 3.61038,-4.76852 5.50107,-4.76852 l -0.0475,-1.09092 c -5.53908,0 -11.40119,7.29239 -11.40119,14.55287 0,4.67479 2.59378,7.94653 6.28966,7.94653 0.9406,0 3.31585,-0.2025 6.14715,-3.72347 0.38955,2.08711 2.03322,3.72347 4.30395,3.72347 1.66267,0 2.7458,-1.13776 3.50588,-2.72628 0.79808,-1.79194 1.42514,-4.83034 1.42514,-4.92407 0,-0.4986 -0.42754,-0.4986 -0.56057,-0.4986 -0.47504,0 -0.52254,0.20252 -0.67456,0.90345 -0.79808,3.22589 -1.66266,6.15461 -3.59137,6.15461 -1.27314,0 -1.42516,-1.29336 -1.42516,-2.29054 0,-1.18366 0.095,-1.54163 0.28503,-2.38325 z"
             inkscape:connector-curvature="0"
             style="fill:#000000;stroke-width:0" /><path
             id="path3459"
             d="m 533.9786,450.65965 0,-0.026 0,-0.026 0,-0.0144 0,-0.0144 -0.01,-0.0144 0,-0.0144 -0.01,-0.0173 0,-0.0173 -0.01,-0.0201 -0.01,-0.0202 -0.01,-0.023 -0.019,-0.023 -0.01,-0.026 -0.019,-0.026 -0.019,-0.0289 -0.0285,-0.0321 -0.019,-0.0329 -0.0285,-0.0369 -0.019,-0.0202 -0.019,-0.0202 -0.01,-0.0202 -0.019,-0.0202 -0.019,-0.023 -0.019,-0.023 -0.019,-0.023 -0.019,-0.023 -0.0285,-0.026 -0.019,-0.026 -0.0285,-0.026 -0.019,-0.0259 -0.0285,-0.0289 -0.019,-0.0289 -0.0285,-0.03 -0.0285,-0.0308 -0.0285,-0.0321 -0.038,-0.0329 -0.0285,-0.034 -0.0285,-0.035 -0.038,-0.0358 -0.038,-0.0369 -0.0285,-0.0369 -0.038,-0.039 c -5.90962,-6.26432 -7.42027,-15.64378 -7.42027,-23.24731 0,-8.64755 1.79569,-17.29512 7.61029,-23.4966 0.60806,-0.60728 0.60806,-0.70101 0.60806,-0.85658 0,-0.34302 -0.17101,-0.48262 -0.45604,-0.48262 -0.47505,0 -4.741,3.36548 -7.52479,9.67564 -2.42276,5.46855 -2.99281,10.98497 -2.99281,15.16016 0,3.88005 0.52254,9.87809 3.12582,15.50318 2.8313,6.10775 6.91673,9.33265 7.39178,9.33265 0.28503,0 0.45604,-0.13962 0.45604,-0.49859 z"
             inkscape:connector-curvature="0"
             style="fill:#000000;stroke-width:0" /><path
             id="path3461"
             d="m 558.04464,428.75254 -0.01,-0.55043 -0.038,-0.54447 -0.057,-0.53748 -0.076,-0.5295 -0.095,-0.52153 -0.11396,-0.51256 -0.14253,-0.50258 -0.15201,-0.49158 -0.18052,-0.48066 -0.19002,-0.46767 -0.21852,-0.45574 -0.22803,-0.44173 -0.24703,-0.4268 -0.26602,-0.41283 -0.27553,-0.39588 -0.29453,-0.37993 -0.30403,-0.36297 -0.33254,-0.34402 -0.33254,-0.32609 -0.35153,-0.30614 -0.36104,-0.28619 -0.38004,-0.26525 -0.38954,-0.24333 -0.39904,-0.22036 -0.41804,-0.19844 -0.41805,-0.17352 -0.42755,-0.14859 -0.44655,-0.12365 -0.44654,-0.0978 -0.46555,-0.0698 -0.46555,-0.0429 -0.47504,-0.015 c -2.27074,0 -4.30396,0.79475 -6.01415,2.52486 v -9.67666 c 0.95011,0.29617 2.50826,0.6392 4.02843,0.6392 5.81461,0 9.13046,-4.51823 9.13046,-5.17238 0,-0.29617 -0.13301,-0.54546 -0.47505,-0.54546 -0.0475,0 -0.13302,0 -0.37054,0.15557 -0.9501,0.45172 -3.26835,1.43295 -6.45118,1.43295 -1.8812,0 -4.06643,-0.34203 -6.28966,-1.38608 -0.37054,-0.14061 -0.47505,-0.14061 -0.56056,-0.14061 -0.47504,0 -0.47504,0.38991 -0.47504,1.18466 v 14.70843 c 0,0.88749 0,1.29336 0.66506,1.29336 0.32304,0 0.41805,-0.15656 0.60807,-0.45274 0.52256,-0.79376 2.27074,-3.47418 6.09963,-3.47418 2.47027,0 3.65789,2.29053 4.02843,3.17902 0.76958,1.83781 0.8551,3.77035 0.8551,6.26331 0,1.72911 0,4.72064 -1.14013,6.80873 -1.13061,1.93157 -2.8788,3.22492 -5.06403,3.22492 -3.45837,0 -6.14715,-2.63256 -6.96422,-5.56231 0.152,0.0468 0.30402,0.0938 0.81707,0.0938 1.55816,0 2.36575,-1.24647 2.36575,-2.43112 0,-1.19961 -0.80759,-2.43012 -2.36575,-2.43012 -0.66507,0 -2.32774,0.34302 -2.32774,2.63254 0,4.26994 3.26834,9.08434 8.5794,9.08434 5.48208,0 10.31809,-4.76755 10.31809,-11.0787 z"
             inkscape:connector-curvature="0"
             style="fill:#000000;stroke-width:0" /><path
             id="path3463"
             d="m 570.1014,438.69346 0,-0.30416 -0.01,-0.29615 -0.019,-0.28818 -0.019,-0.27925 -0.038,-0.27116 -0.0285,-0.26338 -0.0475,-0.25415 -0.0475,-0.24519 -0.057,-0.23741 -0.057,-0.22848 -0.0665,-0.21838 -0.076,-0.21029 -0.076,-0.20049 -0.0855,-0.19155 -0.095,-0.18144 -0.095,-0.17251 -0.10447,-0.16241 -0.10447,-0.15347 -0.11396,-0.14366 -0.11396,-0.1327 -0.12352,-0.12375 -0.12352,-0.1128 -0.13302,-0.1027 -0.13301,-0.0929 -0.14251,-0.0816 -0.15202,-0.0719 -0.15201,-0.0597 -0.15202,-0.0499 -0.16151,-0.039 -0.16151,-0.0289 -0.17104,-0.0144 -0.17101,-0.006 c -1.55816,0 -2.50826,1.24647 -2.50826,2.63357 0,1.3392 0.9501,2.63255 2.50826,2.63255 0.57007,0 1.18764,-0.20251 1.66268,-0.63819 0.13301,-0.10963 0.19952,-0.15665 0.23753,-0.15665 0.0475,0 0.095,0.0468 0.095,0.74787 0,3.67761 -1.65316,6.65322 -3.22083,8.28959 -0.52256,0.54545 -0.52256,0.65414 -0.52256,0.79474 0,0.358 0.23753,0.54547 0.47506,0.54547 0.52254,0 4.30394,-3.8182 4.30394,-9.6298 z"
             inkscape:connector-curvature="0"
             style="fill:#000000;stroke-width:0" /><path
             id="path3465"
             d="m 587.72576,422.44238 v -1.18365 c 0,-12.57346 5.86212,-14.36541 8.27538,-14.36541 1.13061,0 3.12583,0.29617 4.16143,1.99437 -0.70306,0 -2.60327,0 -2.60327,2.2277 0,1.54265 1.14963,2.29054 2.18523,2.29054 0.76009,0 2.16623,-0.45173 2.16623,-2.38427 0,-2.99155 -2.07122,-5.37481 -5.99513,-5.37481 -6.07115,0 -12.45582,6.41886 -12.45582,17.38786 0,13.27547 5.49158,16.79653 9.89056,16.79653 5.25404,0 9.74801,-4.67478 9.74801,-11.21829 0,-6.31018 -4.20894,-11.09366 -9.47249,-11.09366 l -0.038,1.15274 c 0.75057,0 2.93581,0 4.40845,3.08529 0.8456,1.82286 0.8456,4.36267 0.8456,6.7928 0,2.38427 0,4.87723 -0.80758,6.66915 -1.42517,2.9756 -3.59138,3.2249 -4.684,3.2249 h 0 c -2.98331,0 -4.39896,-2.97561 -4.6745,-3.72348 -0.86459,-2.33742 -0.86459,-6.31016 -0.86459,-7.21461 0,-3.8631 1.51067,-8.83405 5.77662,-8.83405 l 0.038,-1.15274 c -3.20185,0 -4.95002,2.53982 -5.90013,4.92309 z"
             inkscape:connector-curvature="0"
             style="fill:#000000;stroke-width:0" /><path
             id="path3467"
             d="m 618.85105,426.32241 0,-0.36993 0,-0.38195 -0.01,-0.39388 -0.01,-0.40387 -0.038,-0.8406 -0.057,-0.88051 -0.0855,-0.91442 -0.095,-0.94632 -0.13301,-0.97326 -0.15202,-0.99818 -0.19002,-1.01812 -0.21853,-1.03508 -0.24702,-1.04704 -0.29453,-1.05701 -0.33253,-1.062 -0.37054,-1.06299 -0.19952,-0.5315 -0.21853,-0.5305 -0.22802,-0.52851 -0.23753,-0.52751 c -2.8313,-6.10774 -6.89772,-9.33262 -7.37277,-9.33262 -0.28504,0 -0.47505,0.18646 -0.47505,0.48263 0,0.15557 0,0.2493 0.88359,1.15275 4.65549,4.90812 7.35379,12.8078 7.35379,23.20042 0,8.49201 -1.7482,17.2323 -7.62932,23.4966 -0.60806,0.59134 -0.60806,0.70102 -0.60806,0.84064 0,0.29615 0.19001,0.49857 0.47505,0.49857 0.47505,0 4.72199,-3.38042 7.52479,-9.69159 2.40375,-5.4526 2.96431,-10.96902 2.96431,-15.14422 z"
             inkscape:connector-curvature="0"
             style="fill:#000000;stroke-width:0" /><path
             id="path3469"
             d="m 656.05697,422.48925 0.13302,0 0.1425,-0.002 0.13302,-0.004 0.076,-0.004 0.0666,-0.005 0.0665,-0.007 0.0665,-0.008 0.0665,-0.0103 0.0666,-0.0118 0.0665,-0.0139 0.0665,-0.0158 0.057,-0.019 0.057,-0.0219 0.057,-0.024 0.057,-0.028 0.057,-0.0309 0.0475,-0.0339 0.0475,-0.0378 0.0475,-0.042 0.038,-0.0448 0.038,-0.0499 0.019,-0.026 0.019,-0.028 0.01,-0.0289 0.019,-0.0299 0.01,-0.0309 0.019,-0.0319 0.01,-0.0329 0.01,-0.0349 0.01,-0.0359 0.01,-0.0369 0.01,-0.0389 0,-0.0399 0.01,-0.0409 0,-0.0429 0,-0.0439 0,-0.0449 c 0,-0.99719 -0.9026,-0.99719 -1.55818,-0.99719 h -28.35098 c -0.67456,0 -1.55816,0 -1.55816,0.99719 0,0.98122 0.8836,0.98122 1.59617,0.98122 z"
             inkscape:connector-curvature="0"
             style="fill:#000000;stroke-width:0" /><path
             id="path3471"
             d="m 656.10446,432.13401 0.0666,0 0.057,0 0.13301,-0.002 0.13302,-0.003 0.0665,-0.003 0.0665,-0.006 0.0665,-0.006 0.0666,-0.008 0.057,-0.0115 0.0665,-0.0115 0.0665,-0.0144 0.057,-0.0173 0.0665,-0.0201 0.057,-0.023 0.057,-0.026 0.057,-0.0289 0.0475,-0.0308 0.0475,-0.035 0.0475,-0.039 0.0475,-0.0418 0.038,-0.0458 0.019,-0.026 0.019,-0.026 0.019,-0.026 0.019,-0.0289 0.01,-0.0289 0.019,-0.03 0.01,-0.0321 0.019,-0.0329 0.01,-0.034 0.01,-0.0349 0.01,-0.0358 0.01,-0.0378 0.01,-0.039 0,-0.041 0.01,-0.0418 0,-0.043 0,-0.045 0,-0.0458 c 0,-0.99716 -0.9026,-0.99716 -1.60567,-0.99716 h -28.26548 c -0.71257,0 -1.59617,0 -1.59617,0.99716 0,0.9972 0.8836,0.9972 1.55815,0.9972 z"
             inkscape:connector-curvature="0"
             style="fill:#000000;stroke-width:0" /><path
             id="path3473"
             d="m 674.27038,406.94019 0,-0.0548 0,-0.0539 0,-0.0509 0,-0.0509 0,-0.0488 0,-0.0469 0,-0.0459 0,-0.0439 -0.01,-0.0429 0,-0.042 0,-0.0399 0,-0.0389 0,-0.0379 0,-0.0359 -0.01,-0.035 0,-0.0339 -0.01,-0.0638 -0.01,-0.0588 -0.01,-0.0548 -0.01,-0.0509 -0.019,-0.0459 -0.019,-0.0418 -0.019,-0.0389 -0.019,-0.0339 -0.0285,-0.0319 -0.0285,-0.0268 -0.038,-0.0248 -0.038,-0.0219 -0.038,-0.019 -0.0285,-0.009 -0.019,-0.008 -0.0285,-0.007 -0.0285,-0.007 -0.019,-0.006 -0.0285,-0.006 -0.0285,-0.005 -0.038,-0.005 -0.0285,-0.004 -0.0285,-0.003 -0.038,-0.004 -0.038,-0.003 -0.038,-0.002 -0.038,-0.002 -0.038,-0.002 -0.038,-0.002 -0.0475,-10e-4 -0.038,-0.001 -0.0475,-9.9e-4 -0.0475,0 -0.0475,0 -0.0475,0 c -2.94532,3.17801 -7.09725,3.17801 -8.61742,3.17801 v 1.54265 c 0.9501,0 3.7434,0 6.19466,-1.29335 v 25.74026 c 0,1.79194 -0.13302,2.38326 -4.38947,2.38326 h -1.52016 v 1.54263 c 1.66268,-0.15548 5.77661,-0.15548 7.66732,-0.15548 1.90019,0 6.00463,0 7.66731,0.15548 v -1.54263 h -1.51066 c -4.25646,0 -4.40848,-0.54545 -4.40848,-2.38326 z"
             inkscape:connector-curvature="0"
             style="fill:#000000;stroke-width:0" /></g></g></g>  </g>
</svg>
